<mxfile host="app.diagrams.net" modified="2022-01-01T20:11:58.203Z" agent="5.0 (Windows)" etag="K_gxsA-5atDE3nUnVN4n" version="16.1.2" type="github">
  <diagram id="DZnTzjoJEzsi1uDnSOIx" name="Page-1">
    <mxGraphModel dx="2912" dy="1151" grid="1" gridSize="10" guides="1" tooltips="1" connect="1" arrows="1" fold="1" page="1" pageScale="1" pageWidth="850" pageHeight="1100" math="0" shadow="0">
      <root>
        <mxCell id="0" />
        <mxCell id="1" parent="0" />
        <mxCell id="_NaHXFqti5zntaUbajzt-1" value="&lt;div style=&quot;font-size: 17px&quot;&gt;&lt;b&gt;&lt;font style=&quot;font-size: 17px&quot;&gt;LOWER&lt;/font&gt;&lt;/b&gt;&lt;/div&gt;&lt;div style=&quot;font-size: 17px&quot;&gt;&lt;font style=&quot;font-size: 17px&quot;&gt;Cluster&lt;br&gt;&lt;/font&gt;&lt;/div&gt;" style="rounded=1;whiteSpace=wrap;html=1;verticalAlign=top;align=left;arcSize=6;spacingLeft=4;fillColor=#d5e8d4;strokeColor=#82b366;" vertex="1" parent="1">
          <mxGeometry x="90" y="400" width="620" height="210" as="geometry" />
        </mxCell>
        <mxCell id="_NaHXFqti5zntaUbajzt-2" value="QA" style="sketch=0;html=1;dashed=0;whitespace=wrap;fillColor=#2875E2;strokeColor=#ffffff;points=[[0.005,0.63,0],[0.1,0.2,0],[0.9,0.2,0],[0.5,0,0],[0.995,0.63,0],[0.72,0.99,0],[0.5,1,0],[0.28,0.99,0]];shape=mxgraph.kubernetes.icon;prIcon=ns;verticalAlign=top;labelPosition=center;verticalLabelPosition=bottom;align=center;fontSize=17;fontStyle=1;fontColor=#3705FF;" vertex="1" parent="1">
          <mxGeometry x="357" y="526" width="50" height="48" as="geometry" />
        </mxCell>
        <mxCell id="_NaHXFqti5zntaUbajzt-3" value="" style="sketch=0;aspect=fixed;html=1;points=[];align=center;image;fontSize=12;image=img/lib/mscae/Kubernetes.svg;" vertex="1" parent="1">
          <mxGeometry x="650" y="410" width="50" height="48" as="geometry" />
        </mxCell>
        <mxCell id="_NaHXFqti5zntaUbajzt-4" value="Dev" style="sketch=0;html=1;dashed=0;whitespace=wrap;fillColor=#2875E2;strokeColor=#ffffff;points=[[0.005,0.63,0],[0.1,0.2,0],[0.9,0.2,0],[0.5,0,0],[0.995,0.63,0],[0.72,0.99,0],[0.5,1,0],[0.28,0.99,0]];shape=mxgraph.kubernetes.icon;prIcon=ns;verticalAlign=top;labelPosition=center;verticalLabelPosition=bottom;align=center;fontSize=17;fontStyle=1;fontColor=#3705FF;" vertex="1" parent="1">
          <mxGeometry x="140" y="526" width="50" height="48" as="geometry" />
        </mxCell>
        <mxCell id="_NaHXFqti5zntaUbajzt-5" value="LoadTest" style="sketch=0;html=1;dashed=0;whitespace=wrap;fillColor=#2875E2;strokeColor=#ffffff;points=[[0.005,0.63,0],[0.1,0.2,0],[0.9,0.2,0],[0.5,0,0],[0.995,0.63,0],[0.72,0.99,0],[0.5,1,0],[0.28,0.99,0]];shape=mxgraph.kubernetes.icon;prIcon=ns;verticalAlign=top;labelPosition=center;verticalLabelPosition=bottom;align=center;fontSize=17;fontStyle=1;fontColor=#3705FF;" vertex="1" parent="1">
          <mxGeometry x="574" y="526" width="50" height="48" as="geometry" />
        </mxCell>
        <mxCell id="_NaHXFqti5zntaUbajzt-6" value="&lt;div style=&quot;font-size: 17px&quot;&gt;&lt;b&gt;&lt;font style=&quot;font-size: 17px&quot;&gt;HIGHER&lt;/font&gt;&lt;/b&gt;&lt;/div&gt;&lt;div style=&quot;font-size: 17px&quot;&gt;&lt;font style=&quot;font-size: 17px&quot;&gt;Cluster&lt;br&gt;&lt;/font&gt;&lt;/div&gt;" style="rounded=1;whiteSpace=wrap;html=1;verticalAlign=top;align=left;arcSize=4;spacingLeft=4;fillColor=#ffe6cc;strokeColor=#d79b00;" vertex="1" parent="1">
          <mxGeometry x="720" y="400" width="390" height="210" as="geometry" />
        </mxCell>
        <mxCell id="_NaHXFqti5zntaUbajzt-7" value="UAT" style="sketch=0;html=1;dashed=0;whitespace=wrap;fillColor=#2875E2;strokeColor=#ffffff;points=[[0.005,0.63,0],[0.1,0.2,0],[0.9,0.2,0],[0.5,0,0],[0.995,0.63,0],[0.72,0.99,0],[0.5,1,0],[0.28,0.99,0]];shape=mxgraph.kubernetes.icon;prIcon=ns;verticalAlign=top;labelPosition=center;verticalLabelPosition=bottom;align=center;fontSize=17;fontStyle=1;fontColor=#3705FF;" vertex="1" parent="1">
          <mxGeometry x="791" y="526" width="50" height="48" as="geometry" />
        </mxCell>
        <mxCell id="_NaHXFqti5zntaUbajzt-8" value="" style="sketch=0;aspect=fixed;html=1;points=[];align=center;image;fontSize=12;image=img/lib/mscae/Kubernetes.svg;" vertex="1" parent="1">
          <mxGeometry x="1050" y="410" width="50" height="48" as="geometry" />
        </mxCell>
        <mxCell id="_NaHXFqti5zntaUbajzt-10" value="Production" style="sketch=0;html=1;dashed=0;whitespace=wrap;fillColor=#2875E2;strokeColor=#ffffff;points=[[0.005,0.63,0],[0.1,0.2,0],[0.9,0.2,0],[0.5,0,0],[0.995,0.63,0],[0.72,0.99,0],[0.5,1,0],[0.28,0.99,0]];shape=mxgraph.kubernetes.icon;prIcon=ns;verticalAlign=top;labelPosition=center;verticalLabelPosition=bottom;align=center;fontSize=17;fontStyle=1;fontColor=#3705FF;" vertex="1" parent="1">
          <mxGeometry x="1008" y="526" width="50" height="48" as="geometry" />
        </mxCell>
        <mxCell id="_NaHXFqti5zntaUbajzt-11" value="" style="shape=image;verticalLabelPosition=bottom;labelBackgroundColor=default;verticalAlign=top;aspect=fixed;imageAspect=0;image=data:image/png,iVBORw0KGgoAAAANSUhEUgAAAfQAAAH0CAYAAADL1t+KAAAABGdBTUEAALGPC/xhBQAACklpQ0NQc1JHQiBJRUM2MTk2Ni0yLjEAAEiJnVN3WJP3Fj7f92UPVkLY8LGXbIEAIiOsCMgQWaIQkgBhhBASQMWFiApWFBURnEhVxILVCkidiOKgKLhnQYqIWotVXDjuH9yntX167+3t+9f7vOec5/zOec8PgBESJpHmomoAOVKFPDrYH49PSMTJvYACFUjgBCAQ5svCZwXFAADwA3l4fnSwP/wBr28AAgBw1S4kEsfh/4O6UCZXACCRAOAiEucLAZBSAMguVMgUAMgYALBTs2QKAJQAAGx5fEIiAKoNAOz0ST4FANipk9wXANiiHKkIAI0BAJkoRyQCQLsAYFWBUiwCwMIAoKxAIi4EwK4BgFm2MkcCgL0FAHaOWJAPQGAAgJlCLMwAIDgCAEMeE80DIEwDoDDSv+CpX3CFuEgBAMDLlc2XS9IzFLiV0Bp38vDg4iHiwmyxQmEXKRBmCeQinJebIxNI5wNMzgwAABr50cH+OD+Q5+bk4eZm52zv9MWi/mvwbyI+IfHf/ryMAgQAEE7P79pf5eXWA3DHAbB1v2upWwDaVgBo3/ldM9sJoFoK0Hr5i3k4/EAenqFQyDwdHAoLC+0lYqG9MOOLPv8z4W/gi372/EAe/tt68ABxmkCZrcCjg/1xYW52rlKO58sEQjFu9+cj/seFf/2OKdHiNLFcLBWK8ViJuFAiTcd5uVKRRCHJleIS6X8y8R+W/QmTdw0ArIZPwE62B7XLbMB+7gECiw5Y0nYAQH7zLYwaC5EAEGc0Mnn3AACTv/mPQCsBAM2XpOMAALzoGFyolBdMxggAAESggSqwQQcMwRSswA6cwR28wBcCYQZEQAwkwDwQQgbkgBwKoRiWQRlUwDrYBLWwAxqgEZrhELTBMTgN5+ASXIHrcBcGYBiewhi8hgkEQcgIE2EhOogRYo7YIs4IF5mOBCJhSDSSgKQg6YgUUSLFyHKkAqlCapFdSCPyLXIUOY1cQPqQ28ggMor8irxHMZSBslED1AJ1QLmoHxqKxqBz0XQ0D12AlqJr0Rq0Hj2AtqKn0UvodXQAfYqOY4DRMQ5mjNlhXIyHRWCJWBomxxZj5Vg1Vo81Yx1YN3YVG8CeYe8IJAKLgBPsCF6EEMJsgpCQR1hMWEOoJewjtBK6CFcJg4Qxwicik6hPtCV6EvnEeGI6sZBYRqwm7iEeIZ4lXicOE1+TSCQOyZLkTgohJZAySQtJa0jbSC2kU6Q+0hBpnEwm65Btyd7kCLKArCCXkbeQD5BPkvvJw+S3FDrFiOJMCaIkUqSUEko1ZT/lBKWfMkKZoKpRzame1AiqiDqfWkltoHZQL1OHqRM0dZolzZsWQ8ukLaPV0JppZ2n3aC/pdLoJ3YMeRZfQl9Jr6Afp5+mD9HcMDYYNg8dIYigZaxl7GacYtxkvmUymBdOXmchUMNcyG5lnmA+Yb1VYKvYqfBWRyhKVOpVWlX6V56pUVXNVP9V5qgtUq1UPq15WfaZGVbNQ46kJ1Bar1akdVbupNq7OUndSj1DPUV+jvl/9gvpjDbKGhUaghkijVGO3xhmNIRbGMmXxWELWclYD6yxrmE1iW7L57Ex2Bfsbdi97TFNDc6pmrGaRZp3mcc0BDsax4PA52ZxKziHODc57LQMtPy2x1mqtZq1+rTfaetq+2mLtcu0W7eva73VwnUCdLJ31Om0693UJuja6UbqFutt1z+o+02PreekJ9cr1Dund0Uf1bfSj9Rfq79bv0R83MDQINpAZbDE4Y/DMkGPoa5hpuNHwhOGoEctoupHEaKPRSaMnuCbuh2fjNXgXPmasbxxirDTeZdxrPGFiaTLbpMSkxeS+Kc2Ua5pmutG003TMzMgs3KzYrMnsjjnVnGueYb7ZvNv8jYWlRZzFSos2i8eW2pZ8ywWWTZb3rJhWPlZ5VvVW16xJ1lzrLOtt1ldsUBtXmwybOpvLtqitm63Edptt3xTiFI8p0in1U27aMez87ArsmuwG7Tn2YfYl9m32zx3MHBId1jt0O3xydHXMdmxwvOuk4TTDqcSpw+lXZxtnoXOd8zUXpkuQyxKXdpcXU22niqdun3rLleUa7rrStdP1o5u7m9yt2W3U3cw9xX2r+00umxvJXcM970H08PdY4nHM452nm6fC85DnL152Xlle+70eT7OcJp7WMG3I28Rb4L3Le2A6Pj1l+s7pAz7GPgKfep+Hvqa+It89viN+1n6Zfgf8nvs7+sv9j/i/4XnyFvFOBWABwQHlAb2BGoGzA2sDHwSZBKUHNQWNBbsGLww+FUIMCQ1ZH3KTb8AX8hv5YzPcZyya0RXKCJ0VWhv6MMwmTB7WEY6GzwjfEH5vpvlM6cy2CIjgR2yIuB9pGZkX+X0UKSoyqi7qUbRTdHF09yzWrORZ+2e9jvGPqYy5O9tqtnJ2Z6xqbFJsY+ybuIC4qriBeIf4RfGXEnQTJAntieTE2MQ9ieNzAudsmjOc5JpUlnRjruXcorkX5unOy553PFk1WZB8OIWYEpeyP+WDIEJQLxhP5aduTR0T8oSbhU9FvqKNolGxt7hKPJLmnVaV9jjdO31D+miGT0Z1xjMJT1IreZEZkrkj801WRNberM/ZcdktOZSclJyjUg1plrQr1zC3KLdPZisrkw3keeZtyhuTh8r35CP5c/PbFWyFTNGjtFKuUA4WTC+oK3hbGFt4uEi9SFrUM99m/ur5IwuCFny9kLBQuLCz2Lh4WfHgIr9FuxYji1MXdy4xXVK6ZHhp8NJ9y2jLspb9UOJYUlXyannc8o5Sg9KlpUMrglc0lamUycturvRauWMVYZVkVe9ql9VbVn8qF5VfrHCsqK74sEa45uJXTl/VfPV5bdra3kq3yu3rSOuk626s91m/r0q9akHV0IbwDa0b8Y3lG19tSt50oXpq9Y7NtM3KzQM1YTXtW8y2rNvyoTaj9nqdf13LVv2tq7e+2Sba1r/dd3vzDoMdFTve75TsvLUreFdrvUV99W7S7oLdjxpiG7q/5n7duEd3T8Wej3ulewf2Re/ranRvbNyvv7+yCW1SNo0eSDpw5ZuAb9qb7Zp3tXBaKg7CQeXBJ9+mfHvjUOihzsPcw83fmX+39QjrSHkr0jq/dawto22gPaG97+iMo50dXh1Hvrf/fu8x42N1xzWPV56gnSg98fnkgpPjp2Snnp1OPz3Umdx590z8mWtdUV29Z0PPnj8XdO5Mt1/3yfPe549d8Lxw9CL3Ytslt0utPa49R35w/eFIr1tv62X3y+1XPK509E3rO9Hv03/6asDVc9f41y5dn3m978bsG7duJt0cuCW69fh29u0XdwruTNxdeo94r/y+2v3qB/oP6n+0/rFlwG3g+GDAYM/DWQ/vDgmHnv6U/9OH4dJHzEfVI0YjjY+dHx8bDRq98mTOk+GnsqcTz8p+Vv9563Or59/94vtLz1j82PAL+YvPv655qfNy76uprzrHI8cfvM55PfGm/K3O233vuO+638e9H5ko/ED+UPPR+mPHp9BP9z7nfP78L/eE8/stRzjPAAAAIGNIUk0AAHomAACAhAAA+gAAAIDoAAB1MAAA6mAAADqYAAAXcJy6UTwAAAAJcEhZcwAALiMAAC4jAXilP3YAAHJKSURBVHic7d13eJzVlfjx7/RRc5UsuUoOqUACAUOSTXYxnfRCKimb3jZ9Uza9bnrvvW5I6KRBQujkR8D0FrCNbVnNcu9Fbd7fH3fGyLIs3XPnnXnb+TwPD2Deq7lIo/fMe++556Q8z0MppZRS0ZYOegJKKaWUqp4GdKWUUioGNKArpZRSMaABXSmllIoBDehKKaVUDGhAV0oppWJAA7pSSikVAxrQlVJKqRjQgK6UUkrFgAZ0pZRSKgY0oCullFIxoAFdKaWUigEN6EoppVQMaEBXSimlYkADulJKKRUDGtCVUkqpGNCArpRSSsWABnSllFIqBjSgK6WUUjGgAV0ppZSKAQ3oSimlVAxoQFdKKaViQAO6UkopFQMa0JVSSqkY0ICulFJKxYAGdKWUUioGNKArpZRSMaABXSmllIoBDehKKaVUDGhAV0oppWJAA7pSSikVAxrQlVJKqRjQgK6UUkrFgAZ0pZRSKgY0oCullFIxoAFdKaWUigEN6EoppVQMaEBXSimlYkADulJKKRUDGtCVUkqpGNCArpRSSsWABnSllFIqBjSgK6WUUjGgAV0ppZSKAQ3oSimlVAxoQFdKKaViQAO6UkopFQPZWn3h1IMjtfrSStXL04G3Ar8F/ur2JVKwLwuLboX2v8HI3CqnNJtWHuRdfA4A19+ykZT5+7v7oGM/jFZ7JyiAtx4YAJoBz/krvQpYAPwE2F7lrJQKVO457r8ILvQJXanDLQf+APwDE2D63L5MCg5kobUb2m6A0Zl+zS98RiHVjgnm+4GU81fKAl8C1gKfBeb5MT2lkkADulKPOBvzJH4d8Lxxf3a/+CulMMF8Zj90/sb8eynv1zzDZxQoQupx5u8M4RrUfwl8HZgFfAxYgwnwi3yYpVKxpgFdKRO8r8cE87PH/flHgKvEXy0FHMhBcS90XgSkYaQFUiUfphpSKeAAJqgfVf6zYVyD+n8D15b/uRn4IOaJ/dvAUUcapFTSaUBXSfZS4J+Y5fVTJvy3y4AviL9iChjOQXEPPPqXkNkDw3PjHcwrUsA+oBlSjyn/2QiuQf0cYOO4f88B7wQeBn4KHOs8T6ViSgO6SqL/BO4CLgCeOsl/XwO8SPxVU54J5gBLfw+5TTDcCqkx95lGTeVJfQ6kHoUJ6KO4BPURTC7DZN4A3AecDyxzmaZScaQBXSVFGngb8BBmn/b4I1znceRAcmQpD0bKe+RLL4ZCP4y0JyuYj7cPmAMswSy9u30bHgJeMcV/fwVwG3Ax5kSCUommAV3FXRF4L+ap+/vA46a5/llIs9pTHozmTdDqugxa7oaRVqo5uxULw5BaiElnG3L+Kr/HJMlN5VzMiYQ/A6c5v5JSEacBXcXVDODDmGSqrwNdFmM+hvS8ecqDsZx5Cl14E8y4A0Y6hFONqRKPBPVWzFO7m/8GbrC47tnANcDVmA9mSiWKBnQVN63ApzCB/PPAfMtxfwD+V/xqpYyp0rLwFmi7Gkbnob9W44wCY+X99LmY/XU3ZwGbLa89HfgLcCPwQudXVCpi9M6j4mIB8EVMIP8kJnzYWgu8QP6SKdifgdZ/QfufYGw2eFkSv9Q+XgqT3uZB6tFAE66FZ4aR5zb8O3ApsAI4T/yKSkWMBnQVdUuBb2CC8oeAFoevsdzplQ9kYc56WPhHKM0pF47RYH6YFCYcV4J6A+ZJXR7U/wW80mEGJ2HK994HvNFhvFKRoAFdRdXRwI8wyW7vAQqOX+fZQK9oRKVwzIwBWPob8wejjdQnmJcYJUeJaqqrmpmmPcjW6/NHJagXIPV4II9rNbnzMR/gXByLqRG/GngHNexloVQQNKCrqDkB+D/gAeDNVBfXPgFcIRqR8mAoB8V90HWhefmRGa6FYzKyyz2ggRQeBUzOmas0MJQufwTxnD6KyO8d46vJPar8Z25n1N+H2R939WjgO5hVnfdjNgKUijwN6CoqngZcCNyB27LrRH/CNP8QKB9PSwGdl0Bmu2sVuNcA9yL+/UsBRU7gBlpw77QGkPNgdwbuaAFKTjeCLGaF5EmiUZVqcjN55Iy62yeTs4AtTiMfsRj4CmaV52PA7Cq/nlKBSnlebdbctH2q8smpmHPkz/Xxa3Zj9t5lvDQMZaDrKph9E4zMx+HZdgHQX/5nwbPpGLCYFu7nE3yCA5hYWI3hNBxIwSfWw5z9MJITTSiFCcU7MY1UZMxnE7y1mAKvDeKvAHAMLo1zjmw78D3guxxadlYpJ9o+VSnjHOBvmCYdfgZzcEqCS8GBDLTfC7P/UT6e5vTLen3577+wH+IBjcAoL+PHB3PKqlUcg71puKRcAycj+9/xgD9inrUvFr+4hzmj3ln+Cm6Z7w8ArxaPOrLZPNLh7ctohzcVMRrQVdg8HxP0rsQsq/rtOcB60YhKK9RZA7Dgj1CaAZ5w+9u4EKi0LVlhP8wDFvBELuVk+hjEn1/cUgo6RmBFC9w7G9Ly7mj/r/z3czEnDGRGzd9Sj8KkNLolyf0f8C3xqKk1AR/A7LF/l0d+ZkqFmgZ0FRYvB24BLufwzmd++RSm4Ii98UlwSy7CZLQ34fB0/gHgJeP+/Ra7YR4whwzdvICL2SF91WlkgEYPLmqDoQJkR0XDx/8/fBFT0MVeChPEC1Unyb0HU/rVbzngv4BVwM+R5gsoVWca0FXQXg/cA/wOeEoNX+cvwKdlQyYkwWW3uSbBnYpZwq3YikmKs5AGGjmH37CIUXZSXVr/RCVg9gj05+CquZiqbvbDb+PQ1f8rAVnd2xRmuX0W1SbJnYn5vtbK6zDv099izrUrFToa0FUQMsDbMU8+P6P2Tz49mKV2GS9jUskXXwWNq1y7p7VjcgHGW4F12CqSYoBjuYOdiH5h34ZZFZhWKWV26B9uALKivfT9mFMHFTngOvsplpWPs6U6MN8tt6IzBzAfnGrtPMzP7xLgGXV4PaWsaUBX9dSAOUO8BpNNXK+9yeXiESlMElzbQzD7/8FoG45JcNdhAt14/7Qf3kIHPcxmRNrb5BscuiowpaYx2JGBXTmkT8gT/18ej+mQJlNJkluCaavjliR3H6bXfT28CLgJs/Ij22pQqkY0oKt6mInpfLYG+BrQWcfXfj6wTjQiBezPwYzNsOgyKLWUa7SL/Q54wiR/LgjoebpYTTMHc8hsNPBI5bx5NgMKJdiSh9480t7lk/2/vAzTIU2mvH+eehTVVJL7NaZoTL08C9PdTTu8qcBpQFe11IbZt16DrPOZXz6LOVplr5IElx+GzguBkmsS3HsxiX4TjWKd4Z4CRumg5+C/WVo27p+favtKQ8BgAen/6pGS+76KdGWkMonqK8m9i0cy8Oul0uHtJszTu1J1pwFd1cJCTNbzGkx5VUnnM79cWX5te6lyEhxA12WQ2+iaBHcKpgf7ZO4Edtl9mTywlQ762C97/ace4Z+PyMPsC/QUgYyoJu0A8NAR/ttfsVwhOGh8ktxiqq0kt81pZHWegdlfvx14VQCvrxJMA7ry01HAt6mu85kfenFZ/iyVk+AWXQ9N98JIh0sSXBuHJ8GNJ1hub2Qmg3SwUVpIRhzQAZpL0FeAobz4M8yRntILmMJAMv4kye0DThOP8s+JwG8wxW/eFOA8VIJoQFd+OBb4KfAw8E7Mo2WQljuNOpCBtgdh7rUw2u762tcydec3y/PnAA20M8AMxHXbxwfxZVj+PApjsD0Lgzmk++hT/T8dgyn+IuMBI1Unyd0DvFY8yl9HAz/mkQ5vExMklfKNBnRVjRMxN+v7gDcEPJeKF2JWCOwdbIe6GRZeXq4El8Vh3/w3mA83UxEE9DRLWSntrPY4TL34ihZMhzqLVzOlYHvk++jTrTq8Eni36CuCX0lyvwK+Lx7lv0qHtzVohzdVIxrQlYt/Ay7C7BP60fnML/+LqTRnb2ISXMo5Ce5dTL9nug7TGMZCBtjFQtZK49hkS+zWy+4esKFgXlDwmvcxfeezbyI9t+1fktx/IdrqqKlKh7e1wMfRDm/KRxrQlcSpmLaj/w94ccBzmehvmMYa9sYnwXVWlQT3dOzqiQuezotk2UIbg9KEuKdN8mfWAb3Bg415TGKc/WcaD7jV4rqrkCZIVnqoz6LaJLkzwffKudWYB3wGE9g/i8kWUKoqGtCVjXMwN+Nrcam4Vnt9VJMEt/AGaHZOgpuD+d7YEAT0GSxmHfMYriYhrsK6pG7jGPTnYVMBP86jT9SAS5Ic+JEkt5dgk+SOZBbmg+hazJP7kkBnoyJNA7qayguAGzBHwM4MdipTWo70ue1gJbgHofWaapPgGi2vtVz2NYfIOuijiOh/bA7wxEn+vAvL/u85D3ZmTVAXfkdtP6w8Cfil6CuDmUv1SXJ3YXoHhFEjZm99LWbP/3HBTkdFkQZ0NZnzMEuolwH/EfBcpvMiTKKRvfGV4KpLgvsFcJzltbswAcVCGjjAQtZSQhS3nsKRf6etl91HgUH5OYUV2Cfj/ydmX9ueqbHjR5LcL4AfiEfVTwZTh/8hzFy1w5uypgFdjfcGTILTb4GTA56LjS9gPnTYOywJbsw1Ce7tyI5E3Yp19dYiGQZZwlpp/fbJ9s8rrAN6HqcCM7sxRXNsfZep53u4SpJcQzmoe7gmyb0duz3/oL0Wc/TufLTDm7KgAV1leaTz2U+Z/thVWFwFfEQ0YtIkuFaXJLinYprLSAj2z5uYzUbmslu6f+5LQG8sweYcDGd9KzBzJH9HmuWdwpSMmU217VbPAHY6jay/V2BWQC4F/j3guagQ04CeXJXOZw9T385nfhgguCS4mZhAJCU4NlVkAb3ShiwZpn6KezKWlfuKY7ApD+sLsgkgPxrWhGlqIlMuD5uaj8kVd0uS20M4k+Sm8kLgRkzN+DMCnosKIQ3oyTMT82S7lvp3PvPLcqQ52OPboVafBNcsHFPCeonXbBZ3sVKy3A0mYM+c4r/nsNxGSQP7U7C+KJsA8id0MEVvfioeVcK0W+2imiS5O4E3ikcF71mYD5XXAM8OeC4qRDSgJ0el89laTAGWjmCn4+zFmDKa9g4mwW2BhZdVkwT3Eyyrrk1wL9aNQrLAThbQw5DsNWz2o60btaQpn0dPiW4S65FW6TPeALxFNKKSJEfVSXI/w5RmjaLTgD8D/wDODXguKgQ0oMffYuDLmBvtJzBHm6LqS5hOVvYqSXCFqpPg3oL705xgKbqBRjbRymbp/rnNWXPrffSmEgzkoZSDtD/tVKfzQ6SJmBOT5MA1Se4twG3iUeHxdOBizIrDawKeiwqQBvT4egyP1I7+APJl4rC5Gvgf2ZBxSXBLLofcoGsS3DJMwHElCHItLGIdrYz6UVBmopOxDHcNJdMbvbf2++jjXY1ZQLc3PkmuukpyZ2Dd1ja0noypXf8v4M0Bz0UFQAN6/ByLWUZcRXy6O23AVKuT8SpJcDdC8z2uSXAtmL3KalgGdA/I0E4/eURrCEswrWunMw/LUwxZzzRqGczJJoL7Ezq4fq/9SZLbBZwuHhVOTwB+RHi6H6o60YAeH8t4pPNZWKthuTqV4JLg5E+Nh+rDfLiykAH20slqRhDFJMl5but9dA8YKCJt1HI31dVMX4YJRjKVJLlOqkmSux3pXn64HQV8m/is0qlpaECPvqdjOp/dRrg6n/nlZcBK0YiUNyEJrgU8+aMmLvu6hxMsQTeSY4BFdLNX9hrWe+MI6roXvHIJWFmBmVHMmelqvBlpvoJ/leR+jEvWfbgtwuTRrEE7vMWaBvToOg3T+ewfhK/zmV++DFwoGpHyYChvKsEtqSTBNeOwsSrPvJ6cYAm6kTY2MJvhWmS4V1gH/2IJtuRgd5ZaNGqZjvxEwZGS5OTeBNzhNDLcxnd4+xza4S12NKBHzzMxVdKuIZydz/xyLfAh2ZDxleD+APlKEpx43/zJ+PeUJtg/L7KIbpoQffxoxszX1jGYG/u0iiXYnC+fR5d9C6vZRx/vWkzxGXuTJcmJF2YAs5++22lk+M0CPooJ7F/HNO9RMaABPTpehKkSdQXh7nzmh41UnQR3t2sSXCOuLT4PtxezL2shA+yni1XStYSTkCc9WT2lVx54ewvCr24CuvgbP4mZBFdJbifxr8bWCLwXsxT/Q+DxwU5HVUsDevi9CrM/fgnJqeO8HPvOXcbBJLiVfiTBzXIdPMFtmGdECzlgO+301XK5vcI6MS5HucBMWrSPvgPTVMQPLnXzH2m3Wl2S3ApM57O4S2O2lx5E1kFQhYwG9PB6I3A/8BtM5m9SvALTOtKef0lw8g5gUxMlxM1lgFa21+L8ufOY5hL0FUxtHuHxfT/20Sukne1M8B4B0lUnyf0Q+Ll4VHS9FnNS4Xyi0XFRjaMBPVxymLPjqzBJQccEO526+xrwe9GIg0lwI+VKcKOuSXDyHt3TEwS1JubTw2w820f6Cpeb7jIsl+kPNmopIk0w82sfvUL+5JjCLLc3QGpp+c/ckuTegKw1bBy8AtN/4DLgPwKei7KkAT0cGoH/xhSC+A7R6nzml+uB98uGeDBarpvTefm4SnDi7dsnAr+UDrIg6rndQZ+0IcuxuGUqt2CZQV5p1LJJWOkG/wM6mNyGBtGISpLcHMzhreqS5PY4jYy2FwA3YHJ34p5TEHka0IM1C5Ntugb4KqbiVxJtAs4Wj/IyMJKqthJcEbhO/NrTux/z/2XBNGTpYqX06dxluV00ttKopa+8jy64YTwM9LhMbApzcGldW0mSW0A1SXI7iH8y6lSeiXZ4Cz0N6MGonAddgzkPGtXOZ345FevksbLDkuCsTmJN5u/AXNfBUxCdP29gA/PpkxaUsS4SMwlRo5b1RbMYkpbtZNTiKf3pmOpnMv4kyd2C/9syUVPp8HYz8NKA56Im0IBeX0uAr2DOf36caHc+88t5mGYS9iZNgnNqh/pN4BnSQZYEwayJeWxgpnz/vJoEPusPA8USbMvB5hzS1IRaBHQw9clfJRoxWZLcMC5B/fuY/fykexpwAXAXJv9EhYAG9Pp4LOZGsBazTywrlhFfXwd+JxpxxCQ4cTB/JfBu6SABQUJcli5W0YgoXs6juqTJLmDpdBeBadSyJwMDBaQB3c9M94l+g2WjmYMmJsmN4Zok93pMJriC4zH5J//CHH2Tf0RSvtGAXltPxHQ+W4k5zyrMeYq1GzGJgAK+JcEdg2lkUyuDWK86mPItHfQxhuhuWM3+ufhrDAP98gIzd1LbRLLrANmsyvvpzKbaJLnTQLpDEmtPwBzxWw28C+nPRflCA3ptLAN+C9xL/Dqf+WELcJZ4lD9JcHlqkwQ3niC7vUCKzcxnPftkr+FHQLdeds8Dg/JGLcOY4jq10oopgyw3BKmF5a/gdj59Oy7v4fg7CvgWJinyg2iHt7rSgO6vZwAXY25i5wU8lzA7FYQF0fxLgrsKaHMdbEmw1NzCfNbRzi72y17DjwI41l+jecwUmNmdF3+GquWyO5gz0l8Xjyovt6e6MBtgbpnvN2P289XhFgFfQvOF6koDuj8qmZ83AecGPJewezXmSJe9ShJcy9Zqk+C+BpwiHeRAEMSKdNBPM6Lt3AL+VA98MuZM+vQvWE6M6y0QROe16bwXUwjF3sQkuQyuSXLfBX4lHpUcbTzS4e1/gfnBTifeNKBX51no2UyJbyHdu540Ca4Jh2D+cuB90kEODmDdkAVglPn0kEIUS07An6XMHJaV5ir5ZBvlBWZuFY9wcz5mH9depftMU9VJcq/Fv9r1cTUT+AgmsH8TszSvfKYB3c2LMX3I/4JWT7J1E/Ae2ZAJSXD5DeUkOHFZ18cjzaZ3dwfYbofnga10saoe9dur+lqVRi3rC0BGdOPYjHRFxt11mGnaqyTJzcWPSnLCNIhEKmJOlzwM/AjphzA1JQ3oMq/G3LAvwhS4UHaqTIK7qZokuCymrGy9iBqyzGCQNjZL98/rHtDBNGrpLcABeYGZeiy7gymD+1enkdUnyW3Fpdphsr0Zcxrkl5jjb6pKGtDtVDqf/RrLGtjqEKeB8CG0kgTXuhJar64mCe5vuNU7dyWqENdBPzOQ9or1NaCfjGX4KozB9lx52V32uapWBWYmcxrwZfGo8Ulyjbgmyf2D2tY2iKv/xBSo+T3VVT9MPA3oR1bpfLaaZHY+88trgPtEI8YnwS0qJ8GVnJLgvoS5wdeTIHhl6ORhiojqtRyFvzX/52FZoCUN7E2XC8wE36hlKh8AXiIaMT5J7ijMuo5bkty3MUVvlNzLMO+Vy9EOb040oB+uiUM7nz062OlE2neR3tyOlASXEgfzF2POwdbTSqDf7tI0sJ92ehml7gVlnL9mClhXNP8guHk8CGwQz6o6FyLtWjg+Sa4L8ynLLUlO/iFWjfd8tMObEw3oj5iFdj7z0/9DfEZ3fBLcH6pJgnsMJs+h3gRPog1k2cBCuqXlxmoR0O3runswmAOykA73UzqYoCCrzjg+SW4h1VaSE+Y6qgkqHd6uBZ4X8FwiQQO68QrMcYrPUd/91rjaRtVJcHe7JsGlqW8S3HiCoNXCYtbSxnAQBWUmsv6QUByDrflyo5bw7qNXzAeudBpZfZLcFjRJzi+nAn/AvIesjlkmlQZ0U1zjfEx1Z+WP05Ae4TmYBLeq2iS4vwILXAdXyTKb2wPytNNPA6L985nAcQ7zms4xmL30aeU92JaFbuHEqV+m+0RnAp8Xj/KnktyNmKI3yh9PwdQ1eFTQEwkrDejSNoxqOq9FWmTjsCS4ZtckuP/F3MCDsBVTu99CGhhiIesoIYoTT8Gka9WC1VN6JXdsIC/++rcT3BL0h4EXikb4V0num5i+Dso/bw16AmGlAd08oSt/fA9pGczDkuBGYLTFJQnuBZhKVEERVEQrkmGQJawJoiFLVV/bw9Sd3ZhD2qhlP6IKer67FOmT3cRKcu5Jcq8CHnAaqSbjR9njWEp6QC+gezJ+uRlzzE9gXBLckvFJcOJ980cBl0kH+UxUUGYOg8xlV5AV4py/dvOYaaW6Jxe6Ri3TuRHpM3YlSa4VP5LkZA2J1JEsQ1oRMCGSHtBPwOyQqeq4tZL0MjCcggX/gJa7XZPgwGQzB00QrArMp1fakCVNbT98LsPUop1WvgQ7cuV2quFPjBtvIeYolNyBqpPkNqFJcn5pQQt8TSrpAb0WGcNJdDoIT1+lgKEMzF0HbdfCqHNH0yswVbiDNIKo73eKRaxD2OfkSZjDVLVifZNMA/tS0FMk7AVmJnMO8FnxKH+S5G7A1LhQ1fu3oCcQRhrQVbXegCnbaC/lmYLgjbtg8cVQaoBSDoe1zM9gzqoG7U5gl92lGWAP7fRKH/Rqudwueg0Pk5nXLW/UMgA85DIxn30M6blm/5Lkvo4pcaqqo/fuSSQ9oOunvOr8EPi5aETKg+E8ZDyTBJcegtFmlyS45wIflw6qEcGTZxON9LGI9WEoKDORdYGZxhJszpvDCMICM0Hvo1f8AegSjZgsSc5ph4hXYKrnKXd6755EkgP6YwjuvHIc3AK8TTbEg7GcuREu+RMUe2BkrksluE7gj9JBNSQqKLOQbubgSTOkQvOEDlAowZZc+fiaLPM7DMvuFfLci4lJckO4JsmdinnGV24Woj3VD5PkgK7tT93txOW8dyUJbv6tMHMFjLQjrU5SFoYkuPEsg5QHZOigH2F/kwXA4xzmJdUFLLW5MOfBrgysayCK++gVS4A/O42sPkluI2Y/X7nTe/gESQ7ougfj7nRgj2hEJQluzjpovxLGWnG5C2KezDtdBtbIWqDb7lKzf97FKkYI3f656LW88l+DOSAl+n+5D9jsMrEaeTbwSfEof5LkrsN0hlNu9B4+QZIDuu7BuHkTcIdoxGFJcI0wJu/Bidkzf650UI0JnjgLwDba6JeeP6/njcu+rrtX7o2eMSkRljxMEZ4w+RTwLNGISpJcpuokua9iOsMpOb2HT5DUgN6G9jd38SPgp6IRkybBtbjsmz8Tk9UeNoKA3kw7fbSyN0wFZZxfq6lcYGZz9M6jT+YvSDsspjBP5tUnyb2McGT/R80Tqe1RzshJakB/Go7rvQm2AnENZd+S4BbjWhCk9kQFZbpYSQvm4c5SEThROqkqPBlzJn1aOQ92ZqG/SFQatUznevEI/yrJnYprYdnkSqHL7odIckBX9nYBZ8iHVZLgVpST4ObhmAR3vcugOtgJ3G1/+Rjz6SWF6NPkSUCDbFpVyWFZka6y6jwoL8K5gnBmeC8FLncaWUmSm4trktwgmiTnQu/l42hAVzbOAHaLRlTaoc7phvYryklwTm+3ywhvu8QVWD9V5YHttNMnPa4WxHvVOjEuD6wvIm3UsgdpMaL6eT7wUfEof5LkrgE+JB6VbHovHyeJAb2IduuReAuisqZMSIK7qJokuI9guqiFlWDpuIk59LCIQWlBGetiLz6y3kdvKMHmHAxnxTspYV12B/gc0rrr/iXJfRm4SDwquU7CZJsqkhnQtSGLvZ8APxaNOJgEB3ReVE0S3FmY/uZhJgro8+lhBqL9cwgmoJ+MZShqGDNJcb0FpAlhYQ7oYHI2FopG+Jck91JgldPI5GlGG7UclMSArkcd7NwOvFk2ZHwS3B+huN41CW4BcKV0UJ2VEB6/6qCPLKJ1ischDSr+mIflKZA0sD8F66LZqGUqafxKknOzHE2Ss6XL7mVJDOj6w5/ebpyS4NJ+JsGF/b15N6ZtrIUMsJtOVoe5oIzTa3uYH9TGPJAS/dB6gDUuE6ujRwMXO40cnyTntp++gXA0HooCvaeXhf2mWQv6w5/eGZgMbnsp4EC2nAR3ZTVJcBdh6uyHneAJs0iGLbQxyH7Za4Q+oAM0eLAh2o1apnIuLolq45PkGnEN6lcD/yMelTx6Ty9LWkB/LDA/6EmE3Fsx2dv2JlaC8xpck+A+CLxYOigg4oYsbQyFuULcRNYBvXHMBPS+AlFu1DKVLyJdsRqfJHcU1STJfQm4RDwqWRZiVlMSL2kBXYv5T+1nmGpw9g6pBHcRpA/AiFMS3OmYm1dUCJ4uc3SxigZEOVJzMJWwgnIMZi99WlkP9mZgUP4ZLgpP6BVXAh2iEf4lyb0YWO00Mjn03k7yArouzRzZncAbZUMmVoJzToLrIPxJcOP1Ag/bXZoChumgjxLi/fOgfz9FjVo25M2/C/4f7wF2SCcVkCzVJsktoNokOaeElITQezvB3zDqTT/FTW4P5glZyLckuGsxFcqiQtiQZTPz6ZXun4fhBmXfH92D7iKQhYz9W2CM8DVqmcrjgN87jTwAqUWYdRe3/fQBNEluKnpvJ1kBvQ04OuhJhNRZSJ+UKklws7urTYL7HfAEl4EBEjVkmc86OtjBPtlrBJkQVyHaR9+Yg+054lLX/UheBrxfPKqSJLeUapLkrsKlil0yHINZB0m0JAV0PX8+uf9CelMdnwS3pKokuPcBL5cOCgHB96uBDvpoRpQvlsVUwAraMkx112nlPNidLe+jywJ6VBLjxvsKZgncnn+V5D6PKYesDpVC7/GJCuhhWMIMm18A3xeNOKwSnHMS3CnA16SDQmAv1v3gzV18AT3ShixPBmbKp+a7FiyrcKWBA5UCMzK34poqFqy/YZk0eFAlSa65fJzNPUnuRYT/DH8QwrCqFSgN6Ml1F/B62RDfkuDaMDfEKLoN69SmLLCLRayV5kKF6cYkatTSW8A0arFfrNmBSY6Lmjwm90OmkiTXhh9Jcm6NWuMr8ff4pAR0bchyqL0EmwR3HdFtqHCz/aVFGthMK5ujVFBmIuta8pVGLSPxatQylWOA3zqNrD5Jrg94ltNrx1fiG7UkJaCfiElFUcZZWJctLZuYBDc6F8e3z/9hWSc8pEQFZZawhjZGpQVlwhTQredSLDdq6U7GPnrFecB7xKP8SZL7K/Bx8aj4asLc6xMrKQE98Usx47wD0VMmZt98aFwSXKkBPKckuHcBr5QOChEP0TGrDItZQx7Rd2oJ4er/3gUstbkwg2nUsjFP3DPdJ/oG8O+iEf4lyX0O+IN4VHwl+l6vAT1ZfgV8TzQi5cFI3rxTOi82SXCjLTgstT8D+JZ0UMjcD2yyuzQN7KOdPkaJTEOWIxE1aukvmH8Q3FzWYJq1RNnfMK1Y7PmXJPcCYJ3TyPhJ9L0+KQE98ccZMIlHr5UNKSfBjVFOgut2TYKbizlDG3WCpeEGcgywiPXslb1GGG9IokYt64swmoN0sp7SGwg2Se4U55HxEsbfn7pJQkB/HNIazPGzj6qS4G6rNgnuGswNL+oEAb2JNgaZwwGGZK8R2Sd0gIYx2JKFLfICM1HeR694EmYVTK76JLle4NlOrx0vC4hGt8aaSEJA15KAcDawVTTiYBLcemi/Asack+B+CRznMjCELIOOBxRYwHoaEa2iNmPOoIfN8Zgz6dPKerA3C4PyffQ4BHSA12DyVGTGzF+pTsyZHLf99CuAT4pHxU9i7/lJCOiJXoLBJKL9QzTiYCW43Y8kwZWckuD+C/hP6aCQ2gD8y+7SDLCfpayUvsbJhPPYTR4zt2lVcr3WNjzy75buBHZLJxZS30G6zWd6+ECunCQHSJMvyj4D/Ek8Kl4Se89PQkBP8v75bzA3F3uHVIK7ENL7XJPgngZ8VzooxATZ7TlgJ+30Rfm42kTWiXEFYEMB06jF/jPgMKZoT1xcBcwWjUgBQ8AMSC3BfDJy66/2PGC908h40Cf0mJpHchuy3ItZ/hOYrBJcq0sS3Gzg79JBISeq3z6LQVrZnriADmYffXPWLL0n7PjaeE2Y3BG5A0A7JvNH+AYaJ8lJckeT0EYtcQ/oSV16OUDVSXC3VpMEdzXmhhYngmDTRCermUNJmrRsXZUtACdjuQBcLFeM6y4iPYYVp4AOJh/iZ+JRJWC4/JQ+G/PULl96Xw88RzwqHhLbqCXuAT2RP1RMJbgtohGHJcE5t0P9KZYNPSLkAHC7ZMAC1pNFlHVwLNJmH/U1DzPHaaUwnwt75NkAtxK/+uSvB94qGpHC7J975UpyBVyT5P4CfFo8Kh4S+TAX94CexB/qe4CbRCMOSYK7qJokuLcAb5AOioDbwbYcewbYTTt90ntwmJfbK6xWEDxMW5qNeaQFZrZgtori5gdIV18q++kTk+TkPoUJ7EmTxHt/rAN6A8mr6/tbpNXYKpXgDrZD3e+aBHcS8EPpoIgQLAU3UnQrKBOFgG49x6YS9BVNxeC0bNk9LsfXJvo70pa445PkOjFJcm7rF88h+pX4pJZhDgAmSpwDetIastwPvEo2ZHwluD+XK8E5JcHNwOybx5WooMw8NjCLUhwKykxkPcfCGGzLwKC8wIzgNEGktOD6O3IAs+GhSXISiWzUEueAnqQllyHgNPmw8Ulwt1SbBDfDZWBECArK5OlkLQ2IvpPziEYHuqOx3OfPAPsy5eNrsqfKuCXGjbcM+JF4lD9Jct2Y42xJkqQYAGhAj4uzgc2iEf4lwf0Qs9weVyuBAbtLzf55Fyvj0JBlMimEe8HrGswowffiIUwRn7h6M/BG0Qj/kuT+BHxWPCq6khQDgHgH9KRkuL8PuEE04mA71KqT4N6ASYSLM8ETYwHYThsb4nT+fCLrm2TRgw15TIGZZJaBPZKfIF0Onpgk5+GaJPcJ4EqnkdGTlBhwUFwD+uMxpRni7nxML2Z7h7RDrSoJ7kTMEbW4E+6f99PKbmlAj9KThPWHj+IYbHVr1BLnZfeKq7Gsj3/QxCS5YVyT5J6FaeYSdx2Y5lyJEdeAnoTSf/8CXikb4lsSXDPxToIbTxBciixlFS2YhGRLeczealQsw8x5WnkPtuVMO1UN6IeZhWs1xUolufloktz0EvWUHteAHqUnHhfDBJsEdxXmhhR3W4D77C8fZT69pBBtb56I+YAUFS1YFg6qbP32W4X/QwjO/UfaU4DviUeNT5KbhWuS3DrgBeJR0RP3WHCIuAb0uD+hnwNsFI04mATXU2071O+SnF+SW7Be1MwBO2inL47H1SaybtSSBzYWgIyoUcsB4tWoZSpvB14nGjE+Se5RVJMk9wfgc+JR0RL3WHCIOAb0dsweelx9ALhONCLlwXAOivth0eXgFaBUxGED7rWYlqhJIdg/b2YWvSxkgH2y14hiQLfOdG8ag94C7MmJd3binhg33s8xPeft+Zck93Hgr04jo+FooC3oSdRLHAN6nJ8eLwC+KhviwWh5zbPrEsjugJGZOCy1Hwf8Qjoo4kQNWRbSw0yIU0OWI7FPjCuZxLgeeaOWJAV0MJ3ZZIWw/EuSeybQ7zQyGhKzj64BPToeAl4uG+KBlzUZWov/Dg2rXJPgGnFtBRld4v7cHfRJG7IcBXSKZhUOXcBSmwtTwFCqXNddFmySFtDnYHJT5PxJkvsP55HhF9eYcBgN6NEwApwqH5aGA2lovxdm3wSjzi2C/wbMdR0cUXcBu+0uzQC76GIVI8SyoMxkrPfRc5Q7r2VEN5wNwIMuE4uwpwPfFo/yJ0luLfAi8ahoiGNMmFTcAnoj0ToCZOuZwKBoRAoYysKsDbDgj1CaYZ7W5Wty3wSeIR0UA6KGLAU2MJ9eaUOWKN9oRI1aerVRi613Aq8WjfAvSe4y4AviUeGXmEYtcQvoJ2K6rMXJB5Eud1eS4Ar7ofNC8DIw2oRDMH8V8G7poJgQ7Z+3lxuyCPfPY/+EDo80atmoBWZs/Rp4omiEf0lyH8F16T+84vqgd5i4BfQoP/FM5iLgK7Ih5SQ4D+i8BDI7YWSWy775scBvpINiRND1K0cXq2lAlPc1E5NoGFXHY1nprNKopU9+sCKJT+gV1yJ9qvSv3eo5xK+eftxiw6TiFtDjlM24CnipbMi4JLglf4fGVTAy1yWYF0heEtx4a4H1dpeau2gHvZQQrXI+BcjKpxYaeeBk24s9YKB82ELwPbofadOh+GjF9ThZJUnOvd2qR/yS5DSgR1BcfmijwHL5sMmS4OQbaZgkOKs2mTElbMiyhQ56paXN4vBetV9292CwgGnUYv/U6JHsp/RTgK+LR/nTbvVh4MXiUeEVh9+3acUpoD+B+AShZyFd8josCW6maxLc10hOnecjERWUmc865rNdGtCjeP58Iuv/h8YxUwJ2SwE9jy7zXuAVohH+tVu9BPiSeFQ4dRDvgmNAvAJ6XEr8/Q/Spg0Hk+AOjEuCa8QhmL8C04416QRP6A100E8zooYsaQTL1SFmHdDzHuzIQl8eTYyTOx9T8czexCQ5cE2S+x/i04gpTluyk4pTQI/DkorDJ+JxleA6L64mCe4JmBtH0u0A7ra/fJT59EgbsjyJeJzrn4dJnpxW5aFxUN6o5TbExfdi6Vosu9wdND5JbgnVJMmdjfTYbDjFIUZMKU4BPeqfvhz2rCZUgmtc7VoJLoe5YShYgfWicA7YRierktCQ5UhEjVrWF4G0aB99D3CH08zipR240mlk9UlyJeKRJBeXVdwjiktAj/r+yBiuSXBD45PgnB/6rsR8D5WwoEwLG2hnUxIashyJfYGZMRgowt6CNmpxdBrwZfGoEjBSdZLcauAl4lHh8gRi3qglLgE96k/nz0LaHKGSBDez6iS4LwGnSwfFmLigzAxE++eQ0ICeL8GODGyQ76NrQH/EB5AeZ01xcLm9yiS5i3H5QBEusX5Kj0tAj/INUl6ZaXwS3JKqkuBegqlEp4wxzJK7pQxdrKKIKD4tBB4nnFeYHY3l6ZIMsC8FvRrQq3UB0vdQZT89X3WS3IeI9vZc1B/+phSXgB7VZAeH2skTkuCyzklwjwUulA6KubuB7XaXmoYsS1gtfdiJ8ofPyaQQNmrpLiJt1NKDyTFRj7gWaWGiFGYPvfokubOATU4jgxe3379DxCGgR7VO7xrE3Y3GJcEtqqoSXAa4TjooAQRPggUybKGNjdLz53G8oYj6o28qmLdxWo+vVWMBcIXTyOqT5MaIbpJcHPt9HBSHgB7FTjolqkqCuw/mVFUJ7grMDUEdShDQZ7CQHloZkt4To7qaNBVRQN+aK5eB1WX3ap0JfF48qlJJbjHVtFtdCbxMPCp4UX0AtBKHgB7FG+SzgT7RiEOS4P5QTRLc/2KWzNThBE+BObpYRSOiwmcNmCeEuFmGWU2fVs6Dnenysrs+ofvhw0hX+ipFAag6Se5C4KviUcGLYsywogG9/j6OtOmCf0lwL8Qk4anD9WC2QSw4N2Q5ieitJtlowfKDilf+a4O8Ucs9WOc3JM4lwKNFI8YnyS2lmnarHwCudxoZnKjFDGsa0OvrD8DnZEN8S4I7CrhUOihBRPvnaTYxX96QJY775xWiZfdKoxbBPnoJUUvbxLkO6f28EtRnVt1u9Uyi1RUvSjFDJOoB3frITAisBV4gG+JbElwKTYKbjiCgNzKbQdrYLt0/j3NAt67r3lAyT+jb81pgxkeLgD87jaw+SW6UaCXJtWOKzMRO1AN6VIoEeASbBPcXYLHLwAQRNmTpkzZkgXh0WDsS+wIzHuzMluu66z66n54JfFY8any71VmYoC6/zTyEtCtcsGJ5Hj3qAT0qSyfPAXpFI1IeHMjCjE2w4HIozXBNgvsM5hddHdke4E77y0ssZSU5RD+NxxPvkwVd5b+mlcbEjG55NoGgzn5ifQx4nmhEJUmuVC46U8Q18/33wDfEo4KhAT2EovCE/kmk50VTHgznIT8Miy8G0jDahEMwfy4mCU9NTdDRKwvsYiHd0ntenJfbK6w+YHtAwYMeeaOWHYg64SXWH4ClohEpzG9AvryfDq5Jcu8DbnQaWV8a0ENmPqbaWZj9CfOELODBWM7c9Tovh/xGGJ7jsm/eBfxROiihRMvtRTYzl83S7cY4L7dXWH9oaSjBlhyM5MRvbV12tyPPmalUkptdPqM+jGuS3BnAVqeR9fN4zF56rEQ5oId9ub0b6dIXYPbNU7DwRmi+H0bmuQRziN5RkiAJgkQLi1nDPEalGe5hf7/6QZTpvjkHvQW0wExtdGIeKOSGMAly7SB9k5eNAKc4jayv2D2la0CvneXiESlgfxbaHoLWa2F0Do5JcH/E/EKr6XmIgkSGTh6mgOjhZQ7wROG8ouh4oNnmwkqjlnVFpE+B+oRu7zmYLT+ZMWC0nCQ3E9ckuQeAV4pH1VfYY4hYlAN6mD9dPRdYLxqR8uBADmZsgUWXgdcIJWHYMD5Rfn1l5z5gi92lKWA/7fQxgnj/PMq/a7byWG4teJhvyMY8kBJ9L9ci/d1Ktk9h2jPbq7RbTZeT5PK4JsmdD3xTPKp+NKCHRBNwQtCTOIJPIz0PWkmCyw1D54WQGoWRGS5L7c8sv76yJ3g6byDDIAvoYZ/sNZKQEFch2kcfzEMpCxndR68l+bHVyn56sRzU3SvJvRf4h9PI2otdo5aoBvSwNmT5C+YTscD4JLg/QG4jDLdCSnw6Z3H59ZWMIKC3sIi1zGO/7p8fmSigbyjAgLyuu+6jy10vHlEJ6rPKy+/VJcltcxpZWw2YcsyxEdWAHsYb5HrMnpXQ+CS4+6pNgnPacE84wdNegQ76pA1ZssTspjGNk20vzHmwO12u665P6LX2KOByp5GVJLl5uCbJDRHeSnKxWj3TgO6f5eIRB5PgVpokuDHnJLjLML+wSmYDpsKVBbN/vohuaUOWJ2NSi5JiHpYJgJVGLQPyRi13AbulE1M8H/ioeFQlSa6TapPkXi0eVXthjCXOohjQU4Tvh/B8zDE1e5UkuJZxSXBjTklwH0FcI16VCZZuc8BO5rOeIdlrxOoJwJL1mfu8B31FICMqMDOCqRqn5D4HnC0aMVmSnFu71f8DviMeVVthTq4Wi2JAPxpoC3oS43wOaQGXlAcjeciNQNeFkBpxTYI7C9PfXLkRLN02MpNB5mpDFhui8+hbcrA3hy67188VSMsQj0+SW4r5Wbklyb0LuNlpZG3Mw8SUWIhiQA9TudcrEJdW9WAsa34hOi+vJgluAXCldJA6hOAJvYklPMxcSvqEPj1RYtymHKwvIq3Srolx7tK4lGf1r5LcaYSrt31sntKjGNDDstzei3MSXBoW3gTN91abBBfFn19YHABut788xSLWIWyPs4Rk5jZYtzWutOReLz+zciuu4UQBHAVc7DRyCFN4u7okuTBVktOAHqCwPKEvR3pDOSQJ7hoYm4tjEtzFwGNcBqqDbsP6dpQB9tBOn3TrMCwfPustheVTuofJTqgUmBHckLYA9zrMTT3iXOBD4lH+JMndB/yneFRtaEAPyHzCEchegKlYZe+QJLhLwWtwTYL7IOYXUVVHtH9eoJ9F9LBX9hpJXG6vsP5/bxwzme4jeUjrsnu9fRE4XTTCvyS5XwPfE4/y3+MwB/MiL2oBPQyfpD6PaU9o77AkuFEYmemy1H4a8CXpIDUpUUGZJayllTHp/nlSn9BBuo+eh/XaqCUof0Ma0PxLknsH4fg5hiG2VC1qAT3oG+TfEJ/jLCfBjVFOght0TYJrL7++8oflTcQDsnTQjzDeNGPOoCfVMsyz27QqjVoGtcBMUDJUU0nOnyS5HU4j/RN0bPFF1AJ6kJ+i+pE2OQAOJsEturGcBNfumgR3A6bqmKreQ5iiMhbM/vkSHpauKp6MZUCLqRYs+y1UGrUMFMw/CL7HK4EBh7mpwz0OuMBpZPVJcvtxKczlL31Cr7OgG7KcgvT5wb8kuN9jfuGUPwRPdnlgO/Po1/PnctYFZhpK0FOE0Zy4UUsYlmvj4qXAf4tH+ZMkdw/wOvEo/5wANAb4+r6IUkA/GSgE9NrnAmtEIw5LgmtyTYL7b+Bl0kFqSqLz5/PoZy679fy5nLjAzFYtMBO0ryJ9WvYvSe6XwA/Eo/xRJAY9F6IU0IO6QX4BuFQ0otIONTtWbTvUUzC/YMpfgiDQQBermIW5ZwlYP53GmPX3IOvB7ozuo4fEVUircfqXJPd2TI2BIER+Hz1KAT2Ib/bfMbXSBcZVglvyZ8g7J8G1ll9f+WsLcL/95WPMp0f6sHEsloVVYm5p+a9ppTEfmNaVu1MLvt934Lpzq44kh8nZkRmXJMdCzFO6m9OAXc6j3UV+VS0qAT2IhiwDwDPlw8pJcAtugRm3VZsEl3MZqKZ0C9b7HqYhS7vun1fDusBMwYP+ApCBtP3O1AG0UUstPAH4rdPIIUgtwDyS7Mdl6X0fwSTJ6RN6nRyDeXvU03Kk1aUrSXBz18K8v8JYK45JcL8lRg0DQkawRNvETHpYSD/7ZK+hAf0R4n30fTnxZ2BNjKuN84D3iEeNmb9SXZhUZregfhfwRvGo6kS+UUtUAnq9jxS8BFgtGlFJgmvaCYsvqaYS3Lsxv0iqNkQBfRE9zEa8ehj5T/o+sv5eFEuwWRu1hM03gGeIRlSS5DKQOgpz2NYtSe5nwI/Eo6oTltLiTjSgH+7LSJsWjE+C67oQ0vtcK8E9A/imdJCyNoyp4W7BnI5up0/akKWdiH/K99lxmDPp00pjjjQP5pF+DtaAXltXA3NEIyr76U3lJLnyU7uDt2L9O+uLSH8Yj0pAr9enpmsQNyuYkARXWA/D7S5JcHMwvziqdu4E9thdmgV20ckq6cOFLrcfKo85cjotU5MPessFZgQ3p0HgXw5zU3YKuCbJ7cdsli4C6bnPcU4FdjuPltEn9BpbADy6Dq8zCJwtH1ZOgpt/azkJbr5LMAdTejGoc/ZJIVhuL5BmC20MSlOoNaAfTtSopbcIQ9qoJWyOxTRTkTsAqYXAXFz30/digno9PJYIN2qJQkCv13L7KTgnwa2D9qqS4H4NPNFloBIRNWRZSC+tHJBmuEd6ya5G7BPjPNiWNc1a9Dx66LwaeKd4VKWS3FKqSZK7A3izeJSbyD6la0A3XgqsEo04JAnuYvCKrklw78D8oqjaEwT0PEtZSROiT3l54ETppBLAaskdIOPBvjT06T56WH0b6YdW/5LkflL+q9Yi+6E8CgG91t/crwAXiUYcTIIrQedF1STBPRX4jnSQcrIG6LG7NAUM0UEfJUT3nWWYLmvqUPMwS7ZWxoCBovlnwff+AWCzaFbK1TXALNEI/5Lk3ox5Wq8lDeg10kxtG7JcB3xQNmRcEtziP0Ox2zUJbhZwrXSQciZsyLKVdnql++da7vXIrJfdCx5szCEtMOOhT+n10oBru1X/kuQsk1udnIjZHIicsAf0k6hdC8pNwFnyYZUkuBUwc0U1SXDXYX4xVH0IbvbNtNPNfLZpQpx/rL83TWPQV4BtBfGvlu6j189xwM+dRlafJLcbUx62VgpEtFFL2AN6LZc+TkHaPuCQJLgrq0mC+zlwvMtA5UzUkGUBfbQg7i+hAf3IrL83eQ+2Z01Q18S4UHsd8DbxqEolueqS5G4D3iIeZS+Sy+5JDegvBx4SjTgsCa7gmgT3VoLt+5tEOzD9li2NMZ9e6S/HUcAS2ZBEORrLDl4pzAepQfna3G1U0xJEufg+gqRHwPyAh/EjSe7HwE/Fo+xoQPdZrRqyfA24QDaTyZLgZrkkwZ1EcP1+k+xWrFNwTEGZxTys/c/9Zf377GGe0ruLQNpkvlvaS+0TptThrsWyGuBB/iXJvQlTMMpvkfx9DnNAPxazy+KnG4D3y4ZMqATnngQ3A02CC4pgKbZIgc3MZbPun/vP+nvUUILNeRiRN2rRZff6a6LaJLmFVJskt9d59OTaEJzMCIswB3S/z59vBs6UDxuXBDejqiS4a9EjTUERJMTNYDHraGNEen+J5BJdndlnupcbtTjso2umezBOwPWM+AFILaKaJLldwOlOrz21ejcFq1qSAvopmPIG9g4mwXVXmwT3Y7TgSFDGMEvuljJ0sZoiojgyE5P1q6a2DMtTK1lgX6q87K4FZqLijZglcBl/kuRuxSVBb2qR+5Ae5oDuZ/m984AHRSMOJsHtgsUXVZME5/YmV365G5MUZ8GsAbbTxwjihixZ6cQSqAXLuhKm1105MS4l+ln0Im19rPwkf3jxL0nuh8AvxKOOLHIlYMMa0Bdisob98E3gd6IRhyTBXVhNEpz7MpTyi2BPtZEsAyykR7ohp/vn9qyL7zSUYEPepLBkdNk9Sq5FWpjFvyS512M+xPvhMZjmYJER1oDu1yejm4D3yoaUk+DGgMV/KSfBzXPZN2/CFI9RwRLc3JtoZSOz2acZ7rVj36ilBBvzsFXeqEUDerDcEoD9TZLb5zz6UJHaRw9rQPfjBrkVOEM+LA3Daei4G2beBqMdLk/mYOodz3AZqHwlasiygB6aET0cpIloVamAWP9uZz3Ykykvu2ume9ScjDmjLlepJDcb1/30HTjd+ycVqX30sAZ0Pz4VnYK0yEQKOJCFWf0w/48wNhs8p2/R99G63mHQg2nKYsFs5D2KldL7x3H4f7wyzrrKf00rjfkFXlcUv8Y9wHbxKOW3t+FSRGsMKJWX3hswS/HyoP5PTCfLamlAr5J14swUXoXpvmQv5cFQDhr2wZILwcvDmDzFFngt/mdbKjeCJ7UcsIMOevT8ee1Zfc88TH/0/gKQFRWYKaHL7mEhL3NdSZLLlZPkKp/s5EH9e8CvxKMOdQIROm4cxoB+Eubu6upbwG9FI1IejOTNG6bzIsjscm2Hehz+Zlmq6ghu6o20sJE5bJNu3elKjJz1U0+lwMw+eYEZDejhcR3QKBpRSZJrgVQn1STJvRa412mkEalGLWEM6NUscfwDeI9syPgkuL9Cw2oYmecSzN1aCqpaEjyhN9HJw7RS0oIytScqMLMpB90FpDd03UcPj1nA1eJRlaA+D5hPNUlyy0G68HaIyPyOxymgb6OaJLj2u2D2P0wSnDADp+xqzBtXhcMeRDWeUyxmHTlEmywLgMcK56XMEqzVMmZltXWT8AcDrEDcLE/V0NOA74hHecAQpBZTTZLcdqpLktOA7qiahizLkX6GOyQJ7k8wNtc1Ce7bROx4QwKswLoyYBrYQzu9DCG6X0TmFz1k8lhuVXiYOiO9RSAjumHtBO5ymJuqnXcArxaP8idJ7mbgXeJRRmTyZMIW0J8IzHEY9xrgPtEI/5LgXgW8UzpI1Zxoub1AH4u0oEw9WX/vmsagpwBDeUjLlt11Hz18fo25z9vzL0nuO8BvxKPMyfhINGoJW0B3KSjzXaQ/pEOS4C6uJgnuWPFrq3oRBfR2BpnFmLSZtj6hu7NOJsx7sC3ntOyuAT2crgNkhxFTmPXX6pPk5A9/RiTKwIYtoEtvkDcjfjqemAS3CkbaXIJ5AU2CCysP64YsHpBnEetoQHSPaKD645VJZh3Qsx7sS0O/FpiJi7nAVU4j/UmSO7X8lSQi8eE9bAFd8iloB04t8ypJcHePS4ITL7ODeUNqQZFwug/YYndpBtjDUh5iDNEq3kmYoK7czEOwjDlG+Tw6op/ROqBbMilVN/8OfEM8yp8kua3IW2nrE7rQIuBRgutPQfopq5IEN7NSCc45Ce7rwH+4DFR1IXgyKwDbmMeAFpSpP/u67p6p604W0rLP3/qUHl7vwXTClPEnSU56xPnRRKBRS5gCuiRL/LVIiwVUkuCK+0zxGPckuFcgbvii6kxUUGYefcxlt3QNTgN69ay/h41j0FeAbQVxnyTdRw+33wJHi0b4lyQnLUIW+qf0MAV02z0KeTm/8UlwXRdDZqdrEtwTgPOlg1TdCZ7KGlhAHzMRH1rWCnHVsw7oeQ+2Z6FP99Hj6DrMUUZ7/iXJvQq43/La0O+jRy2g34K44H45CW4UWPy3apLgcmgSXBQMACvtLy/RQY/0F+HxRGD5LQKOweylTyuF+RXemEe6qHYXsFs6MVVX84C/OY30r5KczWgN6JZmMH3G8E7gNPmXHtcOdfZNMNqOYxLc37C8+ahACZZYc8B2ulglXW7Xp3P/WDdqyXvlzmuyRi2jWJ94UAFaDnxFPMq/JLmzLK4LfaOWsAR0m4Ysy5HW4z2YBDdQrgQ3B7yMy/y+jDnqoMJPENCbaGYDHQyyT/Yaof+kHiHWy+4N5bruI1lt1BJT7wdeKh7lT5LcjcD7prkmj+nzHlphCejTJcS9Hrhb9BUPVoLbC50XgpeDsQYcns5fCnxAOkgF5mb7SxtpZ4AZWNeIrdCA7h9Ro5atead9dMF7QgXsAuBxohGVJLl81Uly3wB+N801of7dD0tAn+qX+odIW5KmPBgt51gs/iNkdrgmwT0W8wZT0bAfuMPuUlMlvJPVNCCKD3OISBnIiFiGZbvkLLA3Bevkn8tXiEeoIF2P+XHb86/d6nnAv6b47xrQp5HmyN+kFcDbZF/Og1LWPHItug6aHnRth5pFk+Ci5jasaxNkgZ10stqlIUsYfm/iogU40eZCD/ONH8wDKdHPbCtwj8PcVDA6gCudRvqXJHekKtBPxeXZv07CcGN6IiadYaJdOO1bp2EoDW0PwtzrYNS5mNsVmLeFig7BEaUiabbSJt8/1/Pn/hPtow/mYSwHGd1Hj7MzgC+IR/mTJLcZOPsI/20uIV6hC0NAP9L++akgvNemgKEstGyGRZdBaQaU5B0dgM8jLw2ogie4aTezmHW0ckD6QV4Duv+sTw0US+bo2tYc0n10DejR8z/Ai8SjxifJNYJ0Ca7sekyS3mRCW2AmrAH9jcCdoq+S8mA4B7kR6Cpve482mT+XeRHwYekgFQqCm3aedvpoQrTVlsWcyFD+sv6QlPVgTwY2aIGZpLgEeIxoxPgkua7yn43iEtS/Bvx+kj8P7T56GAL6xE87PwJ+JvoKlSQ4D+i6FLJbYWS2y775UZg3kIqeB4FB+8tHWEAPJUS/508GZgrnpabXVf5rWpUE5nWy5psAq4B+8SgVBtchjVWVJLmZkFqCedOIwwFgSn0/NOHP9An9CBYDS8f9++3AW2VfYmIS3AMw0orDTy+NJsFFmeDpvEiKTXTysDZkCQ/rAjNFr9x5TVZgBnTZPaoWYnKa5A4A7Zg0O2nD1Ecs59CTrUeV5xQ6QQf08cvtu/EtCc4pCfEvmI5vKpoES6qNzGYDrWzXgB4eosS4LXnYLy8wo8vu0XU28DnxqBIwWn5Kn4lr0ZmNwDkT/kzSTKxugg7o45NhTgX2iEYfkgR3aTVJcJ/l8B+YihZRQ5YO+mlB3JBFA3rtWO9LFkuwOQfrCkjPGmtAj7aPAs8XjUhx8Nk69ShMt2S3JLlrgQ+O+/dQ3guCDujPKf/9zVgXBCkbnwTXeQGQck2Cez7wMekgFSqbgQckA7pYhbDPRyfwKNGslMTxWNbJrjTacmjUcgfSkzMqbC5H+ntYecMUypnv4Jok9xXgwvI//4d4dB0EGdAbMNmLfwF+Iho5MQku55wEtxTzBlHRdgvWt3ZTUGYRa6Wrb6H8RB4jeSyPr5kaf9BXBNKim9gQpviQirbrxCMqSXKzgOqS5F6GWYJfhjmTHipBP6G/iEee0i2Vk+CGgUXXQ9P9rklw4PLGUGEkWm7Ps5lWNkn3z0N7VCVGrD80NY1BTwGGCpDWZfekWQL82WnkAUh1YBLl3JPkTsEswTc5f4UaCTKg7wcukw3xTLe0A2lof6CcBNeKYxLcnzDLqCr6BDfpFpawljZGpb/PGtBrz75RiwfbcrApi3TZXQN6PDwb+KR4VAkYLtd7n4FrJbmVwOlAr3hkjQX9hC6UhuGMyWhfeAmMzXRNgvsk4pUBFVLDWC+jekCGTlZTQPSuacbs8arasm5NmfFgX7p8fE22OKe90ePjU5jAbi+F2T/3IPUYTCcBt8x3CGHDn+gE9BTmnMqMDbD4Qig1mHao8iS4Z2PeCCoe7gD22l2aBvbTTp80J+YpmD1eVVvzgGNsLx6jHNAR/Sw3IkygVKH2Z6QrrZVKcllIPRaT+e4e1EMlGgE9BRzIQfM26Pw9eAUYbXZJgnPfe1FhJdo/T7GJBfTafgKosK41rqpmvbVR8MqZ7llIa4GZJHNPksuWe6hncD3OFirhD+gpzwTzht3w6F9AZi+MzHIJ5qBJcHEkuDmb/fN57JXun2uGe/1Yf3hqHoO+AmzPQ0qWGKcBPV7cTiuN76H+WB6pKxzhoB7ugJ7yYChvPj11Xgjp3TDcKv7tLbscPUccR6KGLB3yhiygT+j1ZP2EnvNgexZ65fvomhgXP271RFKYygQzMd0ERnE9ox4K4Q3oKQ9G8mYt7ajfQLEXRtpdg7m8wpCKgjVYZ5qa6hIL6JY2ZDkWs7er6uNooM3mwkp+06C8wMwDwCbpxFTouVX8LAf11FzMs/4o4k/8YRHOgF4pHDMCLPkzND4II/NwPGvuVgNYRYHgSSsH7GQB3dr/PNxSWD6le0Deg+4i2qhFVbj35BiC1AJgAeY4W+hy2KcXwoDuwVjWfErqvBZm3gEjC3D87rp36VFRIGrI0sJG5mpDliiw3uJoKNd1H9VGLcpI45or5QH7y0G9uu5sgQlZQB9XOGbBzTD3ahidQxXTlPfRVVEiuCk30cnDtDLGsOw1tKBM/dk3avFgSw768ug+uqp4NHCx08gxoFRu5NIK0k//QQtRsPPAS8OBDLQ/CPOuhrE28OSloMouxtSKV/G0A7jH7lIPSLGIdQjLEM3D7Omq+lqG2SOZVsaDvWlYV0R6m7gdpLsvKkLOBT4sHlXpzjYGqS5M4Rm3anKBCFFAT5tWqG0rYdGFUGqEMflvadmHMD9QFV+3YP1MlgH20k6v9FSKPp0HowU4weZC81ENBgvmHwQ/272YoK7i6/PAGeJRlcIz6fJxtmYiU3gmHAG9UgWuZSssvhi8hnIrVKckuDOAL/o7QRVCouX2PAMsooc9stfQ/fPgWH/vG0sm072Ug4zslqGJcfF3JTBfPKrScjVbLhGbIxJBPfiAfrAK3HZY+muzhz7S4hrM52N+gCr+RA1ZOllDqzZkiRLrgN5QMhXjtuSQ7qNrQI+/LK5JcpXCM3lIPRqz0BfywjPBBvRKFbj8EBz1K8jsqaYKHJgfXNa/CaqQGgNW2F1qume30y9tyFLA7OWqYFgH9KwHuzMwqAFdTe5xwIVOIytP6jPKT+pg9thDGtSDC+jjq8AtvQAyO6upAgdwAeYHp+LvLmCn3aWmIctC1koLQJ1ICPsdJ0hX+a9pVbY81zWIX6MPWC0epaLoJcAHnEfvB2Zh2sCMENpqcrV7mh2aJkl1DMiX4NG/hYaHYWR+NU/m7wde6jpYRY7o/HmWAZawThuyRM9Tge7pLvIwx9f6CxwsMDNmf7P9J3oaJim+jEmEdFuC3w+peeCVMO/KEYJe4z5M7QJ6x1QroikYy8CsVdCwBkY6cKwCB7Ac+IrrYBVJgqXSRlp5iDnsk55R0v3z4D0N+L3NhZUCM/uz0DCCWfmzcwvwGrfpqQj6G6aSnLz0rwccgFQHeGPAdiwPV9ZPDQP6X6e5wAOvCMPt1TyZz8P8gFSyCAJ6gfn00oTpwSCgGe7Bsy8wU4LNeeguwBOGkAT0m10mpiIrh3lCP8ZpdCWozyOUHR5qF9BH5tpd5x7Mwfxg8tV8ARU564G1dpeaKhFLWSldGTsKWCycl/LfcZhTwNOeNqzkLm3MwxNkt5T7gG3AHIf5qWg6GjgfOM9ptEdo99BDtgMg8lu0ilcSCZ7Oc8AOOujR/ufRlMcyl8GcZYC+IpAW3dhKwK0Oc1PR9grgvVV9Bc/irzqLakB/D66frlTUCRLiGmhhI61sk5Zk1v3z8LBOTmwag56COTyTlh2W0bruyfR14D+CnoSfohjQ/x34RtCTUIER3HybWcw65mpDliizXi0peLAtZ5LjhE9HGtCT6ypMG5ZYiFpAn4v5Aahk2oM5g27BAzK00ydtyDITs3erwsH6Cb3SqKW/gPTQzArMrqhKngKux9hCKGoB/TqgGPQkVGBuxZz+tJABdrOE1dLCTk9BkiOtam0egozkMcoBHdHPfBfWHxRVDB0L/DroSfghSgH9V8ATg56ECpSoIUuBfpeGLLrcHj7WP5OCZzLdyUJal92VvVcD7wx6EtWKSkB/B1r8QYky3JtoZwOzGJUWlNEM9/ARJcb1FWB7XnwiVuu6q28D/xb0JKoRhYD+NOA7QU9CBc7D+niRB+RYSDeNiPbP08BJ8qmpGrN+Qs97sD0LvXnM+rs9DegK4O/A7KAn4SrsAX0WcHXQk1ChcC+wxe7SDLCPLlYK7+kch0m8VOFyNNBmc6EpJQQbha31gHVY1I1XsddIhJPkwh7Qr8N8g5US7HHmge200y89f67L7eGUwvJn42Ge0ruLHGzUIqD76ArMB/ufBz0JF2EO6D8Hjg96Eio0RPvnrQwwl11aIS4+rJfdK41aRrLifXQN6KridcDbgp6EVFgD+lsx31ClKkQV4rpYzSw86eFiDejhZf2zKXqwJQcDeaTn0TWgq/G+T8TaKIcxoJ8M/CDoSahQGQBW2V8+xnzWS9/cC4DHyoaoOlqGZbPKjAd70rCuiHQf/W5gt3hmKs6uBmYEPQlbYQvoM4Brgp6ECh3Bk1MO2Ek7fdr/PF5agBNsLvQwm+6DBfMPggIzo2i2uzpUM3Bt0JOwFbaAfi3mG6jUeIKbbCONDLCQPvbKXkOX28PP+mfUUILBPHhZyOh5dFWdE4GfBD0JG2EK6D/GfOOUmkhUIa6DAWZiXSO2Qp/Qw886oDeWzB76Bnldd91HV5N5I/CmoCcxnbAE9DcRgW+WCsR+4A67S01X7C4epgHRfbwBy+VcFSjrBKWsB7syTolxt4pHqKQI/UNnGAL6CZhvlFKTuQ1sT59lgZ10soohRHunJ2GCugq3pUCn7cUlzLK70DZMESOlJnMdId4WDjqgNxPhqjyqLgRLoAVSbKWNQS0oE1+iMrA9RSCjBWaUb1oIceJ20AH9GiJ0JEAFQpCk1MICepnLAS0oE1+iffQtOdif00YtylehPVodZED/AeYbo9RUBDfXPEtZRTPSvhzRKh6RcPatVMsV43o0MU75763A64OexERBBfTXYb4hSk3lX8Cg/eVDdNB78ByypcdjisqoaDgeyz3MNHAgVa7rLgvoq4F+6cRU4vyMkJUnDyKgR7bwvao70f45bKODPt0/j7c8lisq5swDbMwDafHNTp/SlY3rCFFCbb0DegNwfZ1fU0WXYLm9mTbWM58t7JO9hgb06LHfRx+DgQIM5SGty+7Kf7MIUZJcvQP61ZhvgFI2BDfVRhbQywyQNmTRgjLRI27UsjmH7qOrWnka8J2gJwH1DejfAf6tjq+nom0z8ID95SU66JO+oecAx8qGqBA4yfbCjAd707BBXmDmTpAu9qgEewfwmqAnUa+A/mrM/7BStgRPSFlgO12sdGnIEvTRTSXXjuCDWAlY14C0UcsQsEI6MZVovwKeGOQE6nEzOwb4dR1eR8WLYP+8iUYG6GCDNmRJDuujhsVS+QldG7Wo2rsek6EbiFoH9AJwQ41fQ8XTzfaXNtHBBpeGLBrQo0u0j741BztySPuj6z66kpqDyRULRK0D+tXA3Bq/hoqfYeB2u0s9IEMXqxAeN84i2ItVoSMqMLMlBz15pBWHbpVOSingGcA3g3jhWgb0z2H+x5SSuh1sV8/TwH466GUM0R7pk4GZ8qmpkDgaaLO5MIX5hLgxj/QJfSOixEylDno3cF69X7SWAV3LaSpXgr3LBlJsYj59un+eLCksn9I9Dm3UktZld1Uf76n3C9YyoL8N6edhpQxRQZnFrGUee7RCXPJYPzQ0l6CvAHsL4gIzmhinXH2y3i9Yy4D+MHBODb++ii/BU1GRdvpoQtyQRQN69Nm3Ui3B9hxszKIFZlQ9fBS4st4vWuukuKuAj9f4NVS8PAz02V8+zHx6AdH++RLgUaJZqTBaBuRsLkwD+1PlZXfZuuG/gE3imakkuxz4fBAvXI9z6J8D/liH11HxIGzIspkuVkuX27Xcazy0ACdIBmzIIy0wA/qUruytA14Y1IvXq0rW84HuOr2WijZR/fbZbKCVbbp/nlzWP8uGksl09+QFZjSgK1vLg3zxepa9XF7H11LRJQroHQzQgrigjD6hx4d1YlxjCTYUYLCA7qOrWngu0BPkBOoZ0NcDz6vj66no2Q7cZ395ii5WUkC0LdqMOYOu4sH6CT3rwc4M9MsbtdwB0jYBKmE+Dfw56EnUuzHFn4DP1vk1VXTcgnWyehbYwWLWMIRoT/QpQF4+NRVSS4Eu24tLwKD8p78X68qFKoGuAD4V9CQgmE5TnwD+GsDrqvATHVfLsYVWNkt7XGrBo/ixfkrPe7C+XGAmowVmVPX6gOcEPYmKoFpHPhvoD+i1VXgJinjMoJM1tDLi0jJVxYt1QG8s13Xfn4OUFphR1VtOiAqoBRXQS8CpAb22CqdRrPtPe0COdvqlDVkAThbOS4WfvFGLPDFOA7qa6FxgTdCTGC+ogA6wGnhxgK+vwuUuYKfdpWlgL4tYJ23IciwwTz41FXLHY5Idp5UGDqSgW/5JsB9YJZ2Yiq0vApcGPYmJggzoAJcAXw54DiocRA1ZMgyymLXakEWBSXK0yo0wzXbLiXFp8Q1Q99EVmLbgHw56EpMJOqADfAi4NuhJqMAJAnojbQwyh70ckL2GBvT4sk52bCqZinHDeW3UosQGgWcFPYkjCUNAB9PEZWPQk1CBEmW4d9BLM+KGLJoQF1/WH9aKJdiah005tMCMkjoVcR2r+glLQB8BTgt6Eiow3ZgayBZSwAhLWSl9884DjpYNURFineyY8WBPulzXXRbQ7wO2Ceel4uM84KGgJzGVsAR0MF2NXhn0JFQgBEuZOWAH81mvx9XUeO3AMbYXl4B1DUgbtZTQp/Sk+gbwu6AnMZ0wBXSA84FvBT0JVXeCm2QDTWzShixqMvbH17zyE3pWXGBG99GT50bgfUFPwkbYAjrAe4B/BD0JVVeCgN5CJ2uYy5g+oauJrBPjGsrn0Xdm0fPoaipbMDlekRDGgA5wNrA16EmoutgN3G13qQekWMwa8ojKM+WBE8UzU1EjKjCzNQfrC0gzK1dgiiCpZDgdpIuBwQlrQN+H+Uaq+LsF66zRDLCHDvoYRrT3uQzLwiMq0o4G2mwuNKmVpj+6sHDnLkz3NRV/rwXuDXoSEmEN6AD3AK8PehKq5kTnz3NsYCE9WlBGTSaF5c/aFA+GnnKjFuGNUJfd4+/7wK+CnoRUmAM6wC+AHwQ9CVVTwv3ztbQyIi0oox3WksP6w1vzGPQWYF8e0rJldw3o8XYL8F9BT8JF2AM6wNuBW4OehKoJD1FDljzt9Lk0ZNEn9OSwb6Vagh05GNQCM+oRO4Azg56EqygEdDDf4F1BT0L57h6skx8zwG4Ws5ZRRPvnRwFL5FNTEbUMkwQ5rUqjlt4C0n309VgXQlIRcwawJ+hJuIpKQN+N+UareBEsXeaBHXTQK11u1+NqyTIDeLLtxR6woYC0wAzoU3ocvZmIJzxGJaAD3Aa8NehJKF8JboqNzGUDc9mlDVnUdER13TfmwctCRpfdk+ynwE+CnkS1ohTQAX4E/DzoSSjfiDLcO1nNLDxpZwR9Qk8eUee1/gJsLKD76Ml1J/CmoCfhh6gFdIA3AHcFPQlVtX5glf3lJRaynozsNWYCT5INUTFg/YSe9WBXBvrliXH3oHk9cbCXGG3nRjGggyk6sy/oSaiqCJ5wssAu2umTlnt9anmwSpalQKftxSVgsCB+jVH0+FocnAlsD3oSfolqQN9OhI8WKEB0M2yiiT4W0SdNP9X98+Sy3mrJe9BdLjCjjVoS5Z3EbOskqgEd4Gbg3UFPQjkTFZRZQjez8RiWvYYG9OSyLzBTMpnuu/KQ0n30pPgN8N2gJ+G3KAd0gG8D/xf0JJTYPqyPh3hAmg56ySE6LpwGTpJPTcWE9RN6rgQ7M7BBvo++QjxChcF9wGuCnkQtRD2gA7waeCDoSSiRFWC7HV4pKPMwI4jOCh8HzJVPTcXE8Vg25KkUmOmRlyDchkmOU9ExBJwW9CRqJQ4BHeBUkK7GqgCJjqvl6WcRPbp/riTywMk2F3pAzoP1lUYtuo8eZ2dhepzHUlwC+mZMD3UVDaKEuHYGmc2I9BObNmRR1h/qGkuwKQ+jOXFA13306Hg/cGPQk6iluAR0gOuBDwQ9CWVF0Gwnx2LWujRk0YIyyjqgFzzYmoPePNI3mj6hR8MFwNeCnkStxSmgA3wVuCjoSagpPQAM2l8+wnzWS+tsLwAeKxuiYshqyR1MgZk9aRiUB/TVQJ9wXqq+VgIvD3oS9RC3gA7wUswvmQonwRJlHthOO/3akEW5aAeOtbmwssq+oVxgRhu1xMYYsDzoSdRLHAM6wCnocZKwEixRNtPKehawib2y19CAriqscymKJVNgppTTRi0xcg6iFcFoi2tA3wA8M+hJqEkJbn5NLKSHmZg6mwIa0FWFLDEuB9vky+4a0MPpI8DVQU+inuIa0AGuAj4W9CTUITYB/7K71AM82umTNmRpAE4QzkvFl32BGQ92Z2FQXmDmTpAuIqkauxz4QtCTqLc4B3SA/wX+EPQk1EGCJ5kcsINOVkobspwEFGVDVIwdDbTZXJjCFLNYV0RUkrA8bIV0Yqpm1gEvDHoSQYh7QAd4AdAd8ByUIVpub6SfBWzQgjKqGiks3xMe5vhabxHIihu16LJ7eJwS9ASCkoSADvAfQU9AAcKCMh0MMBOPEdlraEBXE1m/JxpKsDkHB3LiRi16Hj0cng30Bj2JoCQloPcCzw16Egk3BNxud6kHZFnCGpeCMlohTk1kvY9eLMGWHPQUkL7xBMWSVI18Grgi6EkEKSkBHeDPwGeCnkSC3YF14lAW2EUXq6QNWR6PKSqj1HgnYpIyplVp1NIt/yS5CbhfPDPllyuATwU9iaAlKaADfBK4MuhJJJRgj7EAbKWNDeyXvYYut6vJzMDy5IOH6e83mAfS4hukLrsHoxez1J54SQvoAM9CSzUGQRDQm1lAH3PZL60QpwFdHYnoPPpgpVGLnkePgsQmwU2UxIAOCSoFGCKCPcYCS1lJM+KCMv8mu1wliHVuRUM5oPcVMIVD7WlAr78XYo6pKZIb0NcA5wY9iQRZhWhVZJiOcqKqYP98LnCMaFYqSayf0CuNWjYUkJ5HfxDYKJyXcvcFTAEZVZbUgA5wKfCloCeREIK9xQKwjXb6XJbbk/x+VlNbCnTaXOhhPkhuyJt/0EYtofR3TGlXNU7Sb4D/A1wT9CQSQHCTa2QWA3SwmX2y19D9czUd6+NrBa+85J7RAjMhpL06jiDpAR0S1o0nIKKA3kE/M0ALyii/iQrMbMnBLnlddw3otXcq0uyGhNCAbvKuTg16EjG2DbjP/vIUXawmj2j7Moup4a7UVOyf0MsV47qLSEPHHSDdLVICLwdWBj2JsNKAbjwEvCLoScTULVg/42SAnSxmNUOI9i5PAGbKp6YS5nig2ebCFGaFqEeeGLcP64qISuhrwAVBTyLMNKA/4vfAN4KeRAwJliAbyLKZVjZrQRlVC3ksj6955Ys35oGM+Eapy+7+uwF4f9CTCDsN6Id6H3Bj0JOIGcHNrYXFdNPKiHTNUuu3K1vW75WmMRgowIE8pGXL7loxzl+bgbODnkQUaEA/3NnA1qAnEROjwG32l2dZyioaEDdksd4bVYlnvZpTLMGmHKyXN2rRgO6v0zHNndQ0NKAf7gBwWtCTiIk7gV12l6aA/bTTxxii/fNOzBljpWycbHthpVHLoDygD6CJW355DaKk2mTTgD65e4HXBj2JGBA8qRSBLXTQq+fPVS21Y1lRsNKoZaDcqEULzNTdd4HfBD2JKNGAfmS/Ar4f9CQiThDQm1nEWjrYLU2I0+V2JSVq1LK+AEN5yOiyez39E3hn0JOIGg3oU/sv9BezGqIM9w76aELckEUDupIS7aNvzZkiM1pgpm62A2cGPYko0oA+vTOBHUFPIoK6y39ZGmE+PYBoabMZc7ZYKQnrD4FZD/ZkynXdZQH9PkxRJSV3BrA36ElEkQb06e3BvMGUjOAJJQ9soYvVLsfV8rIhSnE00GZ78Riwrmj+WfBh00Of0l28CZNMqxxoQLdzB/CWoCcRMYKbWRMzGWAeWzUhTtVDCsmyu1dupZrVRi019hPgp0FPIso0oNv7MfpmkxA2ZBmgGW3IoupG3Khlp+6j19IdwJuDnkTUaUCXeRPmjaemtgu42+5SD0jTxWqKiMpmpxCcKVZqAuuAXmnUsl7eqOU2xJ9RE2k3uq3pCw3ocpqwMb1bsE5WzwB76aCXEUR7lMcC8+RTUwqAZUDO5sJKo5aNwhaAmEClDwDTOwtNPPaFBnS5HZg3oDoywVG/RjJsYAG97JG9hi63q2rMwHTpm1alUUuvW6MWPfY6tXeg3yPfaEB3czNa9GAqgl/QFrpYQyvD0gx3DeiqWtbvoaYx6CvCPm3U4qdfAd8LehJxogHdnZYlnFwJuNXuUvPs004/RbQhi6o7685rBQ+2Z2GjPDFOA/rktLx2DWhAr442DjjcPVgX1EgD+1hINyVE++fzgCfIp6bUIayf0NMe7EtDfwHpPvp6YK1wXnG3H22AVRMa0Kt3GtrabzxRQ5Y0gyxhjfT8uT6dKz8sxXTrs5KiXGAmpY1aqqQtqmtEA3r1tmDeoMoQBPQm2hhkLnuk++ca0JVfrN9LDSXYlIdSThu1VOF9wE1BTyKuNKD74wbgv4OeREgInkaK2pBFBU3eqCWLFphx8zvgG0FPIs40oPvn68AFQU8iYP3AavvLR1nKSrKItiULWB43UsqC9YfDnAfbstDdgDSg3w3slE0rdh4Czgt6EnGnAd1fL8e8cZNK8CSSA3awgHUcQLQneSKmy5pSfjgey/dTClMorr8gfo0xkr3sPgKcGvQkkkADuv9OQ7yCHBui+u2NbGIu29gvew09f678lMeyhLCHOb42mAMy4kYtSQ7ozwQGg55EEmhA998G4FlBTyIggoDeQidraWVMekRAA7rym32BmZJ5Qt+Vh5Tuo9v4MHBN0JNICg3otfF34KNBT6LO9mLdx9gDMrTTh7w8tgZ05Tvr91S+BDuzMJhHuo++Amlrl+i7FPhi0JNIEg3otfN54LKgJ1FHK7A+j58GdrOYhxlGtH9+FLBYPjWlpmTdtS8N7E9BTwFpQN+OKbqUFGuAc4OeRNJoQK+tF5GcKlGi8+d5+lhEj7RtnR5XU7XQDhxjc2GlUUt3EZdGLUlZdveA5UFPIok0oNfe8qAnUCeCm1UT7Qwym2HdP1dhYf3eaijBphyM5CCtBWYm82ygL+hJJJEG9NrrBZ4T9CTqQNSQZT49NKINWVRoiArMbMvBBnmjliQ8oX8SuDLoSSSVBvT6+Avw6aAnUUP3A5vsLk0D+1nKSmky3EzgScJ5KWXL+sNi1oNdGacCM2swH/Dj6i/AZ4KeRJJpQK+fTwFXBD2JGhEsJeaBbXTQ69L/PCsbopS1Y4A2mwsrH0Q35M3ftVELAD0kYyUy1DSg11dc95ZECXGz2cgcdmpBGRU29o1aPNiYBy9rWqsKxHUf/ZSgJ6A0oAchjm/8m+0vbaSL1czBY0T2GhrQVa09xfbCxjFTYGZTAVKy0+WC35XIeAHQHfAcFBrQg7AWc5wtLjYBD9pf7rGQbjKICsqkEZwVVsqRqFHLzky5rrtsH/0ukJ7WDLXPA38IehLK0IAejMuITwUlwZ5gBthFO70MIdp7PA6YI5yXUlInYroGTavSqGUwL36NYaxPhIReEitihpoG9OB8GLg66En4QBDQm2mgj4X0SR9RdLld1cMMLFvzVhq1dBeAbCIbtWwAzgl6EupQGtCDdQ7R70IkasjSxTrm4mlBGRVW1vvoTSXYUIBduUQ2ajkFcRkJVWsa0IM1RrST5IaA2+0urTRk6XVpyKIFZVS9iBq17HBr1BL1JfeXAquDnoQ6nAb04K0CXh70JBzdDuyzuzQD7GSJvCHLAuAx8qkp5cQ6oKeBAylYX0T6CXUzcJ9sWqHxNeCioCehJqcBPRwuwPyiRI1g6bAIbGUeG6Tnz/XpXNXTUqDT5kKz5gSDOSAtLjATxX3064H3Bz0JdWQa0MPj/cCNQU9CSHBTamY+/cxln7RCnAZ0VW/W77nGkllyH81CJt776FuAs4KehJqaBvRwORPYGvQkBAQBvcBSVtECjMpeQxPiVL2JOq8NFpzOo0ctoC8HaS0oVW8a0MNlmOi0W10F9NtfPkIHPYBoabIRy2NESvlI1Khld9pkuwsD+kNE54TLq4EHgp6Emp4G9PC5H3hN0JOwIHjCyAPbaadfun9+EtAgG6JU1Y4Dmm0uPNioJQekYtmo5TvA/wU9CWVHA3o4/Qb4btCTmIZo/3wOPSxgozZkUVFQQFBquMGD7qJp1CIsMBP2gH4z8K6gJ6HsaUAPr3cS7l94QZOJJhbRzSzEm3Aa0FVQrN97jWOwKQ/bcpjKEvbC/Pu9HZPToyJEA3q4nQnsDHoSk9iG9Tla88jSTp+0IQsIqnYp5TPrgJ71YFfGqcDMHSA99FE3p2FdY0KFhQb0cNuL+cUKm39iHZuzwA46WcUBRHuMjwfmy6emlC+sl9zTwFDKLLsL7QduE4+qvTcCdwc9CSWnAT387gTeFPQkJhDtnzfQxwIGpB/3dbldBakdOMbmwkqjlvXxaNTyI+BnQU9CudGAHg0/BX4S9CTGEez9NTGfAWbhMSx7DS0oo4Jmv49egi15OJCJdKOW24G3Bj0J5U4DenS8GbPnFrRRRMuEGTp5GPkxXQ3oKnDWAb1Qgq25cl33aDZq2Q2cHvQkVHU0oEfL6cCegOdwB7DL7tIUcIAOehlDtH8+FzhWPjWlfGX9oTID7EvBRnkrwQFgpWxaNXEm1r/XKqw0oEfLTuCMgOcgKvcKm2mnz+X8ubBGh1K+OwZotbmw0qilP49Lo5agl93fTnhWClQVNKBHz63AOwJ8fUFAb2Eh6+hglxaUUVElatTSU4ThaDVq+SXwgwBfX/lIA3o0fQ/4VUCvLbj5NDCfXlqQ1tvQ/XMVGtYfLosl2JIzf0WkUcs9wOsCem1VAxrQo+u1WBd38c06YL395aPMp09aTCYLLJMNUapmRAVm9mRM9zVhQL+f+ndZ3I8mwcWOBvRoO436VpoSNmTZQierpMvtJwAzZUOUqpllQM7mwhTmCMi6ItJGLR71f0o/m2i1alYWNKBH2xbgrDq+nuj8+QwGaGOL7p+rKJsBPNnmQg/TqKU/D2QgHd5GLe8Bbqrj66k60YAefTcB76vTawluOo3Mp5+ZmKcWAa3frsLG+kNmQ7nAzO5saAvMnA98q06vpepMA3o8fAP4fY1fYxfW9Z09IE0Xq7WgjIoDUYGZLZUCM7JM0NsQNyMU+xfwyhq/hgqQBvT4eAXwUA2//i1Y36LSwF7a6WUI0V5iJ7BUPjWlaso6oKeAYcoBXWYPta0EOUI4Gz0pH2lAj5dTqd2nfNFye4ZB5tMnbciiT+cqjJZiPmxOy8Okg27MYfbRZa9Ty2X3c4CNNfz6KgQ0oMfLIPDMGn1twc1mBp2sYR5DDMleQxPiVFhZf9hsGoOBAgxlIS1bdq9V57UPAdfW6GurENGAHj/XAB/2+WuWsG7I4gE5OuijAS0oo2JDtI++Ke/UqKUWAf1i4Ms1+LoqhDSgx9MXgUt9/Hp3A9vsLk0D+1hEN6OI9s+bgeOlE1OqTkSNWvanYFDeqKUHWCub1pQeBl7i49dTIacBPb7OBdb49LUETw55YDsdrJdWvHlKebBSYXQ85kPntCqNWvqCbdRSApb79LVURGhAj7dTkT4jTE4Q0BuZxSBz2an75ypO8sDJthc3lGBDAbxMYI1ang30+/S1VERoQI+3XuA5Pnydm+0vbaaLh5mDx7DsNTSgq7AT7aNvzZm/hPvogt+1I/oE8Fcfvo6KGA3o8XcF8KkqxvdhvXTvAR6LWEcG8dKAVohTYWf9Hs17sC1brusuC+j3ADuF8xrvT8BnqxivIkwDejJ8Gviz41jBEmAW2EU7vRxAtHd4LNAmnJdS9WYd0CuNWvoKSDfRS7hnu68Hnuc4VsWABvTkeC4mi1ZK1JClSB8LtaCMiqd24BibCz2g6Jnja6QhU59GLcsdx6mY0ICeLMsdxogKynSxlrl4mhCn4sr6vdpUgr4i7M7VpVHL84Fuh3EqRjSgJ8s64IWC6/cBd9ldag7rdNCP/PitPqGryLBedi+UYGsWut0atUg+AnwO+KPoFVQsaUBPnsuBz1teewvYPmyb/fMlrJY2ZJkHPMH+cqUC9W+2F1YatQzKqytsx/qDNFcBHxe/goolDejJ9FHg7xbXCZJzCsBW2hiQFpSxvkEqFQJHA602F1YatfQXgHRNGrUMULveDSqCNKAn1znAhmmuEQT0Jjrop5V9un+u4iyFsFFLbxH252vSqGU50kNxKtY0oCeXTWlI0RN6F6towRzXEdD9cxU11h9CK+fRN8oLzEz3hP5SYLXoK6rY04CebKuAlx3hv90PbLb/UiMskJ+KKwAnSgcpFTDrgJ7xYH+6fB5dlim6FlPpcTJfBS4SfTWVCBrQ1YWYG8REgqMzeWAn8+iT7p+fCDTJhigVuGVAzvbiEjCQB1LiRi2TlYG9DviA7MuopNCArsDcIG6Y8GeC5fZmZtHDQjZKC8ro/rmKohnACbYXN3iwsQBkIC17Sp/4O7gZOFv0FVSiaEBXFWcBW8b9u6BJRBOL6WYWMCJ7TQ3oKqqsz6M3jplM980FSMkS4yb+Di5H/CumkkQDuqoY5tAkuYfshpWANPPoJ4u4oIwGdBVV1u/dnAfbM9CfR1pg5u5x//wq4F+i0SpxskFPQIXKA8C5INkKLwJ7eAz3sw/RHuFRwGLR7JQKD+vTGSnMx97+AhzvQSoFnt0n32Hgk8BM4Lcuk1TJogFdTXSp/aVjwEIezwUcy0Y2yV5Hj6upKOsCOjEdzqbkAXPG4PpZ8PSdMOsAjOQhZRfUP1PNJFWy6JK7clQC5pGlm/P4LfsRV7jQ5XYVddYfShvHYEcGft9u/j2j5WBUDWhAV44ywAyeyc/pYIztiI/kaMlXFXXWH0rHUtAxAiua4N7ZkB5G/Auj1HQ0oCsHY8AiWrmRM7mDQUx4F5gJPKkGE1OqnkTbRmmg2YOLW6GUg+yoOIlUqSlpQFdCHtAC7OY8foaHdTu28Z6K+DOAUqFzPILCSB4wZxT6c/DHecCo3oCVv/T9pIQ8oIOn8DueyBY24/Qm0v1zFQd5BOfRoZx5Mgp/mw39MyCjS+/KRxrQlUAJaCfPgzyPvxxShUZIA7qKC/F7ueCZj8WXtAIpyMjOpit1RBrQlUAeyPNCfspsYA9ODxdp4GR/56VUYERP6FB+Sh+BexrhlrmQ0tpvyica0JUlkwh3FFdyKg+yEec3z3HAHB8nplSQxAEdzAfhmSXzlL63QRPklD80oCsLHjAL2MKLOJ99iHuej6cFZVSctAPHSAd5wIwx2JaBP7UCY5olqqqnAV1Zmssp/JpHs4dtVPXGcXqiUSrEnHJCSkD7KFw3E7pnQnoIPE2QU1XQgK6mUQIWMZvbeSHXVpMIV6FP6CpunJM88yVzE76oDchAVhPkVBU0oKtpFIESL+Dn5EDagGWihcBj/JmXUqHh/CG1lIL2EXigCNe2mQS5lD6lK0ca0NUUKs1XLucp9FSTCFehT+cqjo4GWl0He0DrGPxpDuxoNGfTNUFOudCAro7AA2aToo9zuZC9iJuvTOb06r+EUqGTAp7tOtgDWsZgVxoubzN/pglyyoUGdHUEaaCJc/g1SxhiG74UtNKGLCqu5lUzeCwFC0bgny1w/yxI69l05UD7oasjKJJigCdxO7vw7ZPf+4GPVvHlSpgHGtfPFtUuMlS7EhrkSmoJU3bf5XuXwuy/uBYqTWFOOo5UOX404PGTvX8ywDbguw5f97AvNApsyh3hlZSaRsrzdLdGKaWUijpdcldKKaViQAO6UkopFQMa0JVSSqkY0ICulFJKxYAGdKWUUioGNKArpZRSMaABXSmllIoBDehKKaVUDGhAV0oppWJAA7pSSikVAxrQlVJKqRjQgK6UUkrFgAZ0pZRSKgY0oCullFIxoAFdKaWUigEN6EoppVQMaEBXSimlYkADulJKKRUDGtCVUkqpGNCArpRSSsWABnSllFIqBjSgK6WUUjGgAV0ppZSKAQ3oSimlVAxoQFdKKaViQAO6UkopFQMa0JVSSqkY0ICulFJKxYAGdKWUUioG/j/tzRO4th59GAAAAABJRU5ErkJggg==;" vertex="1" parent="1">
          <mxGeometry x="-260" y="630" width="60" height="60" as="geometry" />
        </mxCell>
        <mxCell id="_NaHXFqti5zntaUbajzt-12" value="&lt;h1&gt;Environments&lt;/h1&gt;&lt;p&gt;A cluster and a namespace constitute an environment&lt;br&gt;&lt;/p&gt;" style="text;html=1;strokeColor=none;fillColor=none;spacing=5;spacingTop=-20;whiteSpace=wrap;overflow=hidden;rounded=0;fontSize=17;" vertex="1" parent="1">
          <mxGeometry x="-190" y="620" width="240" height="130" as="geometry" />
        </mxCell>
        <mxCell id="_NaHXFqti5zntaUbajzt-14" value="Namespaces" style="text;strokeColor=none;fillColor=none;align=center;verticalAlign=middle;whiteSpace=wrap;rounded=0;fontSize=12;fontColor=#666666;html=1;" vertex="1" parent="1">
          <mxGeometry x="560" y="480" width="107" height="30" as="geometry" />
        </mxCell>
        <mxCell id="_NaHXFqti5zntaUbajzt-15" value="" style="shape=curlyBracket;whiteSpace=wrap;html=1;rounded=1;flipH=1;fontSize=14;fontColor=#ffffff;rotation=-90;fillColor=#6d8764;strokeColor=#B3B3B3;" vertex="1" parent="1">
          <mxGeometry x="594.25" y="53.75" width="20" height="928.5" as="geometry" />
        </mxCell>
        <mxCell id="_NaHXFqti5zntaUbajzt-16" value="" style="triangle;whiteSpace=wrap;html=1;fontSize=12;fontColor=#ffffff;strokeColor=#3A5431;shadow=0;fillColor=#6d8764;" vertex="1" parent="1">
          <mxGeometry x="50" y="645" width="20" height="80" as="geometry" />
        </mxCell>
        <mxCell id="_NaHXFqti5zntaUbajzt-18" value="" style="endArrow=none;dashed=1;html=1;rounded=0;fontSize=12;fontColor=#666666;" edge="1" parent="1">
          <mxGeometry width="50" height="50" relative="1" as="geometry">
            <mxPoint x="270" y="950" as="sourcePoint" />
            <mxPoint x="270" y="620" as="targetPoint" />
          </mxGeometry>
        </mxCell>
        <mxCell id="_NaHXFqti5zntaUbajzt-19" value="" style="endArrow=none;dashed=1;html=1;rounded=0;fontSize=12;fontColor=#666666;" edge="1" parent="1">
          <mxGeometry width="50" height="50" relative="1" as="geometry">
            <mxPoint x="490" y="950" as="sourcePoint" />
            <mxPoint x="490" y="620" as="targetPoint" />
          </mxGeometry>
        </mxCell>
        <mxCell id="_NaHXFqti5zntaUbajzt-20" value="" style="endArrow=none;dashed=1;html=1;rounded=0;fontSize=12;fontColor=#666666;" edge="1" parent="1">
          <mxGeometry width="50" height="50" relative="1" as="geometry">
            <mxPoint x="710" y="940" as="sourcePoint" />
            <mxPoint x="710" y="610" as="targetPoint" />
          </mxGeometry>
        </mxCell>
        <mxCell id="_NaHXFqti5zntaUbajzt-21" value="" style="endArrow=none;dashed=1;html=1;rounded=0;fontSize=12;fontColor=#666666;" edge="1" parent="1">
          <mxGeometry width="50" height="50" relative="1" as="geometry">
            <mxPoint x="914.4099999999999" y="950" as="sourcePoint" />
            <mxPoint x="914.4099999999999" y="620" as="targetPoint" />
          </mxGeometry>
        </mxCell>
        <mxCell id="_NaHXFqti5zntaUbajzt-22" value="" style="shape=image;html=1;verticalAlign=top;verticalLabelPosition=bottom;labelBackgroundColor=#ffffff;imageAspect=0;aspect=fixed;image=https://cdn1.iconfinder.com/data/icons/social-media-2106/24/social_media_social_media_logo_git-128.png;shadow=0;fontSize=12;fontColor=#666666;strokeColor=#B3B3B3;" vertex="1" parent="1">
          <mxGeometry x="90" y="666" width="38" height="38" as="geometry" />
        </mxCell>
        <mxCell id="_NaHXFqti5zntaUbajzt-23" value="&lt;h1 style=&quot;font-size: 29px;&quot;&gt;&lt;font style=&quot;font-size: 29px;&quot;&gt;Krush&lt;span style=&quot;font-weight: normal; font-size: 29px;&quot;&gt;.Cloud&lt;/span&gt;&lt;/font&gt;&lt;/h1&gt;" style="text;html=1;strokeColor=none;fillColor=none;spacing=5;spacingTop=-20;whiteSpace=wrap;overflow=hidden;rounded=0;shadow=0;fontSize=29;fontColor=#666666;" vertex="1" parent="1">
          <mxGeometry x="-190" y="580" width="240" height="40" as="geometry" />
        </mxCell>
        <mxCell id="_NaHXFqti5zntaUbajzt-25" value="Git Repository with Environment overrides" style="text;html=1;strokeColor=none;fillColor=none;spacing=5;spacingTop=-20;whiteSpace=wrap;overflow=hidden;rounded=0;fontSize=17;" vertex="1" parent="1">
          <mxGeometry x="128" y="666" width="150" height="70" as="geometry" />
        </mxCell>
        <mxCell id="_NaHXFqti5zntaUbajzt-26" value="" style="shape=image;html=1;verticalAlign=top;verticalLabelPosition=bottom;labelBackgroundColor=#ffffff;imageAspect=0;aspect=fixed;image=https://cdn1.iconfinder.com/data/icons/social-media-2106/24/social_media_social_media_logo_git-128.png;shadow=0;fontSize=12;fontColor=#666666;strokeColor=#B3B3B3;" vertex="1" parent="1">
          <mxGeometry x="288" y="666" width="38" height="38" as="geometry" />
        </mxCell>
        <mxCell id="_NaHXFqti5zntaUbajzt-27" value="Environments are forks from a single source" style="text;html=1;strokeColor=none;fillColor=none;spacing=5;spacingTop=-20;whiteSpace=wrap;overflow=hidden;rounded=0;fontSize=17;" vertex="1" parent="1">
          <mxGeometry x="326" y="666" width="150" height="70" as="geometry" />
        </mxCell>
        <mxCell id="_NaHXFqti5zntaUbajzt-28" value="" style="shape=image;html=1;verticalAlign=top;verticalLabelPosition=bottom;labelBackgroundColor=#ffffff;imageAspect=0;aspect=fixed;image=https://cdn1.iconfinder.com/data/icons/social-media-2106/24/social_media_social_media_logo_git-128.png;shadow=0;fontSize=12;fontColor=#666666;strokeColor=#B3B3B3;" vertex="1" parent="1">
          <mxGeometry x="505" y="666" width="38" height="38" as="geometry" />
        </mxCell>
        <mxCell id="_NaHXFqti5zntaUbajzt-29" value="Environments Never get promoted" style="text;html=1;strokeColor=none;fillColor=none;spacing=5;spacingTop=-20;whiteSpace=wrap;overflow=hidden;rounded=0;fontSize=17;" vertex="1" parent="1">
          <mxGeometry x="543" y="666" width="150" height="70" as="geometry" />
        </mxCell>
        <mxCell id="_NaHXFqti5zntaUbajzt-30" value="" style="shape=image;html=1;verticalAlign=top;verticalLabelPosition=bottom;labelBackgroundColor=#ffffff;imageAspect=0;aspect=fixed;image=https://cdn1.iconfinder.com/data/icons/social-media-2106/24/social_media_social_media_logo_git-128.png;shadow=0;fontSize=12;fontColor=#666666;strokeColor=#B3B3B3;" vertex="1" parent="1">
          <mxGeometry x="722" y="666" width="38" height="38" as="geometry" />
        </mxCell>
        <mxCell id="_NaHXFqti5zntaUbajzt-32" value="" style="shape=image;html=1;verticalAlign=top;verticalLabelPosition=bottom;labelBackgroundColor=#ffffff;imageAspect=0;aspect=fixed;image=https://cdn1.iconfinder.com/data/icons/social-media-2106/24/social_media_social_media_logo_git-128.png;shadow=0;fontSize=12;fontColor=#666666;strokeColor=#B3B3B3;" vertex="1" parent="1">
          <mxGeometry x="930" y="666" width="38" height="38" as="geometry" />
        </mxCell>
        <mxCell id="_NaHXFqti5zntaUbajzt-33" value="Production Environments are managed by an opertations team" style="text;html=1;strokeColor=none;fillColor=none;spacing=5;spacingTop=-20;whiteSpace=wrap;overflow=hidden;rounded=0;fontSize=17;" vertex="1" parent="1">
          <mxGeometry x="968" y="666" width="150" height="70" as="geometry" />
        </mxCell>
        <mxCell id="_NaHXFqti5zntaUbajzt-34" value="&lt;h1&gt;AppGroup&lt;/h1&gt;&lt;p&gt;A cluster and a namespace constitute an environment&lt;br&gt;&lt;/p&gt;" style="text;html=1;strokeColor=none;fillColor=none;spacing=5;spacingTop=-20;whiteSpace=wrap;overflow=hidden;rounded=0;fontSize=17;" vertex="1" parent="1">
          <mxGeometry x="-190" y="780" width="240" height="130" as="geometry" />
        </mxCell>
        <mxCell id="_NaHXFqti5zntaUbajzt-35" value="" style="triangle;whiteSpace=wrap;html=1;fontSize=12;fontColor=#ffffff;strokeColor=#3A5431;shadow=0;fillColor=#6d8764;" vertex="1" parent="1">
          <mxGeometry x="50" y="805" width="20" height="80" as="geometry" />
        </mxCell>
        <mxCell id="_NaHXFqti5zntaUbajzt-36" value="" style="shape=image;html=1;verticalAlign=top;verticalLabelPosition=bottom;labelBackgroundColor=#ffffff;imageAspect=0;aspect=fixed;image=https://cdn1.iconfinder.com/data/icons/social-media-2106/24/social_media_social_media_logo_git-128.png;shadow=0;fontSize=12;fontColor=#666666;strokeColor=#B3B3B3;" vertex="1" parent="1">
          <mxGeometry x="90" y="826" width="38" height="38" as="geometry" />
        </mxCell>
        <mxCell id="_NaHXFqti5zntaUbajzt-37" value="Git Repository with Environment overrides" style="text;html=1;strokeColor=none;fillColor=none;spacing=5;spacingTop=-20;whiteSpace=wrap;overflow=hidden;rounded=0;fontSize=17;" vertex="1" parent="1">
          <mxGeometry x="128" y="826" width="150" height="70" as="geometry" />
        </mxCell>
        <mxCell id="_NaHXFqti5zntaUbajzt-38" value="" style="shape=image;html=1;verticalAlign=top;verticalLabelPosition=bottom;labelBackgroundColor=#ffffff;imageAspect=0;aspect=fixed;image=https://cdn1.iconfinder.com/data/icons/social-media-2106/24/social_media_social_media_logo_git-128.png;shadow=0;fontSize=12;fontColor=#666666;strokeColor=#B3B3B3;" vertex="1" parent="1">
          <mxGeometry x="288" y="826" width="38" height="38" as="geometry" />
        </mxCell>
        <mxCell id="_NaHXFqti5zntaUbajzt-39" value="Environments are forks from a single source" style="text;html=1;strokeColor=none;fillColor=none;spacing=5;spacingTop=-20;whiteSpace=wrap;overflow=hidden;rounded=0;fontSize=17;" vertex="1" parent="1">
          <mxGeometry x="326" y="826" width="150" height="70" as="geometry" />
        </mxCell>
        <mxCell id="_NaHXFqti5zntaUbajzt-40" value="" style="shape=image;html=1;verticalAlign=top;verticalLabelPosition=bottom;labelBackgroundColor=#ffffff;imageAspect=0;aspect=fixed;image=https://cdn1.iconfinder.com/data/icons/social-media-2106/24/social_media_social_media_logo_git-128.png;shadow=0;fontSize=12;fontColor=#666666;strokeColor=#B3B3B3;" vertex="1" parent="1">
          <mxGeometry x="505" y="826" width="38" height="38" as="geometry" />
        </mxCell>
        <mxCell id="_NaHXFqti5zntaUbajzt-41" value="Environments Never get promoted" style="text;html=1;strokeColor=none;fillColor=none;spacing=5;spacingTop=-20;whiteSpace=wrap;overflow=hidden;rounded=0;fontSize=17;" vertex="1" parent="1">
          <mxGeometry x="543" y="826" width="150" height="70" as="geometry" />
        </mxCell>
        <mxCell id="_NaHXFqti5zntaUbajzt-42" value="" style="shape=image;html=1;verticalAlign=top;verticalLabelPosition=bottom;labelBackgroundColor=#ffffff;imageAspect=0;aspect=fixed;image=https://cdn1.iconfinder.com/data/icons/social-media-2106/24/social_media_social_media_logo_git-128.png;shadow=0;fontSize=12;fontColor=#666666;strokeColor=#B3B3B3;" vertex="1" parent="1">
          <mxGeometry x="722" y="826" width="38" height="38" as="geometry" />
        </mxCell>
        <mxCell id="_NaHXFqti5zntaUbajzt-43" value="" style="shape=image;html=1;verticalAlign=top;verticalLabelPosition=bottom;labelBackgroundColor=#ffffff;imageAspect=0;aspect=fixed;image=https://cdn1.iconfinder.com/data/icons/social-media-2106/24/social_media_social_media_logo_git-128.png;shadow=0;fontSize=12;fontColor=#666666;strokeColor=#B3B3B3;" vertex="1" parent="1">
          <mxGeometry x="930" y="826" width="38" height="38" as="geometry" />
        </mxCell>
        <mxCell id="_NaHXFqti5zntaUbajzt-44" value="Production Environments are managed by an opertations team" style="text;html=1;strokeColor=none;fillColor=none;spacing=5;spacingTop=-20;whiteSpace=wrap;overflow=hidden;rounded=0;fontSize=17;" vertex="1" parent="1">
          <mxGeometry x="968" y="826" width="150" height="70" as="geometry" />
        </mxCell>
        <mxCell id="_NaHXFqti5zntaUbajzt-45" value="" style="shape=image;verticalLabelPosition=bottom;labelBackgroundColor=default;verticalAlign=top;aspect=fixed;imageAspect=0;image=data:image/png,iVBORw0KGgoAAAANSUhEUgAAAfQAAAH0CAYAAADL1t+KAAAABGdBTUEAALGPC/xhBQAACklpQ0NQc1JHQiBJRUM2MTk2Ni0yLjEAAEiJnVN3WJP3Fj7f92UPVkLY8LGXbIEAIiOsCMgQWaIQkgBhhBASQMWFiApWFBURnEhVxILVCkidiOKgKLhnQYqIWotVXDjuH9yntX167+3t+9f7vOec5/zOec8PgBESJpHmomoAOVKFPDrYH49PSMTJvYACFUjgBCAQ5svCZwXFAADwA3l4fnSwP/wBr28AAgBw1S4kEsfh/4O6UCZXACCRAOAiEucLAZBSAMguVMgUAMgYALBTs2QKAJQAAGx5fEIiAKoNAOz0ST4FANipk9wXANiiHKkIAI0BAJkoRyQCQLsAYFWBUiwCwMIAoKxAIi4EwK4BgFm2MkcCgL0FAHaOWJAPQGAAgJlCLMwAIDgCAEMeE80DIEwDoDDSv+CpX3CFuEgBAMDLlc2XS9IzFLiV0Bp38vDg4iHiwmyxQmEXKRBmCeQinJebIxNI5wNMzgwAABr50cH+OD+Q5+bk4eZm52zv9MWi/mvwbyI+IfHf/ryMAgQAEE7P79pf5eXWA3DHAbB1v2upWwDaVgBo3/ldM9sJoFoK0Hr5i3k4/EAenqFQyDwdHAoLC+0lYqG9MOOLPv8z4W/gi372/EAe/tt68ABxmkCZrcCjg/1xYW52rlKO58sEQjFu9+cj/seFf/2OKdHiNLFcLBWK8ViJuFAiTcd5uVKRRCHJleIS6X8y8R+W/QmTdw0ArIZPwE62B7XLbMB+7gECiw5Y0nYAQH7zLYwaC5EAEGc0Mnn3AACTv/mPQCsBAM2XpOMAALzoGFyolBdMxggAAESggSqwQQcMwRSswA6cwR28wBcCYQZEQAwkwDwQQgbkgBwKoRiWQRlUwDrYBLWwAxqgEZrhELTBMTgN5+ASXIHrcBcGYBiewhi8hgkEQcgIE2EhOogRYo7YIs4IF5mOBCJhSDSSgKQg6YgUUSLFyHKkAqlCapFdSCPyLXIUOY1cQPqQ28ggMor8irxHMZSBslED1AJ1QLmoHxqKxqBz0XQ0D12AlqJr0Rq0Hj2AtqKn0UvodXQAfYqOY4DRMQ5mjNlhXIyHRWCJWBomxxZj5Vg1Vo81Yx1YN3YVG8CeYe8IJAKLgBPsCF6EEMJsgpCQR1hMWEOoJewjtBK6CFcJg4Qxwicik6hPtCV6EvnEeGI6sZBYRqwm7iEeIZ4lXicOE1+TSCQOyZLkTgohJZAySQtJa0jbSC2kU6Q+0hBpnEwm65Btyd7kCLKArCCXkbeQD5BPkvvJw+S3FDrFiOJMCaIkUqSUEko1ZT/lBKWfMkKZoKpRzame1AiqiDqfWkltoHZQL1OHqRM0dZolzZsWQ8ukLaPV0JppZ2n3aC/pdLoJ3YMeRZfQl9Jr6Afp5+mD9HcMDYYNg8dIYigZaxl7GacYtxkvmUymBdOXmchUMNcyG5lnmA+Yb1VYKvYqfBWRyhKVOpVWlX6V56pUVXNVP9V5qgtUq1UPq15WfaZGVbNQ46kJ1Bar1akdVbupNq7OUndSj1DPUV+jvl/9gvpjDbKGhUaghkijVGO3xhmNIRbGMmXxWELWclYD6yxrmE1iW7L57Ex2Bfsbdi97TFNDc6pmrGaRZp3mcc0BDsax4PA52ZxKziHODc57LQMtPy2x1mqtZq1+rTfaetq+2mLtcu0W7eva73VwnUCdLJ31Om0693UJuja6UbqFutt1z+o+02PreekJ9cr1Dund0Uf1bfSj9Rfq79bv0R83MDQINpAZbDE4Y/DMkGPoa5hpuNHwhOGoEctoupHEaKPRSaMnuCbuh2fjNXgXPmasbxxirDTeZdxrPGFiaTLbpMSkxeS+Kc2Ua5pmutG003TMzMgs3KzYrMnsjjnVnGueYb7ZvNv8jYWlRZzFSos2i8eW2pZ8ywWWTZb3rJhWPlZ5VvVW16xJ1lzrLOtt1ldsUBtXmwybOpvLtqitm63Edptt3xTiFI8p0in1U27aMez87ArsmuwG7Tn2YfYl9m32zx3MHBId1jt0O3xydHXMdmxwvOuk4TTDqcSpw+lXZxtnoXOd8zUXpkuQyxKXdpcXU22niqdun3rLleUa7rrStdP1o5u7m9yt2W3U3cw9xX2r+00umxvJXcM970H08PdY4nHM452nm6fC85DnL152Xlle+70eT7OcJp7WMG3I28Rb4L3Le2A6Pj1l+s7pAz7GPgKfep+Hvqa+It89viN+1n6Zfgf8nvs7+sv9j/i/4XnyFvFOBWABwQHlAb2BGoGzA2sDHwSZBKUHNQWNBbsGLww+FUIMCQ1ZH3KTb8AX8hv5YzPcZyya0RXKCJ0VWhv6MMwmTB7WEY6GzwjfEH5vpvlM6cy2CIjgR2yIuB9pGZkX+X0UKSoyqi7qUbRTdHF09yzWrORZ+2e9jvGPqYy5O9tqtnJ2Z6xqbFJsY+ybuIC4qriBeIf4RfGXEnQTJAntieTE2MQ9ieNzAudsmjOc5JpUlnRjruXcorkX5unOy553PFk1WZB8OIWYEpeyP+WDIEJQLxhP5aduTR0T8oSbhU9FvqKNolGxt7hKPJLmnVaV9jjdO31D+miGT0Z1xjMJT1IreZEZkrkj801WRNberM/ZcdktOZSclJyjUg1plrQr1zC3KLdPZisrkw3keeZtyhuTh8r35CP5c/PbFWyFTNGjtFKuUA4WTC+oK3hbGFt4uEi9SFrUM99m/ur5IwuCFny9kLBQuLCz2Lh4WfHgIr9FuxYji1MXdy4xXVK6ZHhp8NJ9y2jLspb9UOJYUlXyannc8o5Sg9KlpUMrglc0lamUycturvRauWMVYZVkVe9ql9VbVn8qF5VfrHCsqK74sEa45uJXTl/VfPV5bdra3kq3yu3rSOuk626s91m/r0q9akHV0IbwDa0b8Y3lG19tSt50oXpq9Y7NtM3KzQM1YTXtW8y2rNvyoTaj9nqdf13LVv2tq7e+2Sba1r/dd3vzDoMdFTve75TsvLUreFdrvUV99W7S7oLdjxpiG7q/5n7duEd3T8Wej3ulewf2Re/ranRvbNyvv7+yCW1SNo0eSDpw5ZuAb9qb7Zp3tXBaKg7CQeXBJ9+mfHvjUOihzsPcw83fmX+39QjrSHkr0jq/dawto22gPaG97+iMo50dXh1Hvrf/fu8x42N1xzWPV56gnSg98fnkgpPjp2Snnp1OPz3Umdx590z8mWtdUV29Z0PPnj8XdO5Mt1/3yfPe549d8Lxw9CL3Ytslt0utPa49R35w/eFIr1tv62X3y+1XPK509E3rO9Hv03/6asDVc9f41y5dn3m978bsG7duJt0cuCW69fh29u0XdwruTNxdeo94r/y+2v3qB/oP6n+0/rFlwG3g+GDAYM/DWQ/vDgmHnv6U/9OH4dJHzEfVI0YjjY+dHx8bDRq98mTOk+GnsqcTz8p+Vv9563Or59/94vtLz1j82PAL+YvPv655qfNy76uprzrHI8cfvM55PfGm/K3O233vuO+638e9H5ko/ED+UPPR+mPHp9BP9z7nfP78L/eE8/stRzjPAAAAIGNIUk0AAHomAACAhAAA+gAAAIDoAAB1MAAA6mAAADqYAAAXcJy6UTwAAAAJcEhZcwAALiMAAC4jAXilP3YAAHJKSURBVHic7d13eJzVlfjx7/RRc5UsuUoOqUACAUOSTXYxnfRCKimb3jZ9Uza9bnrvvW5I6KRBQujkR8D0FrCNbVnNcu9Fbd7fH3fGyLIs3XPnnXnb+TwPD2Deq7lIo/fMe++556Q8z0MppZRS0ZYOegJKKaWUqp4GdKWUUioGNKArpZRSMaABXSmllIoBDehKKaVUDGhAV0oppWJAA7pSSikVAxrQlVJKqRjQgK6UUkrFgAZ0pZRSKgY0oCullFIxoAFdKaWUigEN6EoppVQMaEBXSimlYkADulJKKRUDGtCVUkqpGNCArpRSSsWABnSllFIqBjSgK6WUUjGgAV0ppZSKAQ3oSimlVAxoQFdKKaViQAO6UkopFQMa0JVSSqkY0ICulFJKxYAGdKWUUioGNKArpZRSMaABXSmllIoBDehKKaVUDGhAV0oppWJAA7pSSikVAxrQlVJKqRjQgK6UUkrFgAZ0pZRSKgY0oCullFIxoAFdKaWUigEN6EoppVQMaEBXSimlYkADulJKKRUDGtCVUkqpGNCArpRSSsWABnSllFIqBjSgK6WUUjGgAV0ppZSKAQ3oSimlVAxoQFdKKaViQAO6UkopFQPZWn3h1IMjtfrSStXL04G3Ar8F/ur2JVKwLwuLboX2v8HI3CqnNJtWHuRdfA4A19+ykZT5+7v7oGM/jFZ7JyiAtx4YAJoBz/krvQpYAPwE2F7lrJQKVO457r8ILvQJXanDLQf+APwDE2D63L5MCg5kobUb2m6A0Zl+zS98RiHVjgnm+4GU81fKAl8C1gKfBeb5MT2lkkADulKPOBvzJH4d8Lxxf3a/+CulMMF8Zj90/sb8eynv1zzDZxQoQupx5u8M4RrUfwl8HZgFfAxYgwnwi3yYpVKxpgFdKRO8r8cE87PH/flHgKvEXy0FHMhBcS90XgSkYaQFUiUfphpSKeAAJqgfVf6zYVyD+n8D15b/uRn4IOaJ/dvAUUcapFTSaUBXSfZS4J+Y5fVTJvy3y4AviL9iChjOQXEPPPqXkNkDw3PjHcwrUsA+oBlSjyn/2QiuQf0cYOO4f88B7wQeBn4KHOs8T6ViSgO6SqL/BO4CLgCeOsl/XwO8SPxVU54J5gBLfw+5TTDcCqkx95lGTeVJfQ6kHoUJ6KO4BPURTC7DZN4A3AecDyxzmaZScaQBXSVFGngb8BBmn/b4I1znceRAcmQpD0bKe+RLL4ZCP4y0JyuYj7cPmAMswSy9u30bHgJeMcV/fwVwG3Ax5kSCUommAV3FXRF4L+ap+/vA46a5/llIs9pTHozmTdDqugxa7oaRVqo5uxULw5BaiElnG3L+Kr/HJMlN5VzMiYQ/A6c5v5JSEacBXcXVDODDmGSqrwNdFmM+hvS8ecqDsZx5Cl14E8y4A0Y6hFONqRKPBPVWzFO7m/8GbrC47tnANcDVmA9mSiWKBnQVN63ApzCB/PPAfMtxfwD+V/xqpYyp0rLwFmi7Gkbnob9W44wCY+X99LmY/XU3ZwGbLa89HfgLcCPwQudXVCpi9M6j4mIB8EVMIP8kJnzYWgu8QP6SKdifgdZ/QfufYGw2eFkSv9Q+XgqT3uZB6tFAE66FZ4aR5zb8O3ApsAI4T/yKSkWMBnQVdUuBb2CC8oeAFoevsdzplQ9kYc56WPhHKM0pF47RYH6YFCYcV4J6A+ZJXR7U/wW80mEGJ2HK994HvNFhvFKRoAFdRdXRwI8wyW7vAQqOX+fZQK9oRKVwzIwBWPob8wejjdQnmJcYJUeJaqqrmpmmPcjW6/NHJagXIPV4II9rNbnzMR/gXByLqRG/GngHNexloVQQNKCrqDkB+D/gAeDNVBfXPgFcIRqR8mAoB8V90HWhefmRGa6FYzKyyz2ggRQeBUzOmas0MJQufwTxnD6KyO8d46vJPar8Z25n1N+H2R939WjgO5hVnfdjNgKUijwN6CoqngZcCNyB27LrRH/CNP8QKB9PSwGdl0Bmu2sVuNcA9yL+/UsBRU7gBlpw77QGkPNgdwbuaAFKTjeCLGaF5EmiUZVqcjN55Iy62yeTs4AtTiMfsRj4CmaV52PA7Cq/nlKBSnlebdbctH2q8smpmHPkz/Xxa3Zj9t5lvDQMZaDrKph9E4zMx+HZdgHQX/5nwbPpGLCYFu7nE3yCA5hYWI3hNBxIwSfWw5z9MJITTSiFCcU7MY1UZMxnE7y1mAKvDeKvAHAMLo1zjmw78D3guxxadlYpJ9o+VSnjHOBvmCYdfgZzcEqCS8GBDLTfC7P/UT6e5vTLen3577+wH+IBjcAoL+PHB3PKqlUcg71puKRcAycj+9/xgD9inrUvFr+4hzmj3ln+Cm6Z7w8ArxaPOrLZPNLh7ctohzcVMRrQVdg8HxP0rsQsq/rtOcB60YhKK9RZA7Dgj1CaAZ5w+9u4EKi0LVlhP8wDFvBELuVk+hjEn1/cUgo6RmBFC9w7G9Ly7mj/r/z3czEnDGRGzd9Sj8KkNLolyf0f8C3xqKk1AR/A7LF/l0d+ZkqFmgZ0FRYvB24BLufwzmd++RSm4Ii98UlwSy7CZLQ34fB0/gHgJeP+/Ra7YR4whwzdvICL2SF91WlkgEYPLmqDoQJkR0XDx/8/fBFT0MVeChPEC1Unyb0HU/rVbzngv4BVwM+R5gsoVWca0FXQXg/cA/wOeEoNX+cvwKdlQyYkwWW3uSbBnYpZwq3YikmKs5AGGjmH37CIUXZSXVr/RCVg9gj05+CquZiqbvbDb+PQ1f8rAVnd2xRmuX0W1SbJnYn5vtbK6zDv099izrUrFToa0FUQMsDbMU8+P6P2Tz49mKV2GS9jUskXXwWNq1y7p7VjcgHGW4F12CqSYoBjuYOdiH5h34ZZFZhWKWV26B9uALKivfT9mFMHFTngOvsplpWPs6U6MN8tt6IzBzAfnGrtPMzP7xLgGXV4PaWsaUBX9dSAOUO8BpNNXK+9yeXiESlMElzbQzD7/8FoG45JcNdhAt14/7Qf3kIHPcxmRNrb5BscuiowpaYx2JGBXTmkT8gT/18ej+mQJlNJkluCaavjliR3H6bXfT28CLgJs/Ij22pQqkY0oKt6mInpfLYG+BrQWcfXfj6wTjQiBezPwYzNsOgyKLWUa7SL/Q54wiR/LgjoebpYTTMHc8hsNPBI5bx5NgMKJdiSh9480t7lk/2/vAzTIU2mvH+eehTVVJL7NaZoTL08C9PdTTu8qcBpQFe11IbZt16DrPOZXz6LOVplr5IElx+GzguBkmsS3HsxiX4TjWKd4Z4CRumg5+C/WVo27p+favtKQ8BgAen/6pGS+76KdGWkMonqK8m9i0cy8Oul0uHtJszTu1J1pwFd1cJCTNbzGkx5VUnnM79cWX5te6lyEhxA12WQ2+iaBHcKpgf7ZO4Edtl9mTywlQ762C97/ace4Z+PyMPsC/QUgYyoJu0A8NAR/ttfsVwhOGh8ktxiqq0kt81pZHWegdlfvx14VQCvrxJMA7ry01HAt6mu85kfenFZ/iyVk+AWXQ9N98JIh0sSXBuHJ8GNJ1hub2Qmg3SwUVpIRhzQAZpL0FeAobz4M8yRntILmMJAMv4kye0DThOP8s+JwG8wxW/eFOA8VIJoQFd+OBb4KfAw8E7Mo2WQljuNOpCBtgdh7rUw2u762tcydec3y/PnAA20M8AMxHXbxwfxZVj+PApjsD0Lgzmk++hT/T8dgyn+IuMBI1Unyd0DvFY8yl9HAz/mkQ5vExMklfKNBnRVjRMxN+v7gDcEPJeKF2JWCOwdbIe6GRZeXq4El8Vh3/w3mA83UxEE9DRLWSntrPY4TL34ihZMhzqLVzOlYHvk++jTrTq8Eni36CuCX0lyvwK+Lx7lv0qHtzVohzdVIxrQlYt/Ay7C7BP60fnML/+LqTRnb2ISXMo5Ce5dTL9nug7TGMZCBtjFQtZK49hkS+zWy+4esKFgXlDwmvcxfeezbyI9t+1fktx/IdrqqKlKh7e1wMfRDm/KRxrQlcSpmLaj/w94ccBzmehvmMYa9sYnwXVWlQT3dOzqiQuezotk2UIbg9KEuKdN8mfWAb3Bg415TGKc/WcaD7jV4rqrkCZIVnqoz6LaJLkzwffKudWYB3wGE9g/i8kWUKoqGtCVjXMwN+Nrcam4Vnt9VJMEt/AGaHZOgpuD+d7YEAT0GSxmHfMYriYhrsK6pG7jGPTnYVMBP86jT9SAS5Ic+JEkt5dgk+SOZBbmg+hazJP7kkBnoyJNA7qayguAGzBHwM4MdipTWo70ue1gJbgHofWaapPgGi2vtVz2NYfIOuijiOh/bA7wxEn+vAvL/u85D3ZmTVAXfkdtP6w8Cfil6CuDmUv1SXJ3YXoHhFEjZm99LWbP/3HBTkdFkQZ0NZnzMEuolwH/EfBcpvMiTKKRvfGV4KpLgvsFcJzltbswAcVCGjjAQtZSQhS3nsKRf6etl91HgUH5OYUV2Cfj/ydmX9ueqbHjR5LcL4AfiEfVTwZTh/8hzFy1w5uypgFdjfcGTILTb4GTA56LjS9gPnTYOywJbsw1Ce7tyI5E3Yp19dYiGQZZwlpp/fbJ9s8rrAN6HqcCM7sxRXNsfZep53u4SpJcQzmoe7gmyb0duz3/oL0Wc/TufLTDm7KgAV1leaTz2U+Z/thVWFwFfEQ0YtIkuFaXJLinYprLSAj2z5uYzUbmslu6f+5LQG8sweYcDGd9KzBzJH9HmuWdwpSMmU217VbPAHY6jay/V2BWQC4F/j3guagQ04CeXJXOZw9T385nfhgguCS4mZhAJCU4NlVkAb3ShiwZpn6KezKWlfuKY7ApD+sLsgkgPxrWhGlqIlMuD5uaj8kVd0uS20M4k+Sm8kLgRkzN+DMCnosKIQ3oyTMT82S7lvp3PvPLcqQ52OPboVafBNcsHFPCeonXbBZ3sVKy3A0mYM+c4r/nsNxGSQP7U7C+KJsA8id0MEVvfioeVcK0W+2imiS5O4E3ikcF71mYD5XXAM8OeC4qRDSgJ0el89laTAGWjmCn4+zFmDKa9g4mwW2BhZdVkwT3Eyyrrk1wL9aNQrLAThbQw5DsNWz2o60btaQpn0dPiW4S65FW6TPeALxFNKKSJEfVSXI/w5RmjaLTgD8D/wDODXguKgQ0oMffYuDLmBvtJzBHm6LqS5hOVvYqSXCFqpPg3oL705xgKbqBRjbRymbp/rnNWXPrffSmEgzkoZSDtD/tVKfzQ6SJmBOT5MA1Se4twG3iUeHxdOBizIrDawKeiwqQBvT4egyP1I7+APJl4rC5Gvgf2ZBxSXBLLofcoGsS3DJMwHElCHItLGIdrYz6UVBmopOxDHcNJdMbvbf2++jjXY1ZQLc3PkmuukpyZ2Dd1ja0noypXf8v4M0Bz0UFQAN6/ByLWUZcRXy6O23AVKuT8SpJcDdC8z2uSXAtmL3KalgGdA/I0E4/eURrCEswrWunMw/LUwxZzzRqGczJJoL7Ezq4fq/9SZLbBZwuHhVOTwB+RHi6H6o60YAeH8t4pPNZWKthuTqV4JLg5E+Nh+rDfLiykAH20slqRhDFJMl5but9dA8YKCJt1HI31dVMX4YJRjKVJLlOqkmSux3pXn64HQV8m/is0qlpaECPvqdjOp/dRrg6n/nlZcBK0YiUNyEJrgU8+aMmLvu6hxMsQTeSY4BFdLNX9hrWe+MI6roXvHIJWFmBmVHMmelqvBlpvoJ/leR+jEvWfbgtwuTRrEE7vMWaBvToOg3T+ewfhK/zmV++DFwoGpHyYChvKsEtqSTBNeOwsSrPvJ6cYAm6kTY2MJvhWmS4V1gH/2IJtuRgd5ZaNGqZjvxEwZGS5OTeBNzhNDLcxnd4+xza4S12NKBHzzMxVdKuIZydz/xyLfAh2ZDxleD+APlKEpx43/zJ+PeUJtg/L7KIbpoQffxoxszX1jGYG/u0iiXYnC+fR5d9C6vZRx/vWkzxGXuTJcmJF2YAs5++22lk+M0CPooJ7F/HNO9RMaABPTpehKkSdQXh7nzmh41UnQR3t2sSXCOuLT4PtxezL2shA+yni1XStYSTkCc9WT2lVx54ewvCr24CuvgbP4mZBFdJbifxr8bWCLwXsxT/Q+DxwU5HVUsDevi9CrM/fgnJqeO8HPvOXcbBJLiVfiTBzXIdPMFtmGdECzlgO+301XK5vcI6MS5HucBMWrSPvgPTVMQPLnXzH2m3Wl2S3ApM57O4S2O2lx5E1kFQhYwG9PB6I3A/8BtM5m9SvALTOtKef0lw8g5gUxMlxM1lgFa21+L8ufOY5hL0FUxtHuHxfT/20Sukne1M8B4B0lUnyf0Q+Ll4VHS9FnNS4Xyi0XFRjaMBPVxymLPjqzBJQccEO526+xrwe9GIg0lwI+VKcKOuSXDyHt3TEwS1JubTw2w820f6Cpeb7jIsl+kPNmopIk0w82sfvUL+5JjCLLc3QGpp+c/ckuTegKw1bBy8AtN/4DLgPwKei7KkAT0cGoH/xhSC+A7R6nzml+uB98uGeDBarpvTefm4SnDi7dsnAr+UDrIg6rndQZ+0IcuxuGUqt2CZQV5p1LJJWOkG/wM6mNyGBtGISpLcHMzhreqS5PY4jYy2FwA3YHJ34p5TEHka0IM1C5Ntugb4KqbiVxJtAs4Wj/IyMJKqthJcEbhO/NrTux/z/2XBNGTpYqX06dxluV00ttKopa+8jy64YTwM9LhMbApzcGldW0mSW0A1SXI7iH8y6lSeiXZ4Cz0N6MGonAddgzkPGtXOZ345FevksbLDkuCsTmJN5u/AXNfBUxCdP29gA/PpkxaUsS4SMwlRo5b1RbMYkpbtZNTiKf3pmOpnMv4kyd2C/9syUVPp8HYz8NKA56Im0IBeX0uAr2DOf36caHc+88t5mGYS9iZNgnNqh/pN4BnSQZYEwayJeWxgpnz/vJoEPusPA8USbMvB5hzS1IRaBHQw9clfJRoxWZLcMC5B/fuY/fykexpwAXAXJv9EhYAG9Pp4LOZGsBazTywrlhFfXwd+JxpxxCQ4cTB/JfBu6SABQUJcli5W0YgoXs6juqTJLmDpdBeBadSyJwMDBaQB3c9M94l+g2WjmYMmJsmN4Zok93pMJriC4zH5J//CHH2Tf0RSvtGAXltPxHQ+W4k5zyrMeYq1GzGJgAK+JcEdg2lkUyuDWK86mPItHfQxhuhuWM3+ufhrDAP98gIzd1LbRLLrANmsyvvpzKbaJLnTQLpDEmtPwBzxWw28C+nPRflCA3ptLAN+C9xL/Dqf+WELcJZ4lD9JcHlqkwQ3niC7vUCKzcxnPftkr+FHQLdeds8Dg/JGLcOY4jq10oopgyw3BKmF5a/gdj59Oy7v4fg7CvgWJinyg2iHt7rSgO6vZwAXY25i5wU8lzA7FYQF0fxLgrsKaHMdbEmw1NzCfNbRzi72y17DjwI41l+jecwUmNmdF3+GquWyO5gz0l8Xjyovt6e6MBtgbpnvN2P289XhFgFfQvOF6koDuj8qmZ83AecGPJewezXmSJe9ShJcy9Zqk+C+BpwiHeRAEMSKdNBPM6Lt3AL+VA98MuZM+vQvWE6M6y0QROe16bwXUwjF3sQkuQyuSXLfBX4lHpUcbTzS4e1/gfnBTifeNKBX51no2UyJbyHdu540Ca4Jh2D+cuB90kEODmDdkAVglPn0kEIUS07An6XMHJaV5ir5ZBvlBWZuFY9wcz5mH9depftMU9VJcq/Fv9r1cTUT+AgmsH8TszSvfKYB3c2LMX3I/4JWT7J1E/Ae2ZAJSXD5DeUkOHFZ18cjzaZ3dwfYbofnga10saoe9dur+lqVRi3rC0BGdOPYjHRFxt11mGnaqyTJzcWPSnLCNIhEKmJOlzwM/AjphzA1JQ3oMq/G3LAvwhS4UHaqTIK7qZokuCymrGy9iBqyzGCQNjZL98/rHtDBNGrpLcABeYGZeiy7gymD+1enkdUnyW3Fpdphsr0Zcxrkl5jjb6pKGtDtVDqf/RrLGtjqEKeB8CG0kgTXuhJar64mCe5vuNU7dyWqENdBPzOQ9or1NaCfjGX4KozB9lx52V32uapWBWYmcxrwZfGo8Ulyjbgmyf2D2tY2iKv/xBSo+T3VVT9MPA3oR1bpfLaaZHY+88trgPtEI8YnwS0qJ8GVnJLgvoS5wdeTIHhl6ORhiojqtRyFvzX/52FZoCUN7E2XC8wE36hlKh8AXiIaMT5J7ijMuo5bkty3MUVvlNzLMO+Vy9EOb040oB+uiUM7nz062OlE2neR3tyOlASXEgfzF2POwdbTSqDf7tI0sJ92ehml7gVlnL9mClhXNP8guHk8CGwQz6o6FyLtWjg+Sa4L8ynLLUlO/iFWjfd8tMObEw3oj5iFdj7z0/9DfEZ3fBLcH6pJgnsMJs+h3gRPog1k2cBCuqXlxmoR0O3runswmAOykA73UzqYoCCrzjg+SW4h1VaSE+Y6qgkqHd6uBZ4X8FwiQQO68QrMcYrPUd/91rjaRtVJcHe7JsGlqW8S3HiCoNXCYtbSxnAQBWUmsv6QUByDrflyo5bw7qNXzAeudBpZfZLcFjRJzi+nAn/AvIesjlkmlQZ0U1zjfEx1Z+WP05Ae4TmYBLeq2iS4vwILXAdXyTKb2wPytNNPA6L985nAcQ7zms4xmL30aeU92JaFbuHEqV+m+0RnAp8Xj/KnktyNmKI3yh9PwdQ1eFTQEwkrDejSNoxqOq9FWmTjsCS4ZtckuP/F3MCDsBVTu99CGhhiIesoIYoTT8Gka9WC1VN6JXdsIC/++rcT3BL0h4EXikb4V0num5i+Dso/bw16AmGlAd08oSt/fA9pGczDkuBGYLTFJQnuBZhKVEERVEQrkmGQJawJoiFLVV/bw9Sd3ZhD2qhlP6IKer67FOmT3cRKcu5Jcq8CHnAaqSbjR9njWEp6QC+gezJ+uRlzzE9gXBLckvFJcOJ980cBl0kH+UxUUGYOg8xlV5AV4py/dvOYaaW6Jxe6Ri3TuRHpM3YlSa4VP5LkZA2J1JEsQ1oRMCGSHtBPwOyQqeq4tZL0MjCcggX/gJa7XZPgwGQzB00QrArMp1fakCVNbT98LsPUop1WvgQ7cuV2quFPjBtvIeYolNyBqpPkNqFJcn5pQQt8TSrpAb0WGcNJdDoIT1+lgKEMzF0HbdfCqHNH0yswVbiDNIKo73eKRaxD2OfkSZjDVLVifZNMA/tS0FMk7AVmJnMO8FnxKH+S5G7A1LhQ1fu3oCcQRhrQVbXegCnbaC/lmYLgjbtg8cVQaoBSDoe1zM9gzqoG7U5gl92lGWAP7fRKH/Rqudwueg0Pk5nXLW/UMgA85DIxn30M6blm/5Lkvo4pcaqqo/fuSSQ9oOunvOr8EPi5aETKg+E8ZDyTBJcegtFmlyS45wIflw6qEcGTZxON9LGI9WEoKDORdYGZxhJszpvDCMICM0Hvo1f8AegSjZgsSc5ph4hXYKrnKXd6755EkgP6YwjuvHIc3AK8TTbEg7GcuREu+RMUe2BkrksluE7gj9JBNSQqKLOQbubgSTOkQvOEDlAowZZc+fiaLPM7DMvuFfLci4lJckO4JsmdinnGV24Woj3VD5PkgK7tT93txOW8dyUJbv6tMHMFjLQjrU5SFoYkuPEsg5QHZOigH2F/kwXA4xzmJdUFLLW5MOfBrgysayCK++gVS4A/O42sPkluI2Y/X7nTe/gESQ7ougfj7nRgj2hEJQluzjpovxLGWnG5C2KezDtdBtbIWqDb7lKzf97FKkYI3f656LW88l+DOSAl+n+5D9jsMrEaeTbwSfEof5LkrsN0hlNu9B4+QZIDuu7BuHkTcIdoxGFJcI0wJu/Bidkzf650UI0JnjgLwDba6JeeP6/njcu+rrtX7o2eMSkRljxMEZ4w+RTwLNGISpJcpuokua9iOsMpOb2HT5DUgN6G9jd38SPgp6IRkybBtbjsmz8Tk9UeNoKA3kw7fbSyN0wFZZxfq6lcYGZz9M6jT+YvSDsspjBP5tUnyb2McGT/R80Tqe1RzshJakB/Go7rvQm2AnENZd+S4BbjWhCk9kQFZbpYSQvm4c5SEThROqkqPBlzJn1aOQ92ZqG/SFQatUznevEI/yrJnYprYdnkSqHL7odIckBX9nYBZ8iHVZLgVpST4ObhmAR3vcugOtgJ3G1/+Rjz6SWF6NPkSUCDbFpVyWFZka6y6jwoL8K5gnBmeC8FLncaWUmSm4trktwgmiTnQu/l42hAVzbOAHaLRlTaoc7phvYryklwTm+3ywhvu8QVWD9V5YHttNMnPa4WxHvVOjEuD6wvIm3UsgdpMaL6eT7wUfEof5LkrgE+JB6VbHovHyeJAb2IduuReAuisqZMSIK7qJokuI9guqiFlWDpuIk59LCIQWlBGetiLz6y3kdvKMHmHAxnxTspYV12B/gc0rrr/iXJfRm4SDwquU7CZJsqkhnQtSGLvZ8APxaNOJgEB3ReVE0S3FmY/uZhJgro8+lhBqL9cwgmoJ+MZShqGDNJcb0FpAlhYQ7oYHI2FopG+Jck91JgldPI5GlGG7UclMSArkcd7NwOvFk2ZHwS3B+huN41CW4BcKV0UJ2VEB6/6qCPLKJ1ischDSr+mIflKZA0sD8F66LZqGUqafxKknOzHE2Ss6XL7mVJDOj6w5/ebpyS4NJ+JsGF/b15N6ZtrIUMsJtOVoe5oIzTa3uYH9TGPJAS/dB6gDUuE6ujRwMXO40cnyTntp++gXA0HooCvaeXhf2mWQv6w5/eGZgMbnsp4EC2nAR3ZTVJcBdh6uyHneAJs0iGLbQxyH7Za4Q+oAM0eLAh2o1apnIuLolq45PkGnEN6lcD/yMelTx6Ty9LWkB/LDA/6EmE3Fsx2dv2JlaC8xpck+A+CLxYOigg4oYsbQyFuULcRNYBvXHMBPS+AlFu1DKVLyJdsRqfJHcU1STJfQm4RDwqWRZiVlMSL2kBXYv5T+1nmGpw9g6pBHcRpA/AiFMS3OmYm1dUCJ4uc3SxigZEOVJzMJWwgnIMZi99WlkP9mZgUP4ZLgpP6BVXAh2iEf4lyb0YWO00Mjn03k7yArouzRzZncAbZUMmVoJzToLrIPxJcOP1Ag/bXZoChumgjxLi/fOgfz9FjVo25M2/C/4f7wF2SCcVkCzVJsktoNokOaeElITQezvB3zDqTT/FTW4P5glZyLckuGsxFcqiQtiQZTPz6ZXun4fhBmXfH92D7iKQhYz9W2CM8DVqmcrjgN87jTwAqUWYdRe3/fQBNEluKnpvJ1kBvQ04OuhJhNRZSJ+UKklws7urTYL7HfAEl4EBEjVkmc86OtjBPtlrBJkQVyHaR9+Yg+054lLX/UheBrxfPKqSJLeUapLkrsKlil0yHINZB0m0JAV0PX8+uf9CelMdnwS3pKokuPcBL5cOCgHB96uBDvpoRpQvlsVUwAraMkx112nlPNidLe+jywJ6VBLjxvsKZgncnn+V5D6PKYesDpVC7/GJCuhhWMIMm18A3xeNOKwSnHMS3CnA16SDQmAv1v3gzV18AT3ShixPBmbKp+a7FiyrcKWBA5UCMzK34poqFqy/YZk0eFAlSa65fJzNPUnuRYT/DH8QwrCqFSgN6Ml1F/B62RDfkuDaMDfEKLoN69SmLLCLRayV5kKF6cYkatTSW8A0arFfrNmBSY6Lmjwm90OmkiTXhh9Jcm6NWuMr8ff4pAR0bchyqL0EmwR3HdFtqHCz/aVFGthMK5ujVFBmIuta8pVGLSPxatQylWOA3zqNrD5Jrg94ltNrx1fiG7UkJaCfiElFUcZZWJctLZuYBDc6F8e3z/9hWSc8pEQFZZawhjZGpQVlwhTQredSLDdq6U7GPnrFecB7xKP8SZL7K/Bx8aj4asLc6xMrKQE98Usx47wD0VMmZt98aFwSXKkBPKckuHcBr5QOChEP0TGrDItZQx7Rd2oJ4er/3gUstbkwg2nUsjFP3DPdJ/oG8O+iEf4lyX0O+IN4VHwl+l6vAT1ZfgV8TzQi5cFI3rxTOi82SXCjLTgstT8D+JZ0UMjcD2yyuzQN7KOdPkaJTEOWIxE1aukvmH8Q3FzWYJq1RNnfMK1Y7PmXJPcCYJ3TyPhJ9L0+KQE98ccZMIlHr5UNKSfBjVFOgut2TYKbizlDG3WCpeEGcgywiPXslb1GGG9IokYt64swmoN0sp7SGwg2Se4U55HxEsbfn7pJQkB/HNIazPGzj6qS4G6rNgnuGswNL+oEAb2JNgaZwwGGZK8R2Sd0gIYx2JKFLfICM1HeR694EmYVTK76JLle4NlOrx0vC4hGt8aaSEJA15KAcDawVTTiYBLcemi/Asack+B+CRznMjCELIOOBxRYwHoaEa2iNmPOoIfN8Zgz6dPKerA3C4PyffQ4BHSA12DyVGTGzF+pTsyZHLf99CuAT4pHxU9i7/lJCOiJXoLBJKL9QzTiYCW43Y8kwZWckuD+C/hP6aCQ2gD8y+7SDLCfpayUvsbJhPPYTR4zt2lVcr3WNjzy75buBHZLJxZS30G6zWd6+ECunCQHSJMvyj4D/Ek8Kl4Se89PQkBP8v75bzA3F3uHVIK7ENL7XJPgngZ8VzooxATZ7TlgJ+30Rfm42kTWiXEFYEMB06jF/jPgMKZoT1xcBcwWjUgBQ8AMSC3BfDJy66/2PGC908h40Cf0mJpHchuy3ItZ/hOYrBJcq0sS3Gzg79JBISeq3z6LQVrZnriADmYffXPWLL0n7PjaeE2Y3BG5A0A7JvNH+AYaJ8lJckeT0EYtcQ/oSV16OUDVSXC3VpMEdzXmhhYngmDTRCermUNJmrRsXZUtACdjuQBcLFeM6y4iPYYVp4AOJh/iZ+JRJWC4/JQ+G/PULl96Xw88RzwqHhLbqCXuAT2RP1RMJbgtohGHJcE5t0P9KZYNPSLkAHC7ZMAC1pNFlHVwLNJmH/U1DzPHaaUwnwt75NkAtxK/+uSvB94qGpHC7J975UpyBVyT5P4CfFo8Kh4S+TAX94CexB/qe4CbRCMOSYK7qJokuLcAb5AOioDbwbYcewbYTTt90ntwmJfbK6xWEDxMW5qNeaQFZrZgtori5gdIV18q++kTk+TkPoUJ7EmTxHt/rAN6A8mr6/tbpNXYKpXgDrZD3e+aBHcS8EPpoIgQLAU3UnQrKBOFgG49x6YS9BVNxeC0bNk9LsfXJvo70pa445PkOjFJcm7rF88h+pX4pJZhDgAmSpwDetIastwPvEo2ZHwluD+XK8E5JcHNwOybx5WooMw8NjCLUhwKykxkPcfCGGzLwKC8wIzgNEGktOD6O3IAs+GhSXISiWzUEueAnqQllyHgNPmw8Ulwt1SbBDfDZWBECArK5OlkLQ2IvpPziEYHuqOx3OfPAPsy5eNrsqfKuCXGjbcM+JF4lD9Jct2Y42xJkqQYAGhAj4uzgc2iEf4lwf0Qs9weVyuBAbtLzf55Fyvj0JBlMimEe8HrGswowffiIUwRn7h6M/BG0Qj/kuT+BHxWPCq6khQDgHgH9KRkuL8PuEE04mA71KqT4N6ASYSLM8ETYwHYThsb4nT+fCLrm2TRgw15TIGZZJaBPZKfIF0Onpgk5+GaJPcJ4EqnkdGTlBhwUFwD+uMxpRni7nxML2Z7h7RDrSoJ7kTMEbW4E+6f99PKbmlAj9KThPWHj+IYbHVr1BLnZfeKq7Gsj3/QxCS5YVyT5J6FaeYSdx2Y5lyJEdeAnoTSf/8CXikb4lsSXDPxToIbTxBciixlFS2YhGRLeczealQsw8x5WnkPtuVMO1UN6IeZhWs1xUolufloktz0EvWUHteAHqUnHhfDBJsEdxXmhhR3W4D77C8fZT69pBBtb56I+YAUFS1YFg6qbP32W4X/QwjO/UfaU4DviUeNT5KbhWuS3DrgBeJR0RP3WHCIuAb0uD+hnwNsFI04mATXU2071O+SnF+SW7Be1MwBO2inL47H1SaybtSSBzYWgIyoUcsB4tWoZSpvB14nGjE+Se5RVJMk9wfgc+JR0RL3WHCIOAb0dsweelx9ALhONCLlwXAOivth0eXgFaBUxGED7rWYlqhJIdg/b2YWvSxkgH2y14hiQLfOdG8ag94C7MmJd3binhg33s8xPeft+Zck93Hgr04jo+FooC3oSdRLHAN6nJ8eLwC+KhviwWh5zbPrEsjugJGZOCy1Hwf8Qjoo4kQNWRbSw0yIU0OWI7FPjCuZxLgeeaOWJAV0MJ3ZZIWw/EuSeybQ7zQyGhKzj64BPToeAl4uG+KBlzUZWov/Dg2rXJPgGnFtBRld4v7cHfRJG7IcBXSKZhUOXcBSmwtTwFCqXNddFmySFtDnYHJT5PxJkvsP55HhF9eYcBgN6NEwApwqH5aGA2lovxdm3wSjzi2C/wbMdR0cUXcBu+0uzQC76GIVI8SyoMxkrPfRc5Q7r2VEN5wNwIMuE4uwpwPfFo/yJ0luLfAi8ahoiGNMmFTcAnoj0ToCZOuZwKBoRAoYysKsDbDgj1CaYZ7W5Wty3wSeIR0UA6KGLAU2MJ9eaUOWKN9oRI1aerVRi613Aq8WjfAvSe4y4AviUeGXmEYtcQvoJ2K6rMXJB5Eud1eS4Ar7ofNC8DIw2oRDMH8V8G7poJgQ7Z+3lxuyCPfPY/+EDo80atmoBWZs/Rp4omiEf0lyH8F16T+84vqgd5i4BfQoP/FM5iLgK7Ih5SQ4D+i8BDI7YWSWy775scBvpINiRND1K0cXq2lAlPc1E5NoGFXHY1nprNKopU9+sCKJT+gV1yJ9qvSv3eo5xK+eftxiw6TiFtDjlM24CnipbMi4JLglf4fGVTAy1yWYF0heEtx4a4H1dpeau2gHvZQQrXI+BcjKpxYaeeBk24s9YKB82ELwPbofadOh+GjF9ThZJUnOvd2qR/yS5DSgR1BcfmijwHL5sMmS4OQbaZgkOKs2mTElbMiyhQ56paXN4vBetV9292CwgGnUYv/U6JHsp/RTgK+LR/nTbvVh4MXiUeEVh9+3acUpoD+B+AShZyFd8josCW6maxLc10hOnecjERWUmc865rNdGtCjeP58Iuv/h8YxUwJ2SwE9jy7zXuAVohH+tVu9BPiSeFQ4dRDvgmNAvAJ6XEr8/Q/Spg0Hk+AOjEuCa8QhmL8C04416QRP6A100E8zooYsaQTL1SFmHdDzHuzIQl8eTYyTOx9T8czexCQ5cE2S+x/i04gpTluyk4pTQI/DkorDJ+JxleA6L64mCe4JmBtH0u0A7ra/fJT59EgbsjyJeJzrn4dJnpxW5aFxUN6o5TbExfdi6Vosu9wdND5JbgnVJMmdjfTYbDjFIUZMKU4BPeqfvhz2rCZUgmtc7VoJLoe5YShYgfWicA7YRierktCQ5UhEjVrWF4G0aB99D3CH08zipR240mlk9UlyJeKRJBeXVdwjiktAj/r+yBiuSXBD45PgnB/6rsR8D5WwoEwLG2hnUxIashyJfYGZMRgowt6CNmpxdBrwZfGoEjBSdZLcauAl4lHh8gRi3qglLgE96k/nz0LaHKGSBDez6iS4LwGnSwfFmLigzAxE++eQ0ICeL8GODGyQ76NrQH/EB5AeZ01xcLm9yiS5i3H5QBEusX5Kj0tAj/INUl6ZaXwS3JKqkuBegqlEp4wxzJK7pQxdrKKIKD4tBB4nnFeYHY3l6ZIMsC8FvRrQq3UB0vdQZT89X3WS3IeI9vZc1B/+phSXgB7VZAeH2skTkuCyzklwjwUulA6KubuB7XaXmoYsS1gtfdiJ8ofPyaQQNmrpLiJt1NKDyTFRj7gWaWGiFGYPvfokubOATU4jgxe3379DxCGgR7VO7xrE3Y3GJcEtqqoSXAa4TjooAQRPggUybKGNjdLz53G8oYj6o28qmLdxWo+vVWMBcIXTyOqT5MaIbpJcHPt9HBSHgB7FTjolqkqCuw/mVFUJ7grMDUEdShDQZ7CQHloZkt4To7qaNBVRQN+aK5eB1WX3ap0JfF48qlJJbjHVtFtdCbxMPCp4UX0AtBKHgB7FG+SzgT7RiEOS4P5QTRLc/2KWzNThBE+BObpYRSOiwmcNmCeEuFmGWU2fVs6Dnenysrs+ofvhw0hX+ipFAag6Se5C4KviUcGLYsywogG9/j6OtOmCf0lwL8Qk4anD9WC2QSw4N2Q5ieitJtlowfKDilf+a4O8Ucs9WOc3JM4lwKNFI8YnyS2lmnarHwCudxoZnKjFDGsa0OvrD8DnZEN8S4I7CrhUOihBRPvnaTYxX96QJY775xWiZfdKoxbBPnoJUUvbxLkO6f28EtRnVt1u9Uyi1RUvSjFDJOoB3frITAisBV4gG+JbElwKTYKbjiCgNzKbQdrYLt0/j3NAt67r3lAyT+jb81pgxkeLgD87jaw+SW6UaCXJtWOKzMRO1AN6VIoEeASbBPcXYLHLwAQRNmTpkzZkgXh0WDsS+wIzHuzMluu66z66n54JfFY8any71VmYoC6/zTyEtCtcsGJ5Hj3qAT0qSyfPAXpFI1IeHMjCjE2w4HIozXBNgvsM5hddHdke4E77y0ssZSU5RD+NxxPvkwVd5b+mlcbEjG55NoGgzn5ifQx4nmhEJUmuVC46U8Q18/33wDfEo4KhAT2EovCE/kmk50VTHgznIT8Miy8G0jDahEMwfy4mCU9NTdDRKwvsYiHd0ntenJfbK6w+YHtAwYMeeaOWHYg64SXWH4ClohEpzG9AvryfDq5Jcu8DbnQaWV8a0ENmPqbaWZj9CfOELODBWM7c9Tovh/xGGJ7jsm/eBfxROiihRMvtRTYzl83S7cY4L7dXWH9oaSjBlhyM5MRvbV12tyPPmalUkptdPqM+jGuS3BnAVqeR9fN4zF56rEQ5oId9ub0b6dIXYPbNU7DwRmi+H0bmuQRziN5RkiAJgkQLi1nDPEalGe5hf7/6QZTpvjkHvQW0wExtdGIeKOSGMAly7SB9k5eNAKc4jayv2D2la0CvneXiESlgfxbaHoLWa2F0Do5JcH/E/EKr6XmIgkSGTh6mgOjhZQ7wROG8ouh4oNnmwkqjlnVFpE+B+oRu7zmYLT+ZMWC0nCQ3E9ckuQeAV4pH1VfYY4hYlAN6mD9dPRdYLxqR8uBADmZsgUWXgdcIJWHYMD5Rfn1l5z5gi92lKWA/7fQxgnj/PMq/a7byWG4teJhvyMY8kBJ9L9ci/d1Ktk9h2jPbq7RbTZeT5PK4JsmdD3xTPKp+NKCHRBNwQtCTOIJPIz0PWkmCyw1D54WQGoWRGS5L7c8sv76yJ3g6byDDIAvoYZ/sNZKQEFch2kcfzEMpCxndR68l+bHVyn56sRzU3SvJvRf4h9PI2otdo5aoBvSwNmT5C+YTscD4JLg/QG4jDLdCSnw6Z3H59ZWMIKC3sIi1zGO/7p8fmSigbyjAgLyuu+6jy10vHlEJ6rPKy+/VJcltcxpZWw2YcsyxEdWAHsYb5HrMnpXQ+CS4+6pNgnPacE84wdNegQ76pA1ZssTspjGNk20vzHmwO12u665P6LX2KOByp5GVJLl5uCbJDRHeSnKxWj3TgO6f5eIRB5PgVpokuDHnJLjLML+wSmYDpsKVBbN/vohuaUOWJ2NSi5JiHpYJgJVGLQPyRi13AbulE1M8H/ioeFQlSa6TapPkXi0eVXthjCXOohjQU4Tvh/B8zDE1e5UkuJZxSXBjTklwH0FcI16VCZZuc8BO5rOeIdlrxOoJwJL1mfu8B31FICMqMDOCqRqn5D4HnC0aMVmSnFu71f8DviMeVVthTq4Wi2JAPxpoC3oS43wOaQGXlAcjeciNQNeFkBpxTYI7C9PfXLkRLN02MpNB5mpDFhui8+hbcrA3hy67188VSMsQj0+SW4r5Wbklyb0LuNlpZG3Mw8SUWIhiQA9TudcrEJdW9WAsa34hOi+vJgluAXCldJA6hOAJvYklPMxcSvqEPj1RYtymHKwvIq3Srolx7tK4lGf1r5LcaYSrt31sntKjGNDDstzei3MSXBoW3gTN91abBBfFn19YHABut788xSLWIWyPs4Rk5jZYtzWutOReLz+zciuu4UQBHAVc7DRyCFN4u7okuTBVktOAHqCwPKEvR3pDOSQJ7hoYm4tjEtzFwGNcBqqDbsP6dpQB9tBOn3TrMCwfPustheVTuofJTqgUmBHckLYA9zrMTT3iXOBD4lH+JMndB/yneFRtaEAPyHzCEchegKlYZe+QJLhLwWtwTYL7IOYXUVVHtH9eoJ9F9LBX9hpJXG6vsP5/bxwzme4jeUjrsnu9fRE4XTTCvyS5XwPfE4/y3+MwB/MiL2oBPQyfpD6PaU9o77AkuFEYmemy1H4a8CXpIDUpUUGZJayllTHp/nlSn9BBuo+eh/XaqCUof0Ma0PxLknsH4fg5hiG2VC1qAT3oG+TfEJ/jLCfBjVFOght0TYJrL7++8oflTcQDsnTQjzDeNGPOoCfVMsyz27QqjVoGtcBMUDJUU0nOnyS5HU4j/RN0bPFF1AJ6kJ+i+pE2OQAOJsEturGcBNfumgR3A6bqmKreQ5iiMhbM/vkSHpauKp6MZUCLqRYs+y1UGrUMFMw/CL7HK4EBh7mpwz0OuMBpZPVJcvtxKczlL31Cr7OgG7KcgvT5wb8kuN9jfuGUPwRPdnlgO/Po1/PnctYFZhpK0FOE0Zy4UUsYlmvj4qXAf4tH+ZMkdw/wOvEo/5wANAb4+r6IUkA/GSgE9NrnAmtEIw5LgmtyTYL7b+Bl0kFqSqLz5/PoZy679fy5nLjAzFYtMBO0ryJ9WvYvSe6XwA/Eo/xRJAY9F6IU0IO6QX4BuFQ0otIONTtWbTvUUzC/YMpfgiDQQBermIW5ZwlYP53GmPX3IOvB7ozuo4fEVUircfqXJPd2TI2BIER+Hz1KAT2Ib/bfMbXSBcZVglvyZ8g7J8G1ll9f+WsLcL/95WPMp0f6sHEsloVVYm5p+a9ppTEfmNaVu1MLvt934Lpzq44kh8nZkRmXJMdCzFO6m9OAXc6j3UV+VS0qAT2IhiwDwDPlw8pJcAtugRm3VZsEl3MZqKZ0C9b7HqYhS7vun1fDusBMwYP+ApCBtP3O1AG0UUstPAH4rdPIIUgtwDyS7Mdl6X0fwSTJ6RN6nRyDeXvU03Kk1aUrSXBz18K8v8JYK45JcL8lRg0DQkawRNvETHpYSD/7ZK+hAf0R4n30fTnxZ2BNjKuN84D3iEeNmb9SXZhUZregfhfwRvGo6kS+UUtUAnq9jxS8BFgtGlFJgmvaCYsvqaYS3Lsxv0iqNkQBfRE9zEa8ehj5T/o+sv5eFEuwWRu1hM03gGeIRlSS5DKQOgpz2NYtSe5nwI/Eo6oTltLiTjSgH+7LSJsWjE+C67oQ0vtcK8E9A/imdJCyNoyp4W7BnI5up0/akKWdiH/K99lxmDPp00pjjjQP5pF+DtaAXltXA3NEIyr76U3lJLnyU7uDt2L9O+uLSH8Yj0pAr9enpmsQNyuYkARXWA/D7S5JcHMwvziqdu4E9thdmgV20ckq6cOFLrcfKo85cjotU5MPessFZgQ3p0HgXw5zU3YKuCbJ7cdsli4C6bnPcU4FdjuPltEn9BpbADy6Dq8zCJwtH1ZOgpt/azkJbr5LMAdTejGoc/ZJIVhuL5BmC20MSlOoNaAfTtSopbcIQ9qoJWyOxTRTkTsAqYXAXFz30/digno9PJYIN2qJQkCv13L7KTgnwa2D9qqS4H4NPNFloBIRNWRZSC+tHJBmuEd6ya5G7BPjPNiWNc1a9Dx66LwaeKd4VKWS3FKqSZK7A3izeJSbyD6la0A3XgqsEo04JAnuYvCKrklw78D8oqjaEwT0PEtZSROiT3l54ETppBLAaskdIOPBvjT06T56WH0b6YdW/5LkflL+q9Yi+6E8CgG91t/crwAXiUYcTIIrQedF1STBPRX4jnSQcrIG6LG7NAUM0UEfJUT3nWWYLmvqUPMwS7ZWxoCBovlnwff+AWCzaFbK1TXALNEI/5Lk3ox5Wq8lDeg10kxtG7JcB3xQNmRcEtziP0Ox2zUJbhZwrXSQciZsyLKVdnql++da7vXIrJfdCx5szCEtMOOhT+n10oBru1X/kuQsk1udnIjZHIicsAf0k6hdC8pNwFnyYZUkuBUwc0U1SXDXYX4xVH0IbvbNtNPNfLZpQpx/rL83TWPQV4BtBfGvlu6j189xwM+dRlafJLcbUx62VgpEtFFL2AN6LZc+TkHaPuCQJLgrq0mC+zlwvMtA5UzUkGUBfbQg7i+hAf3IrL83eQ+2Z01Q18S4UHsd8DbxqEolueqS5G4D3iIeZS+Sy+5JDegvBx4SjTgsCa7gmgT3VoLt+5tEOzD9li2NMZ9e6S/HUcAS2ZBEORrLDl4pzAepQfna3G1U0xJEufg+gqRHwPyAh/EjSe7HwE/Fo+xoQPdZrRqyfA24QDaTyZLgZrkkwZ1EcP1+k+xWrFNwTEGZxTys/c/9Zf377GGe0ruLQNpkvlvaS+0TptThrsWyGuBB/iXJvQlTMMpvkfx9DnNAPxazy+KnG4D3y4ZMqATnngQ3A02CC4pgKbZIgc3MZbPun/vP+nvUUILNeRiRN2rRZff6a6LaJLmFVJskt9d59OTaEJzMCIswB3S/z59vBs6UDxuXBDejqiS4a9EjTUERJMTNYDHraGNEen+J5BJdndlnupcbtTjso2umezBOwPWM+AFILaKaJLldwOlOrz21ejcFq1qSAvopmPIG9g4mwXVXmwT3Y7TgSFDGMEvuljJ0sZoiojgyE5P1q6a2DMtTK1lgX6q87K4FZqLijZglcBl/kuRuxSVBb2qR+5Ae5oDuZ/m984AHRSMOJsHtgsUXVZME5/YmV365G5MUZ8GsAbbTxwjihixZ6cQSqAXLuhKm1105MS4l+ln0Im19rPwkf3jxL0nuh8AvxKOOLHIlYMMa0Bdisob98E3gd6IRhyTBXVhNEpz7MpTyi2BPtZEsAyykR7ohp/vn9qyL7zSUYEPepLBkdNk9Sq5FWpjFvyS512M+xPvhMZjmYJER1oDu1yejm4D3yoaUk+DGgMV/KSfBzXPZN2/CFI9RwRLc3JtoZSOz2acZ7rVj36ilBBvzsFXeqEUDerDcEoD9TZLb5zz6UJHaRw9rQPfjBrkVOEM+LA3Daei4G2beBqMdLk/mYOodz3AZqHwlasiygB6aET0cpIloVamAWP9uZz3Ykykvu2ume9ScjDmjLlepJDcb1/30HTjd+ycVqX30sAZ0Pz4VnYK0yEQKOJCFWf0w/48wNhs8p2/R99G63mHQg2nKYsFs5D2KldL7x3H4f7wyzrrKf00rjfkFXlcUv8Y9wHbxKOW3t+FSRGsMKJWX3hswS/HyoP5PTCfLamlAr5J14swUXoXpvmQv5cFQDhr2wZILwcvDmDzFFngt/mdbKjeCJ7UcsIMOevT8ee1Zfc88TH/0/gKQFRWYKaHL7mEhL3NdSZLLlZPkKp/s5EH9e8CvxKMOdQIROm4cxoB+Eubu6upbwG9FI1IejOTNG6bzIsjscm2Hehz+Zlmq6ghu6o20sJE5bJNu3elKjJz1U0+lwMw+eYEZDejhcR3QKBpRSZJrgVQn1STJvRa412mkEalGLWEM6NUscfwDeI9syPgkuL9Cw2oYmecSzN1aCqpaEjyhN9HJw7RS0oIytScqMLMpB90FpDd03UcPj1nA1eJRlaA+D5hPNUlyy0G68HaIyPyOxymgb6OaJLj2u2D2P0wSnDADp+xqzBtXhcMeRDWeUyxmHTlEmywLgMcK56XMEqzVMmZltXWT8AcDrEDcLE/V0NOA74hHecAQpBZTTZLcdqpLktOA7qiahizLkX6GOyQJ7k8wNtc1Ce7bROx4QwKswLoyYBrYQzu9DCG6X0TmFz1k8lhuVXiYOiO9RSAjumHtBO5ymJuqnXcArxaP8idJ7mbgXeJRRmTyZMIW0J8IzHEY9xrgPtEI/5LgXgW8UzpI1Zxoub1AH4u0oEw9WX/vmsagpwBDeUjLlt11Hz18fo25z9vzL0nuO8BvxKPMyfhINGoJW0B3KSjzXaQ/pEOS4C6uJgnuWPFrq3oRBfR2BpnFmLSZtj6hu7NOJsx7sC3ntOyuAT2crgNkhxFTmPXX6pPk5A9/RiTKwIYtoEtvkDcjfjqemAS3CkbaXIJ5AU2CCysP64YsHpBnEetoQHSPaKD645VJZh3Qsx7sS0O/FpiJi7nAVU4j/UmSO7X8lSQi8eE9bAFd8iloB04t8ypJcHePS4ITL7ODeUNqQZFwug/YYndpBtjDUh5iDNEq3kmYoK7czEOwjDlG+Tw6op/ROqBbMilVN/8OfEM8yp8kua3IW2nrE7rQIuBRgutPQfopq5IEN7NSCc45Ce7rwH+4DFR1IXgyKwDbmMeAFpSpP/u67p6p604W0rLP3/qUHl7vwXTClPEnSU56xPnRRKBRS5gCuiRL/LVIiwVUkuCK+0zxGPckuFcgbvii6kxUUGYefcxlt3QNTgN69ay/h41j0FeAbQVxnyTdRw+33wJHi0b4lyQnLUIW+qf0MAV02z0KeTm/8UlwXRdDZqdrEtwTgPOlg1TdCZ7KGlhAHzMRH1rWCnHVsw7oeQ+2Z6FP99Hj6DrMUUZ7/iXJvQq43/La0O+jRy2g34K44H45CW4UWPy3apLgcmgSXBQMACvtLy/RQY/0F+HxRGD5LQKOweylTyuF+RXemEe6qHYXsFs6MVVX84C/OY30r5KczWgN6JZmMH3G8E7gNPmXHtcOdfZNMNqOYxLc37C8+ahACZZYc8B2ulglXW7Xp3P/WDdqyXvlzmuyRi2jWJ94UAFaDnxFPMq/JLmzLK4LfaOWsAR0m4Ysy5HW4z2YBDdQrgQ3B7yMy/y+jDnqoMJPENCbaGYDHQyyT/Yaof+kHiHWy+4N5bruI1lt1BJT7wdeKh7lT5LcjcD7prkmj+nzHlphCejTJcS9Hrhb9BUPVoLbC50XgpeDsQYcns5fCnxAOkgF5mb7SxtpZ4AZWNeIrdCA7h9Ro5atead9dMF7QgXsAuBxohGVJLl81Uly3wB+N801of7dD0tAn+qX+odIW5KmPBgt51gs/iNkdrgmwT0W8wZT0bAfuMPuUlMlvJPVNCCKD3OISBnIiFiGZbvkLLA3Bevkn8tXiEeoIF2P+XHb86/d6nnAv6b47xrQp5HmyN+kFcDbZF/Og1LWPHItug6aHnRth5pFk+Ci5jasaxNkgZ10stqlIUsYfm/iogU40eZCD/ONH8wDKdHPbCtwj8PcVDA6gCudRvqXJHekKtBPxeXZv07CcGN6IiadYaJdOO1bp2EoDW0PwtzrYNS5mNsVmLeFig7BEaUiabbSJt8/1/Pn/hPtow/mYSwHGd1Hj7MzgC+IR/mTJLcZOPsI/20uIV6hC0NAP9L++akgvNemgKEstGyGRZdBaQaU5B0dgM8jLw2ogie4aTezmHW0ckD6QV4Duv+sTw0US+bo2tYc0n10DejR8z/Ai8SjxifJNYJ0Ca7sekyS3mRCW2AmrAH9jcCdoq+S8mA4B7kR6Cpve482mT+XeRHwYekgFQqCm3aedvpoQrTVlsWcyFD+sv6QlPVgTwY2aIGZpLgEeIxoxPgkua7yn43iEtS/Bvx+kj8P7T56GAL6xE87PwJ+JvoKlSQ4D+i6FLJbYWS2y775UZg3kIqeB4FB+8tHWEAPJUS/508GZgrnpabXVf5rWpUE5nWy5psAq4B+8SgVBtchjVWVJLmZkFqCedOIwwFgSn0/NOHP9An9CBYDS8f9++3AW2VfYmIS3AMw0orDTy+NJsFFmeDpvEiKTXTysDZkCQ/rAjNFr9x5TVZgBnTZPaoWYnKa5A4A7Zg0O2nD1Ecs59CTrUeV5xQ6QQf08cvtu/EtCc4pCfEvmI5vKpoES6qNzGYDrWzXgB4eosS4LXnYLy8wo8vu0XU28DnxqBIwWn5Kn4lr0ZmNwDkT/kzSTKxugg7o45NhTgX2iEYfkgR3aTVJcJ/l8B+YihZRQ5YO+mlB3JBFA3rtWO9LFkuwOQfrCkjPGmtAj7aPAs8XjUhx8Nk69ShMt2S3JLlrgQ+O+/dQ3guCDujPKf/9zVgXBCkbnwTXeQGQck2Cez7wMekgFSqbgQckA7pYhbDPRyfwKNGslMTxWNbJrjTacmjUcgfSkzMqbC5H+ntYecMUypnv4Jok9xXgwvI//4d4dB0EGdAbMNmLfwF+Iho5MQku55wEtxTzBlHRdgvWt3ZTUGYRa6Wrb6H8RB4jeSyPr5kaf9BXBNKim9gQpviQirbrxCMqSXKzgOqS5F6GWYJfhjmTHipBP6G/iEee0i2Vk+CGgUXXQ9P9rklw4PLGUGEkWm7Ps5lWNkn3z0N7VCVGrD80NY1BTwGGCpDWZfekWQL82WnkAUh1YBLl3JPkTsEswTc5f4UaCTKg7wcukw3xTLe0A2lof6CcBNeKYxLcnzDLqCr6BDfpFpawljZGpb/PGtBrz75RiwfbcrApi3TZXQN6PDwb+KR4VAkYLtd7n4FrJbmVwOlAr3hkjQX9hC6UhuGMyWhfeAmMzXRNgvsk4pUBFVLDWC+jekCGTlZTQPSuacbs8arasm5NmfFgX7p8fE22OKe90ePjU5jAbi+F2T/3IPUYTCcBt8x3CGHDn+gE9BTmnMqMDbD4Qig1mHao8iS4Z2PeCCoe7gD22l2aBvbTTp80J+YpmD1eVVvzgGNsLx6jHNAR/Sw3IkygVKH2Z6QrrZVKcllIPRaT+e4e1EMlGgE9BRzIQfM26Pw9eAUYbXZJgnPfe1FhJdo/T7GJBfTafgKosK41rqpmvbVR8MqZ7llIa4GZJHNPksuWe6hncD3OFirhD+gpzwTzht3w6F9AZi+MzHIJ5qBJcHEkuDmb/fN57JXun2uGe/1Yf3hqHoO+AmzPQ0qWGKcBPV7cTiuN76H+WB6pKxzhoB7ugJ7yYChvPj11Xgjp3TDcKv7tLbscPUccR6KGLB3yhiygT+j1ZP2EnvNgexZ65fvomhgXP271RFKYygQzMd0ERnE9ox4K4Q3oKQ9G8mYt7ajfQLEXRtpdg7m8wpCKgjVYZ5qa6hIL6JY2ZDkWs7er6uNooM3mwkp+06C8wMwDwCbpxFTouVX8LAf11FzMs/4o4k/8YRHOgF4pHDMCLPkzND4II/NwPGvuVgNYRYHgSSsH7GQB3dr/PNxSWD6le0Deg+4i2qhFVbj35BiC1AJgAeY4W+hy2KcXwoDuwVjWfErqvBZm3gEjC3D87rp36VFRIGrI0sJG5mpDliiw3uJoKNd1H9VGLcpI45or5QH7y0G9uu5sgQlZQB9XOGbBzTD3ahidQxXTlPfRVVEiuCk30cnDtDLGsOw1tKBM/dk3avFgSw768ug+uqp4NHCx08gxoFRu5NIK0k//QQtRsPPAS8OBDLQ/CPOuhrE28OSloMouxtSKV/G0A7jH7lIPSLGIdQjLEM3D7Omq+lqG2SOZVsaDvWlYV0R6m7gdpLsvKkLOBT4sHlXpzjYGqS5M4Rm3anKBCFFAT5tWqG0rYdGFUGqEMflvadmHMD9QFV+3YP1MlgH20k6v9FSKPp0HowU4weZC81ENBgvmHwQ/272YoK7i6/PAGeJRlcIz6fJxtmYiU3gmHAG9UgWuZSssvhi8hnIrVKckuDOAL/o7QRVCouX2PAMsooc9stfQ/fPgWH/vG0sm072Ug4zslqGJcfF3JTBfPKrScjVbLhGbIxJBPfiAfrAK3HZY+muzhz7S4hrM52N+gCr+RA1ZOllDqzZkiRLrgN5QMhXjtuSQ7qNrQI+/LK5JcpXCM3lIPRqz0BfywjPBBvRKFbj8EBz1K8jsqaYKHJgfXNa/CaqQGgNW2F1qume30y9tyFLA7OWqYFgH9KwHuzMwqAFdTe5xwIVOIytP6jPKT+pg9thDGtSDC+jjq8AtvQAyO6upAgdwAeYHp+LvLmCn3aWmIctC1koLQJ1ICPsdJ0hX+a9pVbY81zWIX6MPWC0epaLoJcAHnEfvB2Zh2sCMENpqcrV7mh2aJkl1DMiX4NG/hYaHYWR+NU/m7wde6jpYRY7o/HmWAZawThuyRM9Tge7pLvIwx9f6CxwsMDNmf7P9J3oaJim+jEmEdFuC3w+peeCVMO/KEYJe4z5M7QJ6x1QroikYy8CsVdCwBkY6cKwCB7Ac+IrrYBVJgqXSRlp5iDnsk55R0v3z4D0N+L3NhZUCM/uz0DCCWfmzcwvwGrfpqQj6G6aSnLz0rwccgFQHeGPAdiwPV9ZPDQP6X6e5wAOvCMPt1TyZz8P8gFSyCAJ6gfn00oTpwSCgGe7Bsy8wU4LNeeguwBOGkAT0m10mpiIrh3lCP8ZpdCWozyOUHR5qF9BH5tpd5x7Mwfxg8tV8ARU564G1dpeaKhFLWSldGTsKWCycl/LfcZhTwNOeNqzkLm3MwxNkt5T7gG3AHIf5qWg6GjgfOM9ptEdo99BDtgMg8lu0ilcSCZ7Oc8AOOujR/ufRlMcyl8GcZYC+IpAW3dhKwK0Oc1PR9grgvVV9Bc/irzqLakB/D66frlTUCRLiGmhhI61sk5Zk1v3z8LBOTmwag56COTyTlh2W0bruyfR14D+CnoSfohjQ/x34RtCTUIER3HybWcw65mpDliizXi0peLAtZ5LjhE9HGtCT6ypMG5ZYiFpAn4v5Aahk2oM5g27BAzK00ydtyDITs3erwsH6Cb3SqKW/gPTQzArMrqhKngKux9hCKGoB/TqgGPQkVGBuxZz+tJABdrOE1dLCTk9BkiOtam0egozkMcoBHdHPfBfWHxRVDB0L/DroSfghSgH9V8ATg56ECpSoIUuBfpeGLLrcHj7WP5OCZzLdyUJal92VvVcD7wx6EtWKSkB/B1r8QYky3JtoZwOzGJUWlNEM9/ARJcb1FWB7XnwiVuu6q28D/xb0JKoRhYD+NOA7QU9CBc7D+niRB+RYSDeNiPbP08BJ8qmpGrN+Qs97sD0LvXnM+rs9DegK4O/A7KAn4SrsAX0WcHXQk1ChcC+wxe7SDLCPLlYK7+kch0m8VOFyNNBmc6EpJQQbha31gHVY1I1XsddIhJPkwh7Qr8N8g5US7HHmge200y89f67L7eGUwvJn42Ge0ruLHGzUIqD76ArMB/ufBz0JF2EO6D8Hjg96Eio0RPvnrQwwl11aIS4+rJfdK41aRrLifXQN6KridcDbgp6EVFgD+lsx31ClKkQV4rpYzSw86eFiDejhZf2zKXqwJQcDeaTn0TWgq/G+T8TaKIcxoJ8M/CDoSahQGQBW2V8+xnzWS9/cC4DHyoaoOlqGZbPKjAd70rCuiHQf/W5gt3hmKs6uBmYEPQlbYQvoM4Brgp6ECh3Bk1MO2Ek7fdr/PF5agBNsLvQwm+6DBfMPggIzo2i2uzpUM3Bt0JOwFbaAfi3mG6jUeIKbbCONDLCQPvbKXkOX28PP+mfUUILBPHhZyOh5dFWdE4GfBD0JG2EK6D/GfOOUmkhUIa6DAWZiXSO2Qp/Qw886oDeWzB76Bnldd91HV5N5I/CmoCcxnbAE9DcRgW+WCsR+4A67S01X7C4epgHRfbwBy+VcFSjrBKWsB7syTolxt4pHqKQI/UNnGAL6CZhvlFKTuQ1sT59lgZ10soohRHunJ2GCugq3pUCn7cUlzLK70DZMESOlJnMdId4WDjqgNxPhqjyqLgRLoAVSbKWNQS0oE1+iMrA9RSCjBWaUb1oIceJ20AH9GiJ0JEAFQpCk1MICepnLAS0oE1+iffQtOdif00YtylehPVodZED/AeYbo9RUBDfXPEtZRTPSvhzRKh6RcPatVMsV43o0MU75763A64OexERBBfTXYb4hSk3lX8Cg/eVDdNB78ByypcdjisqoaDgeyz3MNHAgVa7rLgvoq4F+6cRU4vyMkJUnDyKgR7bwvao70f45bKODPt0/j7c8lisq5swDbMwDafHNTp/SlY3rCFFCbb0DegNwfZ1fU0WXYLm9mTbWM58t7JO9hgb06LHfRx+DgQIM5SGty+7Kf7MIUZJcvQP61ZhvgFI2BDfVRhbQywyQNmTRgjLRI27UsjmH7qOrWnka8J2gJwH1DejfAf6tjq+nom0z8ID95SU66JO+oecAx8qGqBA4yfbCjAd707BBXmDmTpAu9qgEewfwmqAnUa+A/mrM/7BStgRPSFlgO12sdGnIEvTRTSXXjuCDWAlY14C0UcsQsEI6MZVovwKeGOQE6nEzOwb4dR1eR8WLYP+8iUYG6GCDNmRJDuujhsVS+QldG7Wo2rsek6EbiFoH9AJwQ41fQ8XTzfaXNtHBBpeGLBrQo0u0j741BztySPuj6z66kpqDyRULRK0D+tXA3Bq/hoqfYeB2u0s9IEMXqxAeN84i2ItVoSMqMLMlBz15pBWHbpVOSingGcA3g3jhWgb0z2H+x5SSuh1sV8/TwH466GUM0R7pk4GZ8qmpkDgaaLO5MIX5hLgxj/QJfSOixEylDno3cF69X7SWAV3LaSpXgr3LBlJsYj59un+eLCksn9I9Dm3UktZld1Uf76n3C9YyoL8N6edhpQxRQZnFrGUee7RCXPJYPzQ0l6CvAHsL4gIzmhinXH2y3i9Yy4D+MHBODb++ii/BU1GRdvpoQtyQRQN69Nm3Ui3B9hxszKIFZlQ9fBS4st4vWuukuKuAj9f4NVS8PAz02V8+zHx6AdH++RLgUaJZqTBaBuRsLkwD+1PlZXfZuuG/gE3imakkuxz4fBAvXI9z6J8D/liH11HxIGzIspkuVkuX27Xcazy0ACdIBmzIIy0wA/qUruytA14Y1IvXq0rW84HuOr2WijZR/fbZbKCVbbp/nlzWP8uGksl09+QFZjSgK1vLg3zxepa9XF7H11LRJQroHQzQgrigjD6hx4d1YlxjCTYUYLCA7qOrWngu0BPkBOoZ0NcDz6vj66no2Q7cZ395ii5WUkC0LdqMOYOu4sH6CT3rwc4M9MsbtdwB0jYBKmE+Dfw56EnUuzHFn4DP1vk1VXTcgnWyehbYwWLWMIRoT/QpQF4+NRVSS4Eu24tLwKD8p78X68qFKoGuAD4V9CQgmE5TnwD+GsDrqvATHVfLsYVWNkt7XGrBo/ixfkrPe7C+XGAmowVmVPX6gOcEPYmKoFpHPhvoD+i1VXgJinjMoJM1tDLi0jJVxYt1QG8s13Xfn4OUFphR1VtOiAqoBRXQS8CpAb22CqdRrPtPe0COdvqlDVkAThbOS4WfvFGLPDFOA7qa6FxgTdCTGC+ogA6wGnhxgK+vwuUuYKfdpWlgL4tYJ23IciwwTz41FXLHY5Idp5UGDqSgW/5JsB9YJZ2Yiq0vApcGPYmJggzoAJcAXw54DiocRA1ZMgyymLXakEWBSXK0yo0wzXbLiXFp8Q1Q99EVmLbgHw56EpMJOqADfAi4NuhJqMAJAnojbQwyh70ckL2GBvT4sk52bCqZinHDeW3UosQGgWcFPYkjCUNAB9PEZWPQk1CBEmW4d9BLM+KGLJoQF1/WH9aKJdiah005tMCMkjoVcR2r+glLQB8BTgt6Eiow3ZgayBZSwAhLWSl9884DjpYNURFineyY8WBPulzXXRbQ7wO2Ceel4uM84KGgJzGVsAR0MF2NXhn0JFQgBEuZOWAH81mvx9XUeO3AMbYXl4B1DUgbtZTQp/Sk+gbwu6AnMZ0wBXSA84FvBT0JVXeCm2QDTWzShixqMvbH17zyE3pWXGBG99GT50bgfUFPwkbYAjrAe4B/BD0JVVeCgN5CJ2uYy5g+oauJrBPjGsrn0Xdm0fPoaipbMDlekRDGgA5wNrA16EmoutgN3G13qQekWMwa8ojKM+WBE8UzU1EjKjCzNQfrC0gzK1dgiiCpZDgdpIuBwQlrQN+H+Uaq+LsF66zRDLCHDvoYRrT3uQzLwiMq0o4G2mwuNKmVpj+6sHDnLkz3NRV/rwXuDXoSEmEN6AD3AK8PehKq5kTnz3NsYCE9WlBGTSaF5c/aFA+GnnKjFuGNUJfd4+/7wK+CnoRUmAM6wC+AHwQ9CVVTwv3ztbQyIi0oox3WksP6w1vzGPQWYF8e0rJldw3o8XYL8F9BT8JF2AM6wNuBW4OehKoJD1FDljzt9Lk0ZNEn9OSwb6Vagh05GNQCM+oRO4Azg56EqygEdDDf4F1BT0L57h6skx8zwG4Ws5ZRRPvnRwFL5FNTEbUMkwQ5rUqjlt4C0n309VgXQlIRcwawJ+hJuIpKQN+N+UareBEsXeaBHXTQK11u1+NqyTIDeLLtxR6woYC0wAzoU3ocvZmIJzxGJaAD3Aa8NehJKF8JboqNzGUDc9mlDVnUdER13TfmwctCRpfdk+ynwE+CnkS1ohTQAX4E/DzoSSjfiDLcO1nNLDxpZwR9Qk8eUee1/gJsLKD76Ml1J/CmoCfhh6gFdIA3AHcFPQlVtX5glf3lJRaynozsNWYCT5INUTFg/YSe9WBXBvrliXH3oHk9cbCXGG3nRjGggyk6sy/oSaiqCJ5wssAu2umTlnt9anmwSpalQKftxSVgsCB+jVH0+FocnAlsD3oSfolqQN9OhI8WKEB0M2yiiT4W0SdNP9X98+Sy3mrJe9BdLjCjjVoS5Z3EbOskqgEd4Gbg3UFPQjkTFZRZQjez8RiWvYYG9OSyLzBTMpnuu/KQ0n30pPgN8N2gJ+G3KAd0gG8D/xf0JJTYPqyPh3hAmg56ySE6LpwGTpJPTcWE9RN6rgQ7M7BBvo++QjxChcF9wGuCnkQtRD2gA7waeCDoSSiRFWC7HV4pKPMwI4jOCh8HzJVPTcXE8Vg25KkUmOmRlyDchkmOU9ExBJwW9CRqJQ4BHeBUkK7GqgCJjqvl6WcRPbp/riTywMk2F3pAzoP1lUYtuo8eZ2dhepzHUlwC+mZMD3UVDaKEuHYGmc2I9BObNmRR1h/qGkuwKQ+jOXFA13306Hg/cGPQk6iluAR0gOuBDwQ9CWVF0Gwnx2LWujRk0YIyyjqgFzzYmoPePNI3mj6hR8MFwNeCnkStxSmgA3wVuCjoSagpPQAM2l8+wnzWS+tsLwAeKxuiYshqyR1MgZk9aRiUB/TVQJ9wXqq+VgIvD3oS9RC3gA7wUswvmQonwRJlHthOO/3akEW5aAeOtbmwssq+oVxgRhu1xMYYsDzoSdRLHAM6wCnocZKwEixRNtPKehawib2y19CAriqscymKJVNgppTTRi0xcg6iFcFoi2tA3wA8M+hJqEkJbn5NLKSHmZg6mwIa0FWFLDEuB9vky+4a0MPpI8DVQU+inuIa0AGuAj4W9CTUITYB/7K71AM82umTNmRpAE4QzkvFl32BGQ92Z2FQXmDmTpAuIqkauxz4QtCTqLc4B3SA/wX+EPQk1EGCJ5kcsINOVkobspwEFGVDVIwdDbTZXJjCFLNYV0RUkrA8bIV0Yqpm1gEvDHoSQYh7QAd4AdAd8ByUIVpub6SfBWzQgjKqGiks3xMe5vhabxHIihu16LJ7eJwS9ASCkoSADvAfQU9AAcKCMh0MMBOPEdlraEBXE1m/JxpKsDkHB3LiRi16Hj0cng30Bj2JoCQloPcCzw16Egk3BNxud6kHZFnCGpeCMlohTk1kvY9eLMGWHPQUkL7xBMWSVI18Grgi6EkEKSkBHeDPwGeCnkSC3YF14lAW2EUXq6QNWR6PKSqj1HgnYpIyplVp1NIt/yS5CbhfPDPllyuATwU9iaAlKaADfBK4MuhJJJRgj7EAbKWNDeyXvYYut6vJzMDy5IOH6e83mAfS4hukLrsHoxez1J54SQvoAM9CSzUGQRDQm1lAH3PZL60QpwFdHYnoPPpgpVGLnkePgsQmwU2UxIAOCSoFGCKCPcYCS1lJM+KCMv8mu1wliHVuRUM5oPcVMIVD7WlAr78XYo6pKZIb0NcA5wY9iQRZhWhVZJiOcqKqYP98LnCMaFYqSayf0CuNWjYUkJ5HfxDYKJyXcvcFTAEZVZbUgA5wKfCloCeREIK9xQKwjXb6XJbbk/x+VlNbCnTaXOhhPkhuyJt/0EYtofR3TGlXNU7Sb4D/A1wT9CQSQHCTa2QWA3SwmX2y19D9czUd6+NrBa+85J7RAjMhpL06jiDpAR0S1o0nIKKA3kE/M0ALyii/iQrMbMnBLnlddw3otXcq0uyGhNCAbvKuTg16EjG2DbjP/vIUXawmj2j7Moup4a7UVOyf0MsV47qLSEPHHSDdLVICLwdWBj2JsNKAbjwEvCLoScTULVg/42SAnSxmNUOI9i5PAGbKp6YS5nig2ebCFGaFqEeeGLcP64qISuhrwAVBTyLMNKA/4vfAN4KeRAwJliAbyLKZVjZrQRlVC3ksj6955Ys35oGM+Eapy+7+uwF4f9CTCDsN6Id6H3Bj0JOIGcHNrYXFdNPKiHTNUuu3K1vW75WmMRgowIE8pGXL7loxzl+bgbODnkQUaEA/3NnA1qAnEROjwG32l2dZyioaEDdksd4bVYlnvZpTLMGmHKyXN2rRgO6v0zHNndQ0NKAf7gBwWtCTiIk7gV12l6aA/bTTxxii/fNOzBljpWycbHthpVHLoDygD6CJW355DaKk2mTTgD65e4HXBj2JGBA8qRSBLXTQq+fPVS21Y1lRsNKoZaDcqEULzNTdd4HfBD2JKNGAfmS/Ar4f9CQiThDQm1nEWjrYLU2I0+V2JSVq1LK+AEN5yOiyez39E3hn0JOIGg3oU/sv9BezGqIM9w76aELckEUDupIS7aNvzZkiM1pgpm62A2cGPYko0oA+vTOBHUFPIoK6y39ZGmE+PYBoabMZc7ZYKQnrD4FZD/ZkynXdZQH9PkxRJSV3BrA36ElEkQb06e3BvMGUjOAJJQ9soYvVLsfV8rIhSnE00GZ78Riwrmj+WfBh00Of0l28CZNMqxxoQLdzB/CWoCcRMYKbWRMzGWAeWzUhTtVDCsmyu1dupZrVRi019hPgp0FPIso0oNv7MfpmkxA2ZBmgGW3IoupG3Khlp+6j19IdwJuDnkTUaUCXeRPmjaemtgu42+5SD0jTxWqKiMpmpxCcKVZqAuuAXmnUsl7eqOU2xJ9RE2k3uq3pCw3ocpqwMb1bsE5WzwB76aCXEUR7lMcC8+RTUwqAZUDO5sJKo5aNwhaAmEClDwDTOwtNPPaFBnS5HZg3oDoywVG/RjJsYAG97JG9hi63q2rMwHTpm1alUUuvW6MWPfY6tXeg3yPfaEB3czNa9GAqgl/QFrpYQyvD0gx3DeiqWtbvoaYx6CvCPm3U4qdfAd8LehJxogHdnZYlnFwJuNXuUvPs004/RbQhi6o7685rBQ+2Z2GjPDFOA/rktLx2DWhAr442DjjcPVgX1EgD+1hINyVE++fzgCfIp6bUIayf0NMe7EtDfwHpPvp6YK1wXnG3H22AVRMa0Kt3GtrabzxRQ5Y0gyxhjfT8uT6dKz8sxXTrs5KiXGAmpY1aqqQtqmtEA3r1tmDeoMoQBPQm2hhkLnuk++ca0JVfrN9LDSXYlIdSThu1VOF9wE1BTyKuNKD74wbgv4OeREgInkaK2pBFBU3eqCWLFphx8zvgG0FPIs40oPvn68AFQU8iYP3AavvLR1nKSrKItiULWB43UsqC9YfDnAfbstDdgDSg3w3slE0rdh4Czgt6EnGnAd1fL8e8cZNK8CSSA3awgHUcQLQneSKmy5pSfjgey/dTClMorr8gfo0xkr3sPgKcGvQkkkADuv9OQ7yCHBui+u2NbGIu29gvew09f678lMeyhLCHOb42mAMy4kYtSQ7ozwQGg55EEmhA998G4FlBTyIggoDeQidraWVMekRAA7rym32BmZJ5Qt+Vh5Tuo9v4MHBN0JNICg3otfF34KNBT6LO9mLdx9gDMrTTh7w8tgZ05Tvr91S+BDuzMJhHuo++Amlrl+i7FPhi0JNIEg3otfN54LKgJ1FHK7A+j58GdrOYhxlGtH9+FLBYPjWlpmTdtS8N7E9BTwFpQN+OKbqUFGuAc4OeRNJoQK+tF5GcKlGi8+d5+lhEj7RtnR5XU7XQDhxjc2GlUUt3EZdGLUlZdveA5UFPIok0oNfe8qAnUCeCm1UT7Qwym2HdP1dhYf3eaijBphyM5CCtBWYm82ygL+hJJJEG9NrrBZ4T9CTqQNSQZT49NKINWVRoiArMbMvBBnmjliQ8oX8SuDLoSSSVBvT6+Avw6aAnUUP3A5vsLk0D+1nKSmky3EzgScJ5KWXL+sNi1oNdGacCM2swH/Dj6i/AZ4KeRJJpQK+fTwFXBD2JGhEsJeaBbXTQ69L/PCsbopS1Y4A2mwsrH0Q35M3ftVELAD0kYyUy1DSg11dc95ZECXGz2cgcdmpBGRU29o1aPNiYBy9rWqsKxHUf/ZSgJ6A0oAchjm/8m+0vbaSL1czBY0T2GhrQVa09xfbCxjFTYGZTAVKy0+WC35XIeAHQHfAcFBrQg7AWc5wtLjYBD9pf7rGQbjKICsqkEZwVVsqRqFHLzky5rrtsH/0ukJ7WDLXPA38IehLK0IAejMuITwUlwZ5gBthFO70MIdp7PA6YI5yXUlInYroGTavSqGUwL36NYaxPhIReEitihpoG9OB8GLg66En4QBDQm2mgj4X0SR9RdLld1cMMLFvzVhq1dBeAbCIbtWwAzgl6EupQGtCDdQ7R70IkasjSxTrm4mlBGRVW1vvoTSXYUIBduUQ2ajkFcRkJVWsa0IM1RrST5IaA2+0urTRk6XVpyKIFZVS9iBq17HBr1BL1JfeXAquDnoQ6nAb04K0CXh70JBzdDuyzuzQD7GSJvCHLAuAx8qkp5cQ6oKeBAylYX0T6CXUzcJ9sWqHxNeCioCehJqcBPRwuwPyiRI1g6bAIbGUeG6Tnz/XpXNXTUqDT5kKz5gSDOSAtLjATxX3064H3Bz0JdWQa0MPj/cCNQU9CSHBTamY+/cxln7RCnAZ0VW/W77nGkllyH81CJt776FuAs4KehJqaBvRwORPYGvQkBAQBvcBSVtECjMpeQxPiVL2JOq8NFpzOo0ctoC8HaS0oVW8a0MNlmOi0W10F9NtfPkIHPYBoabIRy2NESvlI1Khld9pkuwsD+kNE54TLq4EHgp6Emp4G9PC5H3hN0JOwIHjCyAPbaadfun9+EtAgG6JU1Y4Dmm0uPNioJQekYtmo5TvA/wU9CWVHA3o4/Qb4btCTmIZo/3wOPSxgozZkUVFQQFBquMGD7qJp1CIsMBP2gH4z8K6gJ6HsaUAPr3cS7l94QZOJJhbRzSzEm3Aa0FVQrN97jWOwKQ/bcpjKEvbC/Pu9HZPToyJEA3q4nQnsDHoSk9iG9Tla88jSTp+0IQsIqnYp5TPrgJ71YFfGqcDMHSA99FE3p2FdY0KFhQb0cNuL+cUKm39iHZuzwA46WcUBRHuMjwfmy6emlC+sl9zTwFDKLLsL7QduE4+qvTcCdwc9CSWnAT387gTeFPQkJhDtnzfQxwIGpB/3dbldBakdOMbmwkqjlvXxaNTyI+BnQU9CudGAHg0/BX4S9CTGEez9NTGfAWbhMSx7DS0oo4Jmv49egi15OJCJdKOW24G3Bj0J5U4DenS8GbPnFrRRRMuEGTp5GPkxXQ3oKnDWAb1Qgq25cl33aDZq2Q2cHvQkVHU0oEfL6cCegOdwB7DL7tIUcIAOehlDtH8+FzhWPjWlfGX9oTID7EvBRnkrwQFgpWxaNXEm1r/XKqw0oEfLTuCMgOcgKvcKm2mnz+X8ubBGh1K+OwZotbmw0qilP49Lo5agl93fTnhWClQVNKBHz63AOwJ8fUFAb2Eh6+hglxaUUVElatTSU4ThaDVq+SXwgwBfX/lIA3o0fQ/4VUCvLbj5NDCfXlqQ1tvQ/XMVGtYfLosl2JIzf0WkUcs9wOsCem1VAxrQo+u1WBd38c06YL395aPMp09aTCYLLJMNUapmRAVm9mRM9zVhQL+f+ndZ3I8mwcWOBvRoO436VpoSNmTZQierpMvtJwAzZUOUqpllQM7mwhTmCMi6ItJGLR71f0o/m2i1alYWNKBH2xbgrDq+nuj8+QwGaGOL7p+rKJsBPNnmQg/TqKU/D2QgHd5GLe8Bbqrj66k60YAefTcB76vTawluOo3Mp5+ZmKcWAa3frsLG+kNmQ7nAzO5saAvMnA98q06vpepMA3o8fAP4fY1fYxfW9Z09IE0Xq7WgjIoDUYGZLZUCM7JM0NsQNyMU+xfwyhq/hgqQBvT4eAXwUA2//i1Y36LSwF7a6WUI0V5iJ7BUPjWlaso6oKeAYcoBXWYPta0EOUI4Gz0pH2lAj5dTqd2nfNFye4ZB5tMnbciiT+cqjJZiPmxOy8Okg27MYfbRZa9Ty2X3c4CNNfz6KgQ0oMfLIPDMGn1twc1mBp2sYR5DDMleQxPiVFhZf9hsGoOBAgxlIS1bdq9V57UPAdfW6GurENGAHj/XAB/2+WuWsG7I4gE5OuijAS0oo2JDtI++Ke/UqKUWAf1i4Ms1+LoqhDSgx9MXgUt9/Hp3A9vsLk0D+1hEN6OI9s+bgeOlE1OqTkSNWvanYFDeqKUHWCub1pQeBl7i49dTIacBPb7OBdb49LUETw55YDsdrJdWvHlKebBSYXQ85kPntCqNWvqCbdRSApb79LVURGhAj7dTkT4jTE4Q0BuZxSBz2an75ypO8sDJthc3lGBDAbxMYI1ang30+/S1VERoQI+3XuA5Pnydm+0vbaaLh5mDx7DsNTSgq7AT7aNvzZm/hPvogt+1I/oE8Fcfvo6KGA3o8XcF8KkqxvdhvXTvAR6LWEcG8dKAVohTYWf9Hs17sC1brusuC+j3ADuF8xrvT8BnqxivIkwDejJ8Gviz41jBEmAW2EU7vRxAtHd4LNAmnJdS9WYd0CuNWvoKSDfRS7hnu68Hnuc4VsWABvTkeC4mi1ZK1JClSB8LtaCMiqd24BibCz2g6Jnja6QhU59GLcsdx6mY0ICeLMsdxogKynSxlrl4mhCn4sr6vdpUgr4i7M7VpVHL84Fuh3EqRjSgJ8s64IWC6/cBd9ldag7rdNCP/PitPqGryLBedi+UYGsWut0atUg+AnwO+KPoFVQsaUBPnsuBz1teewvYPmyb/fMlrJY2ZJkHPMH+cqUC9W+2F1YatQzKqytsx/qDNFcBHxe/goolDejJ9FHg7xbXCZJzCsBW2hiQFpSxvkEqFQJHA602F1YatfQXgHRNGrUMULveDSqCNKAn1znAhmmuEQT0Jjrop5V9un+u4iyFsFFLbxH252vSqGU50kNxKtY0oCeXTWlI0RN6F6towRzXEdD9cxU11h9CK+fRN8oLzEz3hP5SYLXoK6rY04CebKuAlx3hv90PbLb/UiMskJ+KKwAnSgcpFTDrgJ7xYH+6fB5dlim6FlPpcTJfBS4SfTWVCBrQ1YWYG8REgqMzeWAn8+iT7p+fCDTJhigVuGVAzvbiEjCQB1LiRi2TlYG9DviA7MuopNCArsDcIG6Y8GeC5fZmZtHDQjZKC8ro/rmKohnACbYXN3iwsQBkIC17Sp/4O7gZOFv0FVSiaEBXFWcBW8b9u6BJRBOL6WYWMCJ7TQ3oKqqsz6M3jplM980FSMkS4yb+Di5H/CumkkQDuqoY5tAkuYfshpWANPPoJ4u4oIwGdBVV1u/dnAfbM9CfR1pg5u5x//wq4F+i0SpxskFPQIXKA8C5INkKLwJ7eAz3sw/RHuFRwGLR7JQKD+vTGSnMx97+AhzvQSoFnt0n32Hgk8BM4Lcuk1TJogFdTXSp/aVjwEIezwUcy0Y2yV5Hj6upKOsCOjEdzqbkAXPG4PpZ8PSdMOsAjOQhZRfUP1PNJFWy6JK7clQC5pGlm/P4LfsRV7jQ5XYVddYfShvHYEcGft9u/j2j5WBUDWhAV44ywAyeyc/pYIztiI/kaMlXFXXWH0rHUtAxAiua4N7ZkB5G/Auj1HQ0oCsHY8AiWrmRM7mDQUx4F5gJPKkGE1OqnkTbRmmg2YOLW6GUg+yoOIlUqSlpQFdCHtAC7OY8foaHdTu28Z6K+DOAUqFzPILCSB4wZxT6c/DHecCo3oCVv/T9pIQ8oIOn8DueyBY24/Qm0v1zFQd5BOfRoZx5Mgp/mw39MyCjS+/KRxrQlUAJaCfPgzyPvxxShUZIA7qKC/F7ueCZj8WXtAIpyMjOpit1RBrQlUAeyPNCfspsYA9ODxdp4GR/56VUYERP6FB+Sh+BexrhlrmQ0tpvyica0JUlkwh3FFdyKg+yEec3z3HAHB8nplSQxAEdzAfhmSXzlL63QRPklD80oCsLHjAL2MKLOJ99iHuej6cFZVSctAPHSAd5wIwx2JaBP7UCY5olqqqnAV1Zmssp/JpHs4dtVPXGcXqiUSrEnHJCSkD7KFw3E7pnQnoIPE2QU1XQgK6mUQIWMZvbeSHXVpMIV6FP6CpunJM88yVzE76oDchAVhPkVBU0oKtpFIESL+Dn5EDagGWihcBj/JmXUqHh/CG1lIL2EXigCNe2mQS5lD6lK0ca0NUUKs1XLucp9FSTCFehT+cqjo4GWl0He0DrGPxpDuxoNGfTNUFOudCAro7AA2aToo9zuZC9iJuvTOb06r+EUqGTAp7tOtgDWsZgVxoubzN/pglyyoUGdHUEaaCJc/g1SxhiG74UtNKGLCqu5lUzeCwFC0bgny1w/yxI69l05UD7oasjKJJigCdxO7vw7ZPf+4GPVvHlSpgHGtfPFtUuMlS7EhrkSmoJU3bf5XuXwuy/uBYqTWFOOo5UOX404PGTvX8ywDbguw5f97AvNApsyh3hlZSaRsrzdLdGKaWUijpdcldKKaViQAO6UkopFQMa0JVSSqkY0ICulFJKxYAGdKWUUioGNKArpZRSMaABXSmllIoBDehKKaVUDGhAV0oppWJAA7pSSikVAxrQlVJKqRjQgK6UUkrFgAZ0pZRSKgY0oCullFIxoAFdKaWUigEN6EoppVQMaEBXSimlYkADulJKKRUDGtCVUkqpGNCArpRSSsWABnSllFIqBjSgK6WUUjGgAV0ppZSKAQ3oSimlVAxoQFdKKaViQAO6UkopFQMa0JVSSqkY0ICulFJKxYAGdKWUUioG/j/tzRO4th59GAAAAABJRU5ErkJggg==;" vertex="1" parent="1">
          <mxGeometry x="-260" y="790" width="60" height="60" as="geometry" />
        </mxCell>
      </root>
    </mxGraphModel>
  </diagram>
</mxfile>
